Roboto-BoldItalic.ufo
<glyph name="exclam" format="2">
  <advance width="541"/>
  <unicode hex="0021"/>
  <outline>
    <contour>
      <point x="576" y="1456" type="line"/>
      <point x="276" y="1456" type="line"/>
      <point x="134" y="448" type="line"/>
      <point x="369" y="448" type="line"/>
    </contour>
    <contour>
      <point x="40" y="131" type="curve" smooth="yes"/>
      <point x="42" y="43"/>
      <point x="112" y="-19"/>
      <point x="199" y="-18" type="curve" smooth="yes"/>
      <point x="289" y="-16"/>
      <point x="357" y="51"/>
      <point x="355" y="142" type="curve" smooth="yes"/>
      <point x="353" y="230"/>
      <point x="283" y="292"/>
      <point x="196" y="291" type="curve" smooth="yes"/>
      <point x="106" y="289"/>
      <point x="38" y="222"/>
    </contour>
  </outline>
</glyph>
<glyph name="quotedbl" format="2">
  <advance width="637"/>
  <unicode hex="0022"/>
  <outline>
    <contour>
      <point x="406" y="1537" type="line"/>
      <point x="208" y="1537" type="line"/>
      <point x="184" y="1386" type="line"/>
      <point x="122" y="987" type="line"/>
      <point x="283" y="987" type="line"/>
      <point x="381" y="1383" type="line"/>
    </contour>
    <contour>
      <point x="721" y="1537" type="line"/>
      <point x="524" y="1537" type="line"/>
      <point x="502" y="1395" type="line"/>
      <point x="438" y="987" type="line"/>
      <point x="599" y="987" type="line"/>
      <point x="697" y="1383" type="line"/>
    </contour>
  </outline>
</glyph>
<glyph name="numbersign" format="2">
  <advance width="1184"/>
  <unicode hex="0023"/>
  <outline>
    <contour>
      <point x="105" y="0" type="line"/>
      <point x="290" y="0" type="line"/>
      <point x="791" y="1456" type="line"/>
      <point x="606" y="1456" type="line"/>
    </contour>
    <contour>
      <point x="469" y="0" type="line"/>
      <point x="655" y="0" type="line"/>
      <point x="1156" y="1456" type="line"/>
      <point x="971" y="1456" type="line"/>
    </contour>
    <contour>
      <point x="1192" y="867" type="line"/>
      <point x="1223" y="1040" type="line"/>
      <point x="211" y="1040" type="line"/>
      <point x="180" y="867" type="line"/>
    </contour>
    <contour>
      <point x="1039" y="410" type="line"/>
      <point x="1070" y="583" type="line"/>
      <point x="59" y="583" type="line"/>
      <point x="28" y="410" type="line"/>
    </contour>
  </outline>
</glyph>
<glyph name="dollar" format="2">
  <advance width="1140"/>
  <unicode hex="0024"/>
  <outline>
    <contour>
      <point x="853" y="1688" type="line"/>
      <point x="696" y="1688" type="line"/>
      <point x="641" y="1391" type="line"/>
      <point x="798" y="1391" type="line"/>
    </contour>
    <contour>
      <point x="586" y="55" type="line"/>
      <point x="429" y="55" type="line"/>
      <point x="379" y="-215" type="line"/>
      <point x="535" y="-215" type="line"/>
    </contour>
    <contour>
      <point x="735" y="391" type="curve" smooth="yes"/>
      <point x="719" y="279"/>
      <point x="629" y="211"/>
      <point x="518" y="212" type="curve" smooth="yes"/>
      <point x="374" y="214"/>
      <point x="338" y="334"/>
      <point x="345" y="458" type="curve"/>
      <point x="63" y="458" type="line"/>
      <point x="54" y="174"/>
      <point x="213" y="-17"/>
      <point x="500" y="-22" type="curve" smooth="yes"/>
      <point x="756" y="-26"/>
      <point x="998" y="118"/>
      <point x="1014" y="393" type="curve" smooth="yes"/>
      <point x="1029" y="642"/>
      <point x="854" y="757"/>
      <point x="652" y="853" type="curve" smooth="yes"/>
      <point x="559" y="896"/>
      <point x="479" y="948"/>
      <point x="495" y="1062" type="curve" smooth="yes"/>
      <point x="509" y="1168"/>
      <point x="583" y="1246"/>
      <point x="693" y="1244" type="curve" smooth="yes"/>
      <point x="824" y="1242"/>
      <point x="839" y="1109"/>
      <point x="834" y="1005" type="curve"/>
      <point x="1116" y="1005" type="line"/>
      <point x="1124" y="1268"/>
      <point x="994" y="1470"/>
      <point x="719" y="1477" type="curve" smooth="yes"/>
      <point x="465" y="1483"/>
      <point x="232" y="1327"/>
      <point x="215" y="1063" type="curve" smooth="yes"/>
      <point x="200" y="812"/>
      <point x="376" y="699"/>
      <point x="581" y="606" type="curve" smooth="yes"/>
      <point x="678" y="563"/>
      <point x="751" y="507"/>
    </contour>
  </outline>
</glyph>
<glyph name="percent" format="2">
  <advance width="1467"/>
  <unicode hex="0025"/>
  <outline>
    <contour>
      <point x="182" y="1099" type="line" smooth="yes"/>
      <point x="172" y="926"/>
      <point x="289" y="803"/>
      <point x="463" y="800" type="curve" smooth="yes"/>
      <point x="646" y="796"/>
      <point x="780" y="918"/>
      <point x="797" y="1099" type="curve" smooth="yes"/>
      <point x="803" y="1176" type="line" smooth="yes"/>
      <point x="813" y="1351"/>
      <point x="699" y="1474"/>
      <point x="523" y="1477" type="curve" smooth="yes"/>
      <point x="340" y="1481"/>
      <point x="204" y="1357"/>
      <point x="188" y="1176" type="curve" smooth="yes"/>
    </contour>
    <contour>
      <point x="380" y="1176" type="line" smooth="yes"/>
      <point x="392" y="1248"/>
      <point x="444" y="1313"/>
      <point x="524" y="1311" type="curve" smooth="yes"/>
      <point x="600" y="1309"/>
      <point x="623" y="1244"/>
      <point x="616" y="1177" type="curve" smooth="yes"/>
      <point x="606" y="1099" type="line" smooth="yes"/>
      <point x="593" y="1027"/>
      <point x="542" y="964"/>
      <point x="463" y="966" type="curve" smooth="yes"/>
      <point x="388" y="968"/>
      <point x="363" y="1031"/>
      <point x="369" y="1097" type="curve" smooth="yes"/>
    </contour>
    <contour>
      <point x="715" y="280" type="line" smooth="yes"/>
      <point x="706" y="106"/>
      <point x="822" y="-18"/>
      <point x="997" y="-21" type="curve" smooth="yes"/>
      <point x="1180" y="-25"/>
      <point x="1314" y="98"/>
      <point x="1331" y="280" type="curve" smooth="yes"/>
      <point x="1337" y="357" type="line" smooth="yes"/>
      <point x="1347" y="532"/>
      <point x="1232" y="654"/>
      <point x="1057" y="658" type="curve" smooth="yes"/>
      <point x="874" y="661"/>
      <point x="737" y="538"/>
      <point x="721" y="357" type="curve" smooth="yes"/>
    </contour>
    <contour>
      <point x="913" y="357" type="line" smooth="yes"/>
      <point x="926" y="430"/>
      <point x="978" y="493"/>
      <point x="1057" y="491" type="curve" smooth="yes"/>
      <point x="1133" y="489"/>
      <point x="1157" y="425"/>
      <point x="1151" y="358" type="curve" smooth="yes"/>
      <point x="1140" y="280" type="line" smooth="yes"/>
      <point x="1128" y="204"/>
      <point x="1081" y="143"/>
      <point x="997" y="146" type="curve" smooth="yes"/>
      <point x="924" y="148"/>
      <point x="897" y="213"/>
      <point x="902" y="277" type="curve" smooth="yes"/>
    </contour>
    <contour>
      <point x="1260" y="1237" type="line"/>
      <point x="1122" y="1321" type="line"/>
      <point x="245" y="196" type="line"/>
      <point x="383" y="111" type="line"/>
    </contour>
  </outline>
</glyph>
<glyph name="ampersand" format="2">
  <advance width="1304"/>
  <unicode hex="0026"/>
  <outline>
    <contour>
      <point x="354" y="779" type="line" smooth="yes"/>
      <point x="205" y="685"/>
      <point x="47" y="572"/>
      <point x="36" y="385" type="curve" smooth="yes"/>
      <point x="21" y="133"/>
      <point x="215" y="-15"/>
      <point x="453" y="-20" type="curve" smooth="yes"/>
      <point x="615" y="-23"/>
      <point x="755" y="33"/>
      <point x="889" y="128" type="curve" smooth="yes"/>
      <point x="902" y="137"/>
      <point x="915" y="151"/>
      <point x="928" y="162" type="curve" smooth="yes"/>
      <point x="1109" y="312"/>
      <point x="1191" y="499"/>
      <point x="1206" y="715" type="curve"/>
      <point x="968" y="714" type="line"/>
      <point x="939" y="477"/>
      <point x="696" y="200"/>
      <point x="479" y="212" type="curve" smooth="yes"/>
      <point x="372" y="217"/>
      <point x="313" y="296"/>
      <point x="327" y="400" type="curve" smooth="yes"/>
      <point x="338" y="476"/>
      <point x="388" y="542"/>
      <point x="447" y="587" type="curve" smooth="yes"/>
      <point x="795" y="815" type="line" smooth="yes"/>
      <point x="910" y="892"/>
      <point x="1012" y="999"/>
      <point x="1019" y="1145" type="curve" smooth="yes"/>
      <point x="1029" y="1338"/>
      <point x="877" y="1473"/>
      <point x="690" y="1477" type="curve" smooth="yes"/>
      <point x="456" y="1482"/>
      <point x="282" y="1318"/>
      <point x="267" y="1086" type="curve" smooth="yes"/>
      <point x="256" y="923"/>
      <point x="354" y="774"/>
      <point x="439" y="644" type="curve" smooth="yes"/>
      <point x="879" y="0" type="line"/>
      <point x="1182" y="0" type="line"/>
      <point x="638" y="798" type="line" smooth="yes"/>
      <point x="583" y="881"/>
      <point x="498" y="984"/>
      <point x="515" y="1091" type="curve" smooth="yes"/>
      <point x="527" y="1173"/>
      <point x="588" y="1247"/>
      <point x="676" y="1245" type="curve" smooth="yes"/>
      <point x="743" y="1244"/>
      <point x="785" y="1194"/>
      <point x="778" y="1128" type="curve" smooth="yes"/>
      <point x="768" y="1050"/>
      <point x="710" y="1000"/>
      <point x="646" y="960" type="curve" smooth="yes"/>
    </contour>
  </outline>
</glyph>
<glyph name="parenleft" format="2">
  <advance width="697"/>
  <unicode hex="0028"/>
  <outline>
    <contour>
      <point x="116" y="564" type="line" smooth="yes"/>
      <point x="73" y="222"/>
      <point x="117" y="-264"/>
      <point x="455" y="-455" type="curve"/>
      <point x="517" y="-303" type="line"/>
      <point x="285" y="-115"/>
      <point x="320" y="309"/>
      <point x="355" y="566" type="curve" smooth="yes"/>
      <point x="359" y="593" type="line" smooth="yes"/>
      <point x="407" y="922"/>
      <point x="524" y="1250"/>
      <point x="796" y="1459" type="curve"/>
      <point x="751" y="1619" type="line"/>
      <point x="363" y="1453"/>
      <point x="173" y="977"/>
      <point x="119" y="588" type="curve" smooth="yes"/>
    </contour>
  </outline>
</glyph>
<glyph name="parenright" format="2">
  <advance width="701"/>
  <unicode hex="0029"/>
  <outline>
    <contour>
      <point x="591" y="597" type="line" smooth="yes"/>
      <point x="634" y="940"/>
      <point x="576" y="1428"/>
      <point x="238" y="1616" type="curve"/>
      <point x="175" y="1464" type="line"/>
      <point x="404" y="1276"/>
      <point x="372" y="851"/>
      <point x="336" y="595" type="curve" smooth="yes"/>
      <point x="333" y="569" type="line" smooth="yes"/>
      <point x="285" y="238"/>
      <point x="167" y="-90"/>
      <point x="-105" y="-301" type="curve"/>
      <point x="-60" y="-457" type="line"/>
      <point x="330" y="-297"/>
      <point x="534" y="184"/>
      <point x="588" y="574" type="curve" smooth="yes"/>
    </contour>
  </outline>
</glyph>
<glyph name="asterisk" format="2">
  <advance width="901"/>
  <unicode hex="002A"/>
  <outline>
    <contour>
      <point x="136" y="703" type="line"/>
      <point x="285" y="585" type="line"/>
      <point x="507" y="863" type="line"/>
      <point x="633" y="570" type="line"/>
      <point x="794" y="674" type="line"/>
      <point x="633" y="945" type="line"/>
      <point x="961" y="1035" type="line"/>
      <point x="934" y="1228" type="line"/>
      <point x="627" y="1109" type="line"/>
      <point x="707" y="1456" type="line"/>
      <point x="515" y="1456" type="line"/>
      <point x="472" y="1101" type="line"/>
      <point x="186" y="1229" type="line"/>
      <point x="101" y="1058" type="line"/>
      <point x="393" y="967" type="line"/>
    </contour>
  </outline>
</glyph>
<glyph name="plus" format="2">
  <advance width="1085"/>
  <unicode hex="002B"/>
  <outline>
    <contour>
      <point x="1062" y="816" type="line"/>
      <point x="92" y="816" type="line"/>
      <point x="47" y="555" type="line"/>
      <point x="1017" y="555" type="line"/>
    </contour>
    <contour>
      <point x="780" y="1206" type="line"/>
      <point x="512" y="1206" type="line"/>
      <point x="328" y="146" type="line"/>
      <point x="596" y="146" type="line"/>
    </contour>
  </outline>
</glyph>
<glyph name="comma" format="2">
  <advance width="486"/>
  <unicode hex="002C"/>
  <anchor x="304" y="253" name="_bottom"/>
  <anchor x="59" y="45" name="_right"/>
  <outline>
    <contour>
      <point x="313" y="246" type="line"/>
      <point x="74" y="246" type="line"/>
      <point x="37" y="35" type="line" smooth="yes"/>
      <point x="14" y="-89"/>
      <point x="-55" y="-180"/>
      <point x="-116" y="-286" type="curve"/>
      <point x="31" y="-365" type="line"/>
      <point x="161" y="-262"/>
      <point x="254" y="-115"/>
      <point x="280" y="50" type="curve" smooth="yes"/>
    </contour>
  </outline>
</glyph>
<glyph name="hyphen" format="2">
  <advance width="771"/>
  <unicode hex="002D"/>
  <outline>
    <contour>
      <point x="679" y="741" type="line"/>
      <point x="132" y="741" type="line"/>
      <point x="90" y="507" type="line"/>
      <point x="638" y="507" type="line"/>
    </contour>
  </outline>
</glyph>
<glyph name="period" format="2">
  <advance width="578"/>
  <unicode hex="002E"/>
  <outline>
    <contour>
      <point x="43" y="138" type="curve" smooth="yes"/>
      <point x="45" y="48"/>
      <point x="116" y="-14"/>
      <point x="204" y="-13" type="curve" smooth="yes"/>
      <point x="294" y="-11"/>
      <point x="363" y="57"/>
      <point x="361" y="148" type="curve" smooth="yes"/>
      <point x="360" y="238"/>
      <point x="289" y="301"/>
      <point x="201" y="299" type="curve" smooth="yes"/>
      <point x="110" y="298"/>
      <point x="41" y="229"/>
    </contour>
  </outline>
</glyph>
<glyph name="zero" format="2">
  <advance width="1140"/>
  <unicode hex="0030"/>
  <outline>
    <contour>
      <point x="1089" y="856" type="line" smooth="yes"/>
      <point x="1126" y="1152"/>
      <point x="1048" y="1468"/>
      <point x="699" y="1476" type="curve" smooth="yes"/>
      <point x="335" y="1485"/>
      <point x="180" y="1175"/>
      <point x="134" y="856" type="curve" smooth="yes"/>
      <point x="96" y="602" type="line" smooth="yes"/>
      <point x="59" y="307"/>
      <point x="137" y="-12"/>
      <point x="486" y="-20" type="curve" smooth="yes"/>
      <point x="852" y="-29"/>
      <point x="1004" y="286"/>
      <point x="1051" y="604" type="curve" smooth="yes"/>
    </contour>
    <contour>
      <point x="763" y="564" type="line" smooth="yes"/>
      <point x="743" y="416"/>
      <point x="692" y="202"/>
      <point x="502" y="211" type="curve" smooth="yes"/>
      <point x="330" y="220"/>
      <point x="358" y="445"/>
      <point x="373" y="563" type="curve" smooth="yes"/>
      <point x="422" y="897" type="line" smooth="yes"/>
      <point x="443" y="1045"/>
      <point x="495" y="1254"/>
      <point x="684" y="1245" type="curve" smooth="yes"/>
      <point x="855" y="1236"/>
      <point x="828" y="1017"/>
      <point x="813" y="899" type="curve" smooth="yes"/>
    </contour>
  </outline>
</glyph>
<glyph name="one" format="2">
  <advance width="1140"/>
  <unicode hex="0031"/>
  <outline>
    <contour>
      <point x="919" y="1459" type="line"/>
      <point x="882" y="1458" type="line"/>
      <point x="274" y="1248" type="line"/>
      <point x="231" y="1002" type="line"/>
      <point x="585" y="1109" type="line"/>
      <point x="392" y="0" type="line"/>
      <point x="674" y="0" type="line"/>
    </contour>
  </outline>
</glyph>
<glyph name="two" format="2">
  <advance width="1140"/>
  <unicode hex="0032"/>
  <outline>
    <contour>
      <point x="1008" y="233" type="line"/>
      <point x="407" y="235" type="line"/>
      <point x="705" y="504" type="line" smooth="yes"/>
      <point x="867" y="653"/>
      <point x="1073" y="835"/>
      <point x="1091" y="1070" type="curve" smooth="yes"/>
      <point x="1112" y="1332"/>
      <point x="923" y="1474"/>
      <point x="676" y="1477" type="curve" smooth="yes"/>
      <point x="394" y="1481"/>
      <point x="154" y="1283"/>
      <point x="138" y="997" type="curve"/>
      <point x="419" y="999" type="line"/>
      <point x="436" y="1128"/>
      <point x="514" y="1250"/>
      <point x="659" y="1246" type="curve" smooth="yes"/>
      <point x="775" y="1244"/>
      <point x="815" y="1148"/>
      <point x="800" y="1044" type="curve" smooth="yes"/>
      <point x="780" y="909"/>
      <point x="650" y="791"/>
      <point x="558" y="701" type="curve" smooth="yes"/>
      <point x="35" y="210" type="line"/>
      <point x="2" y="0" type="line"/>
      <point x="971" y="0" type="line"/>
    </contour>
  </outline>
</glyph>
<glyph name="three" format="2">
  <advance width="1140"/>
  <unicode hex="0033"/>
  <outline>
    <contour>
      <point x="422" y="856" type="line"/>
      <point x="396" y="699" type="line"/>
      <point x="608" y="698" type="line" smooth="yes"/>
      <point x="828" y="699"/>
      <point x="1082" y="834"/>
      <point x="1096" y="1068" type="curve" smooth="yes"/>
      <point x="1112" y="1335"/>
      <point x="908" y="1474"/>
      <point x="660" y="1477" type="curve" smooth="yes"/>
      <point x="418" y="1481"/>
      <point x="175" y="1338"/>
      <point x="160" y="1079" type="curve"/>
      <point x="444" y="1080" type="line"/>
      <point x="464" y="1183"/>
      <point x="550" y="1248"/>
      <point x="656" y="1246" type="curve" smooth="yes"/>
      <point x="764" y="1244"/>
      <point x="822" y="1171"/>
      <point x="810" y="1065" type="curve" smooth="yes"/>
      <point x="793" y="930"/>
      <point x="689" y="857"/>
      <point x="558" y="855" type="curve" smooth="yes"/>
    </contour>
    <contour>
      <point x="386" y="630" type="line"/>
      <point x="552" y="629" type="line" smooth="yes"/>
      <point x="682" y="625"/>
      <point x="751" y="554"/>
      <point x="734" y="420" type="curve" smooth="yes"/>
      <point x="718" y="293"/>
      <point x="611" y="211"/>
      <point x="484" y="214" type="curve" smooth="yes"/>
      <point x="372" y="216"/>
      <point x="305" y="290"/>
      <point x="307" y="400" type="curve"/>
      <point x="26" y="400" type="line"/>
      <point x="23" y="140"/>
      <point x="213" y="-16"/>
      <point x="465" y="-20" type="curve" smooth="yes"/>
      <point x="733" y="-25"/>
      <point x="996" y="128"/>
      <point x="1012" y="416" type="curve" smooth="yes"/>
      <point x="1027" y="673"/>
      <point x="823" y="779"/>
      <point x="588" y="783" type="curve" smooth="yes"/>
      <point x="410" y="784" type="line"/>
    </contour>
  </outline>
</glyph>
<glyph name="four" format="2">
  <advance width="1140"/>
  <unicode hex="0034"/>
  <outline>
    <contour>
      <point x="1079" y="548" type="line"/>
      <point x="329" y="550" type="line"/>
      <point x="734" y="1064" type="line"/>
      <point x="1023" y="1456" type="line"/>
      <point x="781" y="1456" type="line"/>
      <point x="38" y="513" type="line"/>
      <point x="18" y="316" type="line"/>
      <point x="1038" y="316" type="line"/>
    </contour>
    <contour>
      <point x="1076" y="1456" type="line"/>
      <point x="806" y="1456" type="line"/>
      <point x="541" y="0" type="line"/>
      <point x="823" y="0" type="line"/>
    </contour>
  </outline>
</glyph>
<glyph name="five" format="2">
  <advance width="1140"/>
  <unicode hex="0035"/>
  <outline>
    <contour>
      <point x="386" y="661" type="line"/>
      <point x="442" y="712"/>
      <point x="505" y="740"/>
      <point x="582" y="739" type="curve" smooth="yes"/>
      <point x="727" y="737"/>
      <point x="771" y="620"/>
      <point x="758" y="492" type="curve" smooth="yes"/>
      <point x="744" y="355"/>
      <point x="672" y="210"/>
      <point x="515" y="214" type="curve" smooth="yes"/>
      <point x="400" y="216"/>
      <point x="351" y="301"/>
      <point x="345" y="407" type="curve"/>
      <point x="68" y="407" type="line"/>
      <point x="71" y="156"/>
      <point x="254" y="-16"/>
      <point x="504" y="-21" type="curve" smooth="yes"/>
      <point x="798" y="-27"/>
      <point x="1016" y="185"/>
      <point x="1039" y="475" type="curve" smooth="yes"/>
      <point x="1059" y="727"/>
      <point x="942" y="956"/>
      <point x="664" y="956" type="curve" smooth="yes"/>
      <point x="592" y="956"/>
      <point x="516" y="938"/>
      <point x="454" y="900" type="curve"/>
      <point x="550" y="1216" type="line"/>
      <point x="1108" y="1216" type="line"/>
      <point x="1146" y="1456" type="line"/>
      <point x="350" y="1456" type="line"/>
      <point x="155" y="721" type="line"/>
    </contour>
  </outline>
</glyph>
<glyph name="six" format="2">
  <advance width="1140"/>
  <unicode hex="0036"/>
  <outline>
    <contour>
      <point x="940" y="1472" type="line" smooth="yes"/>
      <point x="465" y="1469"/>
      <point x="167" y="1122"/>
      <point x="107" y="671" type="curve" smooth="yes"/>
      <point x="93" y="560" type="line" smooth="yes"/>
      <point x="63" y="272"/>
      <point x="199" y="-14"/>
      <point x="518" y="-21" type="curve" smooth="yes"/>
      <point x="811" y="-26"/>
      <point x="1030" y="203"/>
      <point x="1053" y="487" type="curve" smooth="yes"/>
      <point x="1073" y="722"/>
      <point x="973" y="969"/>
      <point x="705" y="975" type="curve" smooth="yes"/>
      <point x="502" y="981"/>
      <point x="318" y="811"/>
      <point x="274" y="594" type="curve"/>
      <point x="357" y="533" type="line"/>
      <point x="382" y="652"/>
      <point x="487" y="748"/>
      <point x="611" y="744" type="curve" smooth="yes"/>
      <point x="749" y="741"/>
      <point x="784" y="600"/>
      <point x="771" y="485" type="curve" smooth="yes"/>
      <point x="757" y="356"/>
      <point x="674" y="209"/>
      <point x="526" y="214" type="curve" smooth="yes"/>
      <point x="367" y="217"/>
      <point x="357" y="400"/>
      <point x="371" y="521" type="curve" smooth="yes"/>
      <point x="399" y="727" type="line"/>
      <point x="390" y="765" type="line"/>
      <point x="457" y="1051"/>
      <point x="660" y="1238"/>
      <point x="952" y="1233" type="curve" smooth="yes"/>
      <point x="964" y="1233" type="line"/>
      <point x="987" y="1472" type="line"/>
    </contour>
  </outline>
</glyph>
<glyph name="seven" format="2">
  <advance width="1140"/>
  <unicode hex="0037"/>
  <outline>
    <contour>
      <point x="1192" y="1456" type="line"/>
      <point x="192" y="1456" type="line"/>
      <point x="156" y="1223" type="line"/>
      <point x="855" y="1221" type="line"/>
      <point x="114" y="0" type="line"/>
      <point x="425" y="0" type="line"/>
      <point x="1165" y="1280" type="line"/>
    </contour>
  </outline>
</glyph>
<glyph name="eight" format="2">
  <advance width="1140"/>
  <unicode hex="0038"/>
  <outline>
    <contour>
      <point x="1012" y="408" type="curve" smooth="yes"/>
      <point x="1027" y="661"/>
      <point x="839" y="801"/>
      <point x="606" y="805" type="curve" smooth="yes"/>
      <point x="353" y="810"/>
      <point x="74" y="664"/>
      <point x="57" y="391" type="curve" smooth="yes"/>
      <point x="40" y="128"/>
      <point x="239" y="-16"/>
      <point x="486" y="-20" type="curve" smooth="yes"/>
      <point x="752" y="-25"/>
      <point x="995" y="124"/>
    </contour>
    <contour>
      <point x="734" y="429" type="curve" smooth="yes"/>
      <point x="719" y="306"/>
      <point x="628" y="209"/>
      <point x="500" y="212" type="curve" smooth="yes"/>
      <point x="383" y="214"/>
      <point x="330" y="303"/>
      <point x="344" y="412" type="curve" smooth="yes"/>
      <point x="359" y="535"/>
      <point x="451" y="634"/>
      <point x="579" y="631" type="curve" smooth="yes"/>
      <point x="695" y="628"/>
      <point x="747" y="537"/>
    </contour>
    <contour>
      <point x="1100" y="1077" type="curve" smooth="yes"/>
      <point x="1115" y="1327"/>
      <point x="938" y="1472"/>
      <point x="699" y="1477" type="curve" smooth="yes"/>
      <point x="444" y="1482"/>
      <point x="221" y="1329"/>
      <point x="206" y="1061" type="curve" smooth="yes"/>
      <point x="193" y="825"/>
      <point x="365" y="694"/>
      <point x="581" y="690" type="curve" smooth="yes"/>
      <point x="816" y="685"/>
      <point x="1085" y="824"/>
    </contour>
    <contour>
      <point x="814" y="1063" type="curve" smooth="yes"/>
      <point x="802" y="956"/>
      <point x="729" y="859"/>
      <point x="614" y="862" type="curve" smooth="yes"/>
      <point x="509" y="864"/>
      <point x="473" y="954"/>
      <point x="484" y="1047" type="curve" smooth="yes"/>
      <point x="497" y="1154"/>
      <point x="569" y="1247"/>
      <point x="684" y="1245" type="curve" smooth="yes"/>
      <point x="788" y="1243"/>
      <point x="825" y="1156"/>
    </contour>
  </outline>
</glyph>
<glyph name="nine" format="2">
  <advance width="1140"/>
  <unicode hex="0039"/>
  <outline>
    <contour>
      <point x="228" y="227" type="line"/>
      <point x="206" y="-15" type="line"/>
      <point x="235" y="-15" type="line" smooth="yes"/>
      <point x="723" y="-13"/>
      <point x="1007" y="318"/>
      <point x="1067" y="782" type="curve" smooth="yes"/>
      <point x="1079" y="883" type="line" smooth="yes"/>
      <point x="1110" y="1164"/>
      <point x="999" y="1470"/>
      <point x="675" y="1477" type="curve" smooth="yes"/>
      <point x="379" y="1483"/>
      <point x="163" y="1237"/>
      <point x="140" y="955" type="curve" smooth="yes"/>
      <point x="120" y="715"/>
      <point x="229" y="475"/>
      <point x="493" y="470" type="curve" smooth="yes"/>
      <point x="698" y="467"/>
      <point x="844" y="640"/>
      <point x="909" y="849" type="curve"/>
      <point x="823" y="906" type="line"/>
      <point x="799" y="790"/>
      <point x="695" y="688"/>
      <point x="576" y="691" type="curve" smooth="yes"/>
      <point x="436" y="694"/>
      <point x="410" y="845"/>
      <point x="423" y="957" type="curve" smooth="yes"/>
      <point x="436" y="1081"/>
      <point x="512" y="1247"/>
      <point x="659" y="1244" type="curve" smooth="yes"/>
      <point x="813" y="1241"/>
      <point x="818" y="1046"/>
      <point x="804" y="936" type="curve" smooth="yes"/>
      <point x="773" y="705" type="line"/>
      <point x="779" y="666" type="line"/>
      <point x="725" y="380"/>
      <point x="528" y="219"/>
      <point x="243" y="227" type="curve" smooth="yes"/>
    </contour>
  </outline>
</glyph>
<glyph name="equal" format="2">
  <advance width="1137"/>
  <unicode hex="003D"/>
  <outline>
    <contour>
      <point x="1068" y="982" type="line"/>
      <point x="199" y="982" type="line"/>
      <point x="157" y="746" type="line"/>
      <point x="1026" y="746" type="line"/>
    </contour>
    <contour>
      <point x="993" y="549" type="line"/>
      <point x="124" y="549" type="line"/>
      <point x="82" y="314" type="line"/>
      <point x="951" y="314" type="line"/>
    </contour>
  </outline>
</glyph>
<glyph name="greater" format="2">
  <advance width="1027"/>
  <unicode hex="003E"/>
  <outline>
    <contour>
      <point x="754" y="602" type="line"/>
      <point x="953" y="542" type="line"/>
      <point x="986" y="731" type="line"/>
      <point x="202" y="1096" type="line"/>
      <point x="156" y="831" type="line"/>
    </contour>
    <contour>
      <point x="85" y="421" type="line"/>
      <point x="34" y="130" type="line"/>
      <point x="945" y="495" type="line"/>
      <point x="982" y="706" type="line"/>
      <point x="730" y="644" type="line"/>
    </contour>
  </outline>
</glyph>
<glyph name="question" format="2">
  <advance width="989"/>
  <unicode hex="003F"/>
  <outline>
    <contour>
      <point x="568" y="447" type="line"/>
      <point x="584" y="549"/>
      <point x="625" y="622"/>
      <point x="706" y="686" type="curve" smooth="yes"/>
      <point x="841" y="794"/>
      <point x="989" y="906"/>
      <point x="1003" y="1092" type="curve" smooth="yes"/>
      <point x="1020" y="1339"/>
      <point x="849" y="1472"/>
      <point x="615" y="1477" type="curve" smooth="yes"/>
      <point x="356" y="1482"/>
      <point x="153" y="1334"/>
      <point x="133" y="1069" type="curve"/>
      <point x="416" y="1071" type="line"/>
      <point x="435" y="1165"/>
      <point x="494" y="1246"/>
      <point x="600" y="1244" type="curve" smooth="yes"/>
      <point x="696" y="1242"/>
      <point x="725" y="1169"/>
      <point x="711" y="1082" type="curve" smooth="yes"/>
      <point x="693" y="969"/>
      <point x="592" y="896"/>
      <point x="510" y="828" type="curve" smooth="yes"/>
      <point x="383" y="726"/>
      <point x="332" y="606"/>
      <point x="321" y="446" type="curve"/>
    </contour>
    <contour>
      <point x="229" y="135" type="curve" smooth="yes"/>
      <point x="231" y="47"/>
      <point x="301" y="-15"/>
      <point x="388" y="-13" type="curve" smooth="yes"/>
      <point x="478" y="-12"/>
      <point x="546" y="55"/>
      <point x="544" y="146" type="curve" smooth="yes"/>
      <point x="542" y="234"/>
      <point x="472" y="297"/>
      <point x="385" y="295" type="curve" smooth="yes"/>
      <point x="295" y="294"/>
      <point x="227" y="226"/>
    </contour>
  </outline>
</glyph>
<glyph name="at" format="2">
  <advance width="1778"/>
  <unicode hex="0040"/>
  <outline>
    <contour>
      <point x="1067" y="-367" type="curve"/>
      <point x="1038" y="-210" type="line"/>
      <point x="931" y="-253"/>
      <point x="816" y="-279"/>
      <point x="699" y="-278" type="curve" smooth="yes"/>
      <point x="267" y="-274"/>
      <point x="180" y="92"/>
      <point x="250" y="457" type="curve" smooth="yes"/>
      <point x="327" y="855"/>
      <point x="618" y="1261"/>
      <point x="1060" y="1253" type="curve" smooth="yes"/>
      <point x="1488" y="1246"/>
      <point x="1574" y="900"/>
      <point x="1510" y="535" type="curve" smooth="yes"/>
      <point x="1486" y="399"/>
      <point x="1411" y="129"/>
      <point x="1227" y="138" type="curve" smooth="yes"/>
      <point x="1138" y="144"/>
      <point x="1146" y="236"/>
      <point x="1159" y="302" type="curve" smooth="yes"/>
      <point x="1295" y="883" type="line"/>
      <point x="1201" y="946"/>
      <point x="1116" y="989"/>
      <point x="1000" y="991" type="curve" smooth="yes"/>
      <point x="702" y="996"/>
      <point x="520" y="680"/>
      <point x="474" y="423" type="curve" smooth="yes"/>
      <point x="441" y="246"/>
      <point x="471" y="-13"/>
      <point x="700" y="-18" type="curve" smooth="yes"/>
      <point x="813" y="-21"/>
      <point x="899" y="42"/>
      <point x="970" y="123" type="curve"/>
      <point x="999" y="26"/>
      <point x="1089" y="-19"/>
      <point x="1187" y="-22" type="curve" smooth="yes"/>
      <point x="1496" y="-29"/>
      <point x="1645" y="279"/>
      <point x="1688" y="542" type="curve" smooth="yes"/>
      <point x="1763" y="1001"/>
      <point x="1563" y="1410"/>
      <point x="1058" y="1416" type="curve" smooth="yes"/>
      <point x="519" y="1423"/>
      <point x="140" y="956"/>
      <point x="55" y="458" type="curve" smooth="yes"/>
      <point x="-28" y="-27"/>
      <point x="166" y="-448"/>
      <point x="701" y="-453" type="curve" smooth="yes"/>
      <point x="823" y="-454"/>
      <point x="964" y="-435"/>
    </contour>
    <contour>
      <point x="697" y="422" type="curve" smooth="yes"/>
      <point x="729" y="588"/>
      <point x="813" y="824"/>
      <point x="1020" y="817" type="curve" smooth="yes"/>
      <point x="1044" y="817"/>
      <point x="1066" y="812"/>
      <point x="1088" y="805" type="curve"/>
      <point x="964" y="330" type="line"/>
      <point x="935" y="259"/>
      <point x="863" y="153"/>
      <point x="773" y="159" type="curve" smooth="yes"/>
      <point x="650" y="165"/>
      <point x="681" y="344"/>
    </contour>
  </outline>
</glyph>
<glyph name="A" format="2">
  <advance width="1338"/>
  <unicode hex="0041"/>
  <anchor x="1227" y="0" name="right"/>
  <anchor x="1510" y="1600" name="top0315"/>
  <anchor x="475" y="1454" name="tonos"/>
  <anchor x="844" y="1600" name="top"/>
  <anchor x="575" y="7" name="bottom"/>
  <anchor x="1510" y="1600" name="top_dd"/>
  <anchor x="1146" y="0" name="ogonek"/>
  <anchor x="1164" y="-407" name="bottom_dd"/>
  <outline>
    <contour>
      <point x="805" y="1180" type="line"/>
      <point x="881" y="1456" type="line"/>
      <point x="675" y="1456" type="line"/>
      <point x="-104" y="0" type="line"/>
      <point x="220" y="0" type="line"/>
      <point x="486" y="538" type="line"/>
      <point x="481" y="539" type="line"/>
    </contour>
    <contour>
      <point x="922" y="0" type="line"/>
      <point x="1225" y="0" type="line"/>
      <point x="946" y="1456" type="line"/>
      <point x="754" y="1456" type="line"/>
      <point x="740" y="1214" type="line"/>
    </contour>
    <contour>
      <point x="1001" y="543" type="line"/>
      <point x="246" y="543" type="line"/>
      <point x="203" y="300" type="line"/>
      <point x="958" y="300" type="line"/>
    </contour>
  </outline>
</glyph>
<glyph name="B" format="2">
  <advance width="1268"/>
  <unicode hex="0042"/>
  <anchor x="757" y="1612" name="top"/>
  <anchor x="481" y="10" name="bottom"/>
  <anchor x="1441" y="1600" name="top_dd"/>
  <anchor x="1094" y="-407" name="bottom_dd"/>
  <anchor x="1443" y="1612" name="top0315"/>
  <outline>
    <contour>
      <point x="698" y="635" type="line"/>
      <point x="799" y="710" type="line"/>
      <point x="995" y="723"/>
      <point x="1211" y="832"/>
      <point x="1225" y="1065" type="curve" smooth="yes"/>
      <point x="1243" y="1353"/>
      <point x="1002" y="1451"/>
      <point x="752" y="1455" type="curve" smooth="yes"/>
      <point x="274" y="1456" type="line"/>
      <point x="21" y="0" type="line"/>
      <point x="315" y="0" type="line"/>
      <point x="526" y="1213" type="line"/>
      <point x="745" y="1212" type="line" smooth="yes"/>
      <point x="866" y="1210"/>
      <point x="947" y="1167"/>
      <point x="926" y="1035" type="curve" smooth="yes"/>
      <point x="904" y="893"/>
      <point x="776" y="847"/>
      <point x="648" y="846" type="curve" smooth="yes"/>
      <point x="360" y="847" type="line"/>
      <point x="325" y="635" type="line"/>
    </contour>
    <contour>
      <point x="581" y="0" type="line" smooth="yes"/>
      <point x="866" y="-3"/>
      <point x="1125" y="124"/>
      <point x="1144" y="436" type="curve" smooth="yes"/>
      <point x="1156" y="638"/>
      <point x="1032" y="765"/>
      <point x="832" y="771" type="curve"/>
      <point x="781" y="846" type="line"/>
      <point x="442" y="847" type="line"/>
      <point x="402" y="635" type="line"/>
      <point x="702" y="634" type="line" smooth="yes"/>
      <point x="822" y="629"/>
      <point x="874" y="558"/>
      <point x="855" y="439" type="curve" smooth="yes"/>
      <point x="834" y="304"/>
      <point x="716" y="242"/>
      <point x="588" y="241" type="curve" smooth="yes"/>
      <point x="284" y="242" type="line"/>
      <point x="125" y="0" type="line"/>
    </contour>
  </outline>
</glyph>
<glyph name="C" format="2">
  <advance width="1300"/>
  <unicode hex="0043"/>
  <anchor x="842" y="1609" name="top"/>
  <anchor x="560" y="-3" name="bottom"/>
  <anchor x="1473" y="1600" name="top_dd"/>
  <anchor x="1126" y="-407" name="bottom_dd"/>
  <anchor x="1475" y="1609" name="top0315"/>
  <outline>
    <contour>
      <point x="916" y="484" type="line"/>
      <point x="880" y="315"/>
      <point x="772" y="218"/>
      <point x="595" y="224" type="curve" smooth="yes"/>
      <point x="354" y="233"/>
      <point x="374" y="502"/>
      <point x="396" y="679" type="curve" smooth="yes"/>
      <point x="409" y="777" type="line" smooth="yes"/>
      <point x="439" y="990"/>
      <point x="533" y="1241"/>
      <point x="788" y="1232" type="curve" smooth="yes"/>
      <point x="962" y="1226"/>
      <point x="1014" y="1122"/>
      <point x="1014" y="961" type="curve"/>
      <point x="1306" y="960" type="line"/>
      <point x="1290" y="1265"/>
      <point x="1119" y="1471"/>
      <point x="802" y="1477" type="curve" smooth="yes"/>
      <point x="397" y="1484"/>
      <point x="165" y="1141"/>
      <point x="112" y="775" type="curve" smooth="yes"/>
      <point x="99" y="680" type="line" smooth="yes"/>
      <point x="55" y="334"/>
      <point x="188" y="-13"/>
      <point x="581" y="-20" type="curve" smooth="yes"/>
      <point x="896" y="-26"/>
      <point x="1168" y="165"/>
      <point x="1204" y="487" type="curve"/>
    </contour>
  </outline>
</glyph>
<glyph name="D" format="2">
  <advance width="1292"/>
  <unicode hex="0044"/>
  <anchor x="410" y="10" name="bottom"/>
  <anchor x="685" y="1603" name="top"/>
  <anchor x="1465" y="1603" name="top0315"/>
  <anchor x="337" y="729" name="cross"/>
  <anchor x="1464" y="1600" name="top_dd"/>
  <anchor x="1118" y="-407" name="bottom_dd"/>
  <outline>
    <contour>
      <point x="472" y="0" type="line" smooth="yes"/>
      <point x="881" y="-1"/>
      <point x="1171" y="301"/>
      <point x="1225" y="695" type="curve" smooth="yes"/>
      <point x="1234" y="761" type="line" smooth="yes"/>
      <point x="1276" y="1126"/>
      <point x="1082" y="1446"/>
      <point x="692" y="1455" type="curve" smooth="yes"/>
      <point x="395" y="1456" type="line"/>
      <point x="352" y="1213" type="line"/>
      <point x="682" y="1212" type="line" smooth="yes"/>
      <point x="931" y="1209"/>
      <point x="964" y="970"/>
      <point x="937" y="764" type="curve" smooth="yes"/>
      <point x="928" y="697" type="line" smooth="yes"/>
      <point x="892" y="448"/>
      <point x="750" y="240"/>
      <point x="479" y="241" type="curve" smooth="yes"/>
      <point x="192" y="242" type="line"/>
      <point x="148" y="0" type="line"/>
    </contour>
    <contour>
      <point x="568" y="1456" type="line"/>
      <point x="274" y="1456" type="line"/>
      <point x="21" y="0" type="line"/>
      <point x="315" y="0" type="line"/>
    </contour>
  </outline>
</glyph>
<glyph name="E" format="2">
  <advance width="1118"/>
  <unicode hex="0045"/>
  <anchor x="1291" y="1603" name="top0315"/>
  <anchor x="67" y="1456" name="tonos"/>
  <anchor x="789" y="1603" name="top"/>
  <anchor x="517" y="10" name="bottom"/>
  <anchor x="1291" y="1600" name="top_dd"/>
  <anchor x="822" y="0" name="ogonek"/>
  <anchor x="944" y="-407" name="bottom_dd"/>
  <outline>
    <contour>
      <point x="1013" y="242" type="line"/>
      <point x="264" y="242" type="line"/>
      <point x="221" y="0" type="line"/>
      <point x="971" y="0" type="line"/>
    </contour>
    <contour>
      <point x="568" y="1456" type="line"/>
      <point x="274" y="1456" type="line"/>
      <point x="21" y="0" type="line"/>
      <point x="315" y="0" type="line"/>
    </contour>
    <contour>
      <point x="1024" y="866" type="line"/>
      <point x="372" y="866" type="line"/>
      <point x="331" y="631" type="line"/>
      <point x="982" y="631" type="line"/>
    </contour>
    <contour>
      <point x="1221" y="1456" type="line"/>
      <point x="474" y="1456" type="line"/>
      <point x="432" y="1213" type="line"/>
      <point x="1179" y="1213" type="line"/>
    </contour>
  </outline>
</glyph>
<glyph name="F" format="2">
  <advance width="1089"/>
  <unicode hex="0046"/>
  <anchor x="413" y="10" name="bottom"/>
  <anchor x="791" y="1612" name="top"/>
  <anchor x="1264" y="1612" name="top0315"/>
  <anchor x="270" y="303" name="cross"/>
  <anchor x="1262" y="1600" name="top_dd"/>
  <anchor x="915" y="-407" name="bottom_dd"/>
  <outline>
    <contour>
      <point x="568" y="1456" type="line"/>
      <point x="274" y="1456" type="line"/>
      <point x="21" y="0" type="line"/>
      <point x="315" y="0" type="line"/>
    </contour>
    <contour>
      <point x="1019" y="837" type="line"/>
      <point x="382" y="837" type="line"/>
      <point x="339" y="595" type="line"/>
      <point x="977" y="595" type="line"/>
    </contour>
    <contour>
      <point x="1197" y="1456" type="line"/>
      <point x="489" y="1456" type="line"/>
      <point x="446" y="1213" type="line"/>
      <point x="1154" y="1213" type="line"/>
    </contour>
  </outline>
</glyph>
<glyph name="G" format="2">
  <advance width="1354"/>
  <unicode hex="0047"/>
  <anchor x="848" y="1609" name="top"/>
  <anchor x="601" y="-3" name="bottom"/>
  <anchor x="1526" y="1600" name="top_dd"/>
  <anchor x="1180" y="-407" name="bottom_dd"/>
  <anchor x="1528" y="1609" name="top0315"/>
  <outline>
    <contour>
      <point x="1273" y="765" type="line"/>
      <point x="717" y="765" type="line"/>
      <point x="678" y="545" type="line"/>
      <point x="943" y="545" type="line"/>
      <point x="894" y="293" type="line"/>
      <point x="819" y="240"/>
      <point x="734" y="221"/>
      <point x="642" y="223" type="curve" smooth="yes"/>
      <point x="390" y="229"/>
      <point x="380" y="489"/>
      <point x="405" y="683" type="curve" smooth="yes"/>
      <point x="417" y="773" type="line" smooth="yes"/>
      <point x="448" y="988"/>
      <point x="553" y="1245"/>
      <point x="810" y="1235" type="curve" smooth="yes"/>
      <point x="965" y="1230"/>
      <point x="1024" y="1137"/>
      <point x="1036" y="992" type="curve"/>
      <point x="1318" y="991" type="line"/>
      <point x="1296" y="1295"/>
      <point x="1126" y="1471"/>
      <point x="815" y="1477" type="curve" smooth="yes"/>
      <point x="403" y="1484"/>
      <point x="172" y="1145"/>
      <point x="119" y="771" type="curve" smooth="yes"/>
      <point x="107" y="684" type="line" smooth="yes"/>
      <point x="63" y="324"/>
      <point x="216" y="-14"/>
      <point x="617" y="-20" type="curve" smooth="yes"/>
      <point x="807" y="-22"/>
      <point x="1059" y="23"/>
      <point x="1185" y="184" type="curve"/>
    </contour>
  </outline>
</glyph>
<glyph name="H" format="2">
  <advance width="1404"/>
  <unicode hex="0048"/>
  <anchor x="1171" y="0" name="right"/>
  <anchor x="1578" y="1603" name="top0315"/>
  <anchor x="70" y="1453" name="tonos"/>
  <anchor x="874" y="1603" name="top"/>
  <anchor x="601" y="10" name="bottom"/>
  <anchor x="1577" y="1600" name="top_dd"/>
  <anchor x="1230" y="-407" name="bottom_dd"/>
  <outline>
    <contour>
      <point x="1113" y="866" type="line"/>
      <point x="380" y="866" type="line"/>
      <point x="338" y="625" type="line"/>
      <point x="1071" y="625" type="line"/>
    </contour>
    <contour>
      <point x="568" y="1456" type="line"/>
      <point x="274" y="1456" type="line"/>
      <point x="21" y="0" type="line"/>
      <point x="315" y="0" type="line"/>
    </contour>
    <contour>
      <point x="1426" y="1456" type="line"/>
      <point x="1133" y="1456" type="line"/>
      <point x="881" y="0" type="line"/>
      <point x="1174" y="0" type="line"/>
    </contour>
  </outline>
</glyph>
<glyph name="J" format="2">
  <advance width="1110"/>
  <unicode hex="004A"/>
  <anchor x="1002" y="1600" name="top"/>
  <anchor x="391" y="-10" name="bottom"/>
  <anchor x="1283" y="1600" name="top_dd"/>
  <anchor x="936" y="-407" name="bottom_dd"/>
  <anchor x="1283" y="1600" name="top0315"/>
  <outline>
    <contour>
      <point x="672" y="448" type="line" smooth="yes"/>
      <point x="653" y="328"/>
      <point x="579" y="218"/>
      <point x="446" y="221" type="curve" smooth="yes"/>
      <point x="318" y="224"/>
      <point x="293" y="317"/>
      <point x="300" y="430" type="curve"/>
      <point x="5" y="431" type="line"/>
      <point x="-4" y="155"/>
      <point x="150" y="-16"/>
      <point x="429" y="-21" type="curve" smooth="yes"/>
      <point x="715" y="-26"/>
      <point x="928" y="168"/>
      <point x="966" y="448" type="curve" smooth="yes"/>
      <point x="1137" y="1456" type="line"/>
      <point x="844" y="1456" type="line"/>
    </contour>
  </outline>
</glyph>
<glyph name="K" format="2">
  <advance width="1262"/>
  <unicode hex="004B"/>
  <anchor x="1066" y="0" name="right"/>
  <anchor x="1434" y="1600" name="top0315"/>
  <anchor x="752" y="1600" name="top"/>
  <anchor x="540" y="62" name="bottom"/>
  <anchor x="356" y="1226" name="cross"/>
  <anchor x="1434" y="1600" name="top_dd"/>
  <anchor x="1088" y="-407" name="bottom_dd"/>
  <outline>
    <contour>
      <point x="568" y="1456" type="line"/>
      <point x="274" y="1456" type="line"/>
      <point x="21" y="0" type="line"/>
      <point x="315" y="0" type="line"/>
    </contour>
    <contour>
      <point x="1424" y="1456" type="line"/>
      <point x="1042" y="1456" type="line"/>
      <point x="606" y="984" type="line"/>
      <point x="339" y="682" type="line"/>
      <point x="341" y="363" type="line"/>
      <point x="732" y="726" type="line"/>
    </contour>
    <contour>
      <point x="837" y="0" type="line"/>
      <point x="1170" y="0" type="line"/>
      <point x="766" y="863" type="line"/>
      <point x="532" y="681" type="line"/>
    </contour>
  </outline>
</glyph>
<glyph name="L" format="2">
  <advance width="1076"/>
  <unicode hex="004C"/>
  <anchor x="1249" y="1600" name="top0315"/>
  <anchor x="451" y="1600" name="top"/>
  <anchor x="481" y="10" name="bottom"/>
  <anchor x="784" y="1456" name="caron"/>
  <anchor x="1249" y="1600" name="top_dd"/>
  <anchor x="902" y="-407" name="bottom_dd"/>
  <anchor x="622" y="833" name="dot"/>
  <outline>
    <contour>
      <point x="975" y="242" type="line"/>
      <point x="264" y="242" type="line"/>
      <point x="221" y="0" type="line"/>
      <point x="933" y="0" type="line"/>
    </contour>
    <contour>
      <point x="568" y="1456" type="line"/>
      <point x="274" y="1456" type="line"/>
      <point x="21" y="0" type="line"/>
      <point x="315" y="0" type="line"/>
    </contour>
  </outline>
</glyph>
<glyph name="M" format="2">
  <advance width="1740"/>
  <unicode hex="004D"/>
  <anchor x="1503" y="0" name="right"/>
  <anchor x="767" y="10" name="bottom"/>
  <anchor x="1038" y="1600" name="top"/>
  <anchor x="1913" y="1600" name="top0315"/>
  <anchor x="1913" y="1600" name="top_dd"/>
  <anchor x="1566" y="-407" name="bottom_dd"/>
  <outline>
    <contour>
      <point x="413" y="1455" type="line"/>
      <point x="670" y="0" type="line"/>
      <point x="872" y="0" type="line"/>
      <point x="1636" y="1456" type="line"/>
      <point x="1373" y="1456" type="line"/>
      <point x="829" y="403" type="line"/>
      <point x="651" y="1456" type="line"/>
    </contour>
    <contour>
      <point x="274" y="1456" type="line"/>
      <point x="21" y="0" type="line"/>
      <point x="315" y="0" type="line"/>
      <point x="382" y="383" type="line"/>
      <point x="522" y="1456" type="line"/>
    </contour>
    <contour>
      <point x="1515" y="1456" type="line"/>
      <point x="1287" y="413" type="line"/>
      <point x="1215" y="0" type="line"/>
      <point x="1510" y="0" type="line"/>
      <point x="1762" y="1456" type="line"/>
    </contour>
  </outline>
</glyph>
<glyph name="N" format="2">
  <advance width="1403"/>
  <unicode hex="004E"/>
  <anchor x="1170" y="0" name="right"/>
  <anchor x="599" y="3" name="bottom"/>
  <anchor x="877" y="1600" name="top"/>
  <anchor x="1576" y="1600" name="top0315"/>
  <anchor x="1576" y="1600" name="top_dd"/>
  <anchor x="1229" y="-407" name="bottom_dd"/>
  <outline>
    <contour>
      <point x="1425" y="1456" type="line"/>
      <point x="1133" y="1456" type="line"/>
      <point x="964" y="483" type="line"/>
      <point x="558" y="1456" type="line"/>
      <point x="274" y="1456" type="line"/>
      <point x="21" y="0" type="line"/>
      <point x="315" y="0" type="line"/>
      <point x="484" y="971" type="line"/>
      <point x="889" y="0" type="line"/>
      <point x="1173" y="0" type="line"/>
    </contour>
  </outline>
</glyph>
<glyph name="O" format="2">
  <advance width="1372"/>
  <unicode hex="004F"/>
  <anchor x="586" y="0" name="bottom"/>
  <anchor x="258" y="1454" name="tonos"/>
  <anchor x="858" y="1600" name="top"/>
  <anchor x="1544" y="1600" name="top0315"/>
  <anchor x="1544" y="1600" name="top_dd"/>
  <anchor x="1198" y="-407" name="bottom_dd"/>
  <outline>
    <contour>
      <point x="1314" y="764" type="line" smooth="yes"/>
      <point x="1356" y="1113"/>
      <point x="1211" y="1469"/>
      <point x="816" y="1476" type="curve" smooth="yes"/>
      <point x="407" y="1484"/>
      <point x="161" y="1131"/>
      <point x="110" y="759" type="curve" smooth="yes"/>
      <point x="101" y="693" type="line" smooth="yes"/>
      <point x="60" y="343"/>
      <point x="204" y="-13"/>
      <point x="600" y="-20" type="curve" smooth="yes"/>
      <point x="1013" y="-28"/>
      <point x="1254" y="325"/>
      <point x="1305" y="700" type="curve" smooth="yes"/>
    </contour>
    <contour>
      <point x="1008" y="695" type="line" smooth="yes"/>
      <point x="978" y="482"/>
      <point x="871" y="216"/>
      <point x="614" y="226" type="curve" smooth="yes"/>
      <point x="373" y="235"/>
      <point x="376" y="516"/>
      <point x="398" y="694" type="curve" smooth="yes"/>
      <point x="407" y="762" type="line" smooth="yes"/>
      <point x="438" y="976"/>
      <point x="546" y="1239"/>
      <point x="803" y="1229" type="curve" smooth="yes"/>
      <point x="1043" y="1220"/>
      <point x="1040" y="942"/>
      <point x="1018" y="763" type="curve" smooth="yes"/>
    </contour>
  </outline>
</glyph>
<glyph name="P" format="2">
  <advance width="1282"/>
  <unicode hex="0050"/>
  <anchor x="412" y="10" name="bottom"/>
  <anchor x="119" y="1454" name="tonos"/>
  <anchor x="757" y="1612" name="top"/>
  <anchor x="1457" y="1612" name="top0315"/>
  <anchor x="1455" y="1600" name="top_dd"/>
  <anchor x="1108" y="-407" name="bottom_dd"/>
  <outline>
    <contour>
      <point x="681" y="513" type="line" smooth="yes"/>
      <point x="978" y="512"/>
      <point x="1249" y="664"/>
      <point x="1274" y="983" type="curve" smooth="yes"/>
      <point x="1297" y="1274"/>
      <point x="1086" y="1449"/>
      <point x="808" y="1455" type="curve" smooth="yes"/>
      <point x="274" y="1456" type="line"/>
      <point x="21" y="0" type="line"/>
      <point x="315" y="0" type="line"/>
      <point x="526" y="1213" type="line"/>
      <point x="802" y="1212" type="line" smooth="yes"/>
      <point x="936" y="1206"/>
      <point x="997" y="1110"/>
      <point x="978" y="981" type="curve" smooth="yes"/>
      <point x="956" y="829"/>
      <point x="835" y="756"/>
      <point x="688" y="755" type="curve" smooth="yes"/>
      <point x="346" y="756" type="line"/>
      <point x="304" y="514" type="line"/>
    </contour>
  </outline>
</glyph>
<glyph name="Q" format="2">
  <advance width="1372"/>
  <unicode hex="0051"/>
  <anchor x="852" y="1600" name="top"/>
  <anchor x="572" y="-10" name="bottom"/>
  <anchor x="1544" y="1600" name="top_dd"/>
  <anchor x="1198" y="-407" name="bottom_dd"/>
  <anchor x="1544" y="1600" name="top0315"/>
  <outline>
    <contour>
      <point x="825" y="222" type="line"/>
      <point x="625" y="65" type="line"/>
      <point x="958" y="-260" type="line"/>
      <point x="1158" y="-103" type="line"/>
    </contour>
    <contour>
      <point x="1312" y="764" type="line" smooth="yes"/>
      <point x="1354" y="1113"/>
      <point x="1210" y="1469"/>
      <point x="814" y="1476" type="curve" smooth="yes"/>
      <point x="404" y="1484"/>
      <point x="159" y="1132"/>
      <point x="108" y="759" type="curve" smooth="yes"/>
      <point x="100" y="693" type="line" smooth="yes"/>
      <point x="58" y="343"/>
      <point x="202" y="-13"/>
      <point x="598" y="-20" type="curve" smooth="yes"/>
      <point x="752" y="-23"/>
      <point x="886" y="36"/>
      <point x="991" y="116" type="curve" smooth="yes"/>
      <point x="1168" y="250"/>
      <point x="1273" y="457"/>
      <point x="1304" y="700" type="curve" smooth="yes"/>
    </contour>
    <contour>
      <point x="1007" y="695" type="line" smooth="yes"/>
      <point x="976" y="482"/>
      <point x="869" y="216"/>
      <point x="612" y="226" type="curve" smooth="yes"/>
      <point x="371" y="235"/>
      <point x="374" y="516"/>
      <point x="396" y="694" type="curve" smooth="yes"/>
      <point x="406" y="762" type="line" smooth="yes"/>
      <point x="436" y="976"/>
      <point x="544" y="1239"/>
      <point x="801" y="1229" type="curve" smooth="yes"/>
      <point x="1041" y="1220"/>
      <point x="1038" y="942"/>
      <point x="1016" y="764" type="curve" smooth="yes"/>
    </contour>
  </outline>
</glyph>
<glyph name="R" format="2">
  <advance width="1268"/>
  <unicode hex="0052"/>
  <anchor x="753" y="1600" name="top"/>
  <anchor x="492" y="10" name="bottom"/>
  <anchor x="1441" y="1600" name="top_dd"/>
  <anchor x="1094" y="-407" name="bottom_dd"/>
  <anchor x="1441" y="1600" name="top0315"/>
  <outline>
    <contour>
      <point x="817" y="0" type="line"/>
      <point x="1130" y="0" type="line"/>
      <point x="1130" y="17" type="line"/>
      <point x="925" y="608" type="line"/>
      <point x="1115" y="682"/>
      <point x="1230" y="817"/>
      <point x="1245" y="1024" type="curve" smooth="yes"/>
      <point x="1267" y="1316"/>
      <point x="1050" y="1450"/>
      <point x="782" y="1455" type="curve" smooth="yes"/>
      <point x="274" y="1456" type="line"/>
      <point x="21" y="0" type="line"/>
      <point x="315" y="0" type="line"/>
      <point x="408" y="534" type="line"/>
      <point x="645" y="534" type="line"/>
    </contour>
    <contour>
      <point x="526" y="1213" type="line"/>
      <point x="776" y="1212" type="line" smooth="yes"/>
      <point x="905" y="1207"/>
      <point x="968" y="1130"/>
      <point x="950" y="1001" type="curve" smooth="yes"/>
      <point x="928" y="854"/>
      <point x="811" y="776"/>
      <point x="668" y="775" type="curve" smooth="yes"/>
      <point x="450" y="777" type="line"/>
    </contour>
  </outline>
</glyph>
<glyph name="S" format="2">
  <advance width="1221"/>
  <unicode hex="0053"/>
  <anchor x="801" y="1600" name="top"/>
  <anchor x="527" y="0" name="bottom"/>
  <anchor x="1394" y="1600" name="top_dd"/>
  <anchor x="1047" y="-407" name="bottom_dd"/>
  <anchor x="1394" y="1600" name="top0315"/>
  <outline>
    <contour>
      <point x="822" y="390" type="curve" smooth="yes"/>
      <point x="800" y="265"/>
      <point x="680" y="217"/>
      <point x="565" y="218" type="curve" smooth="yes"/>
      <point x="405" y="219"/>
      <point x="322" y="299"/>
      <point x="331" y="459" type="curve"/>
      <point x="38" y="460" type="line"/>
      <point x="31" y="155"/>
      <point x="262" y="-16"/>
      <point x="553" y="-21" type="curve" smooth="yes"/>
      <point x="817" y="-25"/>
      <point x="1094" y="98"/>
      <point x="1114" y="392" type="curve" smooth="yes"/>
      <point x="1132" y="652"/>
      <point x="928" y="778"/>
      <point x="710" y="857" type="curve" smooth="yes"/>
      <point x="621" y="888"/>
      <point x="462" y="937"/>
      <point x="483" y="1060" type="curve" smooth="yes"/>
      <point x="504" y="1185"/>
      <point x="631" y="1239"/>
      <point x="746" y="1237" type="curve" smooth="yes"/>
      <point x="880" y="1234"/>
      <point x="946" y="1157"/>
      <point x="939" y="1026" type="curve"/>
      <point x="1231" y="1026" type="line"/>
      <point x="1236" y="1306"/>
      <point x="1035" y="1471"/>
      <point x="763" y="1476" type="curve" smooth="yes"/>
      <point x="507" y="1481"/>
      <point x="209" y="1350"/>
      <point x="192" y="1061" type="curve" smooth="yes"/>
      <point x="177" y="809"/>
      <point x="397" y="689"/>
      <point x="602" y="612" type="curve" smooth="yes"/>
      <point x="709" y="573"/>
      <point x="847" y="528"/>
    </contour>
  </outline>
</glyph>
<glyph name="T" format="2">
  <advance width="1229"/>
  <unicode hex="0054"/>
  <anchor x="623" y="0" name="right"/>
  <anchor x="1402" y="1600" name="top0315"/>
  <anchor x="782" y="1600" name="top"/>
  <anchor x="507" y="7" name="bottom"/>
  <anchor x="632" y="836" name="cross"/>
  <anchor x="1402" y="1600" name="top_dd"/>
  <anchor x="1055" y="-407" name="bottom_dd"/>
  <outline>
    <contour>
      <point x="907" y="1456" type="line"/>
      <point x="614" y="1456" type="line"/>
      <point x="361" y="0" type="line"/>
      <point x="654" y="0" type="line"/>
    </contour>
    <contour>
      <point x="1340" y="1456" type="line"/>
      <point x="188" y="1456" type="line"/>
      <point x="145" y="1213" type="line"/>
      <point x="1297" y="1213" type="line"/>
    </contour>
  </outline>
</glyph>
<glyph name="U" format="2">
  <advance width="1308"/>
  <unicode hex="0055"/>
  <anchor x="708" y="0" name="right"/>
  <anchor x="1480" y="1600" name="top0315"/>
  <anchor x="823" y="1600" name="top"/>
  <anchor x="547" y="0" name="bottom"/>
  <anchor x="1480" y="1600" name="top_dd"/>
  <anchor x="890" y="68" name="ogonek"/>
  <anchor x="1134" y="-407" name="bottom_dd"/>
  <outline>
    <contour>
      <point x="1052" y="1456" type="line"/>
      <point x="888" y="495" type="line" smooth="yes"/>
      <point x="862" y="330"/>
      <point x="759" y="216"/>
      <point x="584" y="222" type="curve" smooth="yes"/>
      <point x="419" y="227"/>
      <point x="372" y="345"/>
      <point x="391" y="495" type="curve" smooth="yes"/>
      <point x="554" y="1456" type="line"/>
      <point x="260" y="1456" type="line"/>
      <point x="97" y="496" type="line" smooth="yes"/>
      <point x="62" y="184"/>
      <point x="264" y="-16"/>
      <point x="569" y="-21" type="curve" smooth="yes"/>
      <point x="897" y="-26"/>
      <point x="1136" y="173"/>
      <point x="1182" y="497" type="curve" smooth="yes"/>
      <point x="1345" y="1456" type="line"/>
    </contour>
  </outline>
</glyph>
<glyph name="V" format="2">
  <advance width="1299"/>
  <unicode hex="0056"/>
  <anchor x="807" y="1612" name="top"/>
  <anchor x="557" y="10" name="bottom"/>
  <anchor x="1455" y="1600" name="top_dd"/>
  <anchor x="1142" y="-407" name="bottom_dd"/>
  <anchor x="1457" y="1612" name="top0315"/>
  <outline>
    <contour>
      <point x="590" y="325" type="line"/>
      <point x="489" y="0" type="line"/>
      <point x="713" y="0" type="line"/>
      <point x="1433" y="1456" type="line"/>
      <point x="1097" y="1456" type="line"/>
    </contour>
    <contour>
      <point x="460" y="1456" type="line"/>
      <point x="146" y="1456" type="line"/>
      <point x="408" y="0" type="line"/>
      <point x="618" y="0" type="line"/>
      <point x="617" y="295" type="line"/>
    </contour>
  </outline>
</glyph>
<glyph name="W" format="2">
  <advance width="1738"/>
  <unicode hex="0057"/>
  <anchor x="1032" y="1600" name="top"/>
  <anchor x="780" y="10" name="bottom"/>
  <anchor x="1894" y="1600" name="top_dd"/>
  <anchor x="1581" y="-407" name="bottom_dd"/>
  <anchor x="1894" y="1600" name="top0315"/>
  <outline>
    <contour>
      <point x="411" y="233" type="line"/>
      <point x="378" y="0" type="line"/>
      <point x="552" y="0" type="line"/>
      <point x="1043" y="1249" type="line"/>
      <point x="1036" y="1456" type="line"/>
      <point x="878" y="1456" type="line"/>
    </contour>
    <contour>
      <point x="456" y="1456" type="line"/>
      <point x="171" y="1456" type="line"/>
      <point x="257" y="0" type="line"/>
      <point x="448" y="0" type="line"/>
      <point x="493" y="201" type="line"/>
    </contour>
    <contour>
      <point x="1132" y="236" type="line"/>
      <point x="1115" y="0" type="line"/>
      <point x="1305" y="0" type="line"/>
      <point x="1845" y="1456" type="line"/>
      <point x="1547" y="1456" type="line"/>
    </contour>
    <contour>
      <point x="1126" y="1456" type="line"/>
      <point x="963" y="1456" type="line"/>
      <point x="908" y="1279" type="line"/>
      <point x="1010" y="0" type="line"/>
      <point x="1183" y="0" type="line"/>
      <point x="1213" y="197" type="line"/>
    </contour>
  </outline>
</glyph>
<glyph name="X" format="2">
  <advance width="1263"/>
  <unicode hex="0058"/>
  <anchor x="1001" y="0" name="right"/>
  <anchor x="1421" y="1612" name="top0315"/>
  <anchor x="780" y="1612" name="top"/>
  <anchor x="541" y="17" name="bottom"/>
  <anchor x="652" y="742" name="cross"/>
  <anchor x="1419" y="1600" name="top_dd"/>
  <anchor x="1106" y="-407" name="bottom_dd"/>
  <outline>
    <contour>
      <point x="495" y="1456" type="line"/>
      <point x="171" y="1455" type="line"/>
      <point x="467" y="748" type="line"/>
      <point x="-81" y="0" type="line"/>
      <point x="275" y="0" type="line"/>
      <point x="626" y="508" type="line"/>
      <point x="817" y="0" type="line"/>
      <point x="1144" y="0" type="line"/>
      <point x="840" y="720" type="line"/>
      <point x="1374" y="1456" type="line"/>
      <point x="1022" y="1456" type="line"/>
      <point x="680" y="957" type="line"/>
    </contour>
  </outline>
</glyph>
<glyph name="Y" format="2">
  <advance width="1229"/>
  <unicode hex="0059"/>
  <anchor x="1402" y="1600" name="top0315"/>
  <anchor x="80" y="1454" name="tonos"/>
  <anchor x="789" y="1600" name="top"/>
  <anchor x="515" y="34" name="bottom"/>
  <anchor x="617" y="601" name="cross"/>
  <anchor x="1402" y="1600" name="top_dd"/>
  <anchor x="1055" y="-407" name="bottom_dd"/>
  <outline>
    <contour>
      <point x="463" y="1456" type="line"/>
      <point x="154" y="1455" type="line"/>
      <point x="456" y="545" type="line"/>
      <point x="361" y="0" type="line"/>
      <point x="659" y="0" type="line"/>
      <point x="748" y="512" type="line"/>
      <point x="1384" y="1456" type="line"/>
      <point x="1048" y="1456" type="line"/>
      <point x="641" y="802" type="line"/>
    </contour>
  </outline>
</glyph>
<glyph name="Z" format="2">
  <advance width="1204"/>
  <unicode hex="005A"/>
  <anchor x="783" y="1600" name="top"/>
  <anchor x="507" y="10" name="bottom"/>
  <anchor x="1377" y="1600" name="top_dd"/>
  <anchor x="1030" y="-407" name="bottom_dd"/>
  <anchor x="1377" y="1600" name="top0315"/>
  <outline>
    <contour>
      <point x="1086" y="242" type="line"/>
      <point x="86" y="242" type="line"/>
      <point x="44" y="0" type="line"/>
      <point x="1044" y="0" type="line"/>
    </contour>
    <contour>
      <point x="1249" y="1270" type="line"/>
      <point x="1281" y="1456" type="line"/>
      <point x="1081" y="1456" type="line"/>
      <point x="0" y="191" type="line"/>
      <point x="-34" y="0" type="line"/>
      <point x="172" y="0" type="line"/>
    </contour>
    <contour>
      <point x="1180" y="1456" type="line"/>
      <point x="220" y="1456" type="line"/>
      <point x="177" y="1213" type="line"/>
      <point x="1138" y="1213" type="line"/>
    </contour>
  </outline>
</glyph>
<glyph name="bracketleft" format="2">
  <advance width="553"/>
  <unicode hex="005B"/>
  <outline>
    <contour>
      <point x="708" y="1695" type="line"/>
      <point x="287" y="1695" type="line"/>
      <point x="-31" y="-339" type="line"/>
      <point x="390" y="-339" type="line"/>
      <point x="426" y="-117" type="line"/>
      <point x="287" y="-117" type="line"/>
      <point x="535" y="1472" type="line"/>
      <point x="673" y="1472" type="line"/>
    </contour>
  </outline>
</glyph>
<glyph name="bracketright" format="2">
  <advance width="553"/>
  <unicode hex="005D"/>
  <outline>
    <contour>
      <point x="148" y="1472" type="line"/>
      <point x="288" y="1472" type="line"/>
      <point x="39" y="-117" type="line"/>
      <point x="-100" y="-117" type="line"/>
      <point x="-135" y="-339" type="line"/>
      <point x="287" y="-339" type="line"/>
      <point x="605" y="1695" type="line"/>
      <point x="183" y="1695" type="line"/>
    </contour>
  </outline>
</glyph>
<glyph name="asciicircum" format="2">
  <advance width="869"/>
  <unicode hex="005E"/>
  <outline>
    <contour>
      <point x="548" y="1193" type="line"/>
      <point x="646" y="1456" type="line"/>
      <point x="475" y="1456" type="line"/>
      <point x="58" y="729" type="line"/>
      <point x="296" y="729" type="line"/>
    </contour>
    <contour>
      <point x="632" y="729" type="line"/>
      <point x="844" y="729" type="line"/>
      <point x="680" y="1456" type="line"/>
      <point x="529" y="1456" type="line"/>
      <point x="535" y="1224" type="line"/>
    </contour>
  </outline>
</glyph>
<glyph name="underscore" format="2">
  <advance width="887"/>
  <unicode hex="005F"/>
  <anchor x="349" y="139" name="_bottom"/>
  <outline>
    <contour>
      <point x="782" y="0" type="line"/>
      <point x="-103" y="0" type="line"/>
      <point x="-143" y="-226" type="line"/>
      <point x="743" y="-226" type="line"/>
    </contour>
  </outline>
</glyph>
<glyph name="grave" format="2">
  <advance width="657"/>
  <unicode hex="0060"/>
  <anchor x="517" y="1290" name="_top"/>
  <anchor x="575" y="1665" name="mkmktop_acc"/>
  <outline>
    <contour>
      <point x="495" y="1536" type="line"/>
      <point x="203" y="1535" type="line"/>
      <point x="426" y="1227" type="line"/>
      <point x="641" y="1228" type="line"/>
    </contour>
  </outline>
</glyph>
<glyph name="a" format="2">
  <advance width="1065"/>
  <unicode hex="0061"/>
  <anchor x="1184" y="1290" name="top0315"/>
  <anchor x="846" y="654" name="rhotichook"/>
  <anchor x="654" y="1290" name="top"/>
  <anchor x="361" y="16" name="bottom"/>
  <anchor x="1238" y="1600" name="top_dd"/>
  <anchor x="849" y="0" name="ogonek"/>
  <anchor x="891" y="-407" name="bottom_dd"/>
  <anchor x="791" y="1290" name="rhalfring"/>
  <outline>
    <contour>
      <point x="725" y="661" type="line"/>
      <point x="544" y="662" type="line" smooth="yes"/>
      <point x="303" y="662"/>
      <point x="27" y="580"/>
      <point x="16" y="296" type="curve" smooth="yes"/>
      <point x="9" y="109"/>
      <point x="160" y="-18"/>
      <point x="341" y="-22" type="curve" smooth="yes"/>
      <point x="497" y="-25"/>
      <point x="639" y="81"/>
      <point x="704" y="230" type="curve"/>
      <point x="649" y="351" type="line"/>
      <point x="606" y="255"/>
      <point x="493" y="196"/>
      <point x="409" y="199" type="curve" smooth="yes"/>
      <point x="339" y="201"/>
      <point x="294" y="245"/>
      <point x="304" y="316" type="curve" smooth="yes"/>
      <point x="321" y="444"/>
      <point x="445" y="491"/>
      <point x="559" y="494" type="curve" smooth="yes"/>
      <point x="697" y="493" type="line"/>
    </contour>
    <contour>
      <point x="619" y="148" type="line" smooth="yes"/>
      <point x="616" y="85"/>
      <point x="618" y="47"/>
      <point x="628" y="-1" type="curve"/>
      <point x="903" y="0" type="line"/>
      <point x="904" y="19" type="line"/>
      <point x="873" y="94"/>
      <point x="888" y="185"/>
      <point x="901" y="263" type="curve" smooth="yes"/>
      <point x="972" y="702" type="line"/>
      <point x="1007" y="938"/>
      <point x="849" y="1099"/>
      <point x="600" y="1102" type="curve" smooth="yes"/>
      <point x="385" y="1105"/>
      <point x="136" y="998"/>
      <point x="124" y="757" type="curve"/>
      <point x="407" y="758" type="line"/>
      <point x="424" y="843"/>
      <point x="490" y="892"/>
      <point x="577" y="889" type="curve" smooth="yes"/>
      <point x="676" y="886"/>
      <point x="708" y="813"/>
      <point x="691" y="725" type="curve"/>
      <point x="676" y="640" type="line"/>
      <point x="678" y="612" type="line"/>
      <point x="618" y="272" type="line"/>
    </contour>
  </outline>
</glyph>
<glyph name="b" format="2">
  <advance width="1118"/>
  <unicode hex="0062"/>
  <anchor x="820" y="1603" name="top"/>
  <anchor x="534" y="-10" name="bottom"/>
  <anchor x="1291" y="1600" name="top_dd"/>
  <anchor x="944" y="-407" name="bottom_dd"/>
  <anchor x="1292" y="1603" name="top0315"/>
  <outline>
    <contour>
      <point x="269" y="1536" type="line"/>
      <point x="3" y="0" type="line"/>
      <point x="260" y="0" type="line"/>
      <point x="324" y="204" type="line"/>
      <point x="436" y="870" type="line"/>
      <point x="433" y="919" type="line"/>
      <point x="552" y="1536" type="line"/>
    </contour>
    <contour>
      <point x="1045" y="558" type="line" smooth="yes"/>
      <point x="1071" y="805"/>
      <point x="1005" y="1096"/>
      <point x="707" y="1103" type="curve" smooth="yes"/>
      <point x="451" y="1110"/>
      <point x="265" y="778"/>
      <point x="230" y="557" type="curve" smooth="yes"/>
      <point x="227" y="521" type="line"/>
      <point x="218" y="248"/>
      <point x="286" y="-14"/>
      <point x="563" y="-21" type="curve" smooth="yes"/>
      <point x="877" y="-29"/>
      <point x="1011" y="269"/>
      <point x="1043" y="537" type="curve" smooth="yes"/>
    </contour>
    <contour>
      <point x="761" y="538" type="line" smooth="yes"/>
      <point x="743" y="389"/>
      <point x="689" y="208"/>
      <point x="506" y="213" type="curve" smooth="yes"/>
      <point x="357" y="217"/>
      <point x="317" y="326"/>
      <point x="337" y="480" type="curve"/>
      <point x="357" y="601" type="line"/>
      <point x="383" y="736"/>
      <point x="478" y="876"/>
      <point x="622" y="869" type="curve" smooth="yes"/>
      <point x="785" y="862"/>
      <point x="775" y="680"/>
      <point x="763" y="559" type="curve" smooth="yes"/>
    </contour>
  </outline>
</glyph>
<glyph name="c" format="2">
  <advance width="1037"/>
  <unicode hex="0063"/>
  <anchor x="444" y="-3" name="bottom"/>
  <anchor x="1144" y="1290" name="top0315"/>
  <anchor x="626" y="1290" name="top"/>
  <anchor x="626" y="1290" name="marktop"/>
  <anchor x="1192" y="1600" name="top_dd"/>
  <anchor x="880" y="-407" name="bottom_dd"/>
  <outline>
    <contour>
      <point x="480" y="212" type="curve" smooth="yes"/>
      <point x="314" y="216"/>
      <point x="324" y="404"/>
      <point x="335" y="525" type="curve" smooth="yes"/>
      <point x="338" y="553" type="line" smooth="yes"/>
      <point x="354" y="696"/>
      <point x="411" y="876"/>
      <point x="587" y="870" type="curve" smooth="yes"/>
      <point x="699" y="866"/>
      <point x="739" y="778"/>
      <point x="738" y="679" type="curve"/>
      <point x="1002" y="678" type="line"/>
      <point x="1004" y="923"/>
      <point x="858" y="1097"/>
      <point x="606" y="1102" type="curve" smooth="yes"/>
      <point x="283" y="1109"/>
      <point x="88" y="854"/>
      <point x="56" y="553" type="curve" smooth="yes"/>
      <point x="53" y="524" type="line" smooth="yes"/>
      <point x="28" y="239"/>
      <point x="161" y="-15"/>
      <point x="473" y="-20" type="curve" smooth="yes"/>
      <point x="709" y="-25"/>
      <point x="927" y="131"/>
      <point x="944" y="375" type="curve"/>
      <point x="678" y="374" type="line"/>
      <point x="658" y="275"/>
      <point x="584" y="209"/>
    </contour>
  </outline>
</glyph>
<glyph name="d" format="2">
  <advance width="1120"/>
  <unicode hex="0064"/>
  <anchor x="1293" y="1603" name="top0315"/>
  <anchor x="657" y="1603" name="top"/>
  <anchor x="468" y="0" name="bottom"/>
  <anchor x="940" y="1306" name="cross"/>
  <anchor x="1282" y="1536" name="caron"/>
  <anchor x="1293" y="1600" name="top_dd"/>
  <anchor x="946" y="-407" name="bottom_dd"/>
  <outline>
    <contour>
      <point x="669" y="256" type="line"/>
      <point x="683" y="182" type="line"/>
      <point x="654" y="0" type="line"/>
      <point x="907" y="0" type="line"/>
      <point x="1174" y="1536" type="line"/>
      <point x="891" y="1536" type="line"/>
      <point x="773" y="914" type="line"/>
      <point x="764" y="804" type="line"/>
    </contour>
    <contour>
      <point x="52" y="521" type="line" smooth="yes"/>
      <point x="28" y="281"/>
      <point x="103" y="-13"/>
      <point x="392" y="-21" type="curve" smooth="yes"/>
      <point x="648" y="-28"/>
      <point x="832" y="292"/>
      <point x="868" y="520" type="curve" smooth="yes"/>
      <point x="873" y="556" type="line" smooth="yes"/>
      <point x="890" y="829"/>
      <point x="813" y="1095"/>
      <point x="539" y="1103" type="curve" smooth="yes"/>
      <point x="228" y="1112"/>
      <point x="86" y="807"/>
      <point x="55" y="542" type="curve" smooth="yes"/>
    </contour>
    <contour>
      <point x="338" y="543" type="line" smooth="yes"/>
      <point x="356" y="687"/>
      <point x="421" y="874"/>
      <point x="597" y="869" type="curve" smooth="yes"/>
      <point x="742" y="864"/>
      <point x="780" y="752"/>
      <point x="762" y="595" type="curve"/>
      <point x="743" y="475" type="line"/>
      <point x="712" y="340"/>
      <point x="614" y="207"/>
      <point x="477" y="213" type="curve" smooth="yes"/>
      <point x="319" y="220"/>
      <point x="323" y="398"/>
      <point x="336" y="522" type="curve" smooth="yes"/>
    </contour>
  </outline>
</glyph>
<glyph name="e" format="2">
  <advance width="1074"/>
  <unicode hex="0065"/>
  <anchor x="1182" y="1291" name="top0315"/>
  <anchor x="898" y="654" name="rhotichook"/>
  <anchor x="636" y="1291" name="top"/>
  <anchor x="459" y="0" name="bottom"/>
  <anchor x="1230" y="1600" name="top_dd"/>
  <anchor x="742" y="32" name="ogonek"/>
  <anchor x="917" y="-407" name="bottom_dd"/>
  <outline>
    <contour>
      <point x="514" y="-20" type="curve" smooth="yes"/>
      <point x="672" y="-22"/>
      <point x="846" y="38"/>
      <point x="937" y="174" type="curve"/>
      <point x="808" y="333" type="line"/>
      <point x="736" y="258"/>
      <point x="646" y="210"/>
      <point x="539" y="214" type="curve" smooth="yes"/>
      <point x="377" y="219"/>
      <point x="323" y="358"/>
      <point x="337" y="502" type="curve" smooth="yes"/>
      <point x="342" y="541" type="line" smooth="yes"/>
      <point x="360" y="687"/>
      <point x="425" y="875"/>
      <point x="604" y="870" type="curve" smooth="yes"/>
      <point x="721" y="867"/>
      <point x="769" y="779"/>
      <point x="751" y="670" type="curve"/>
      <point x="746" y="644" type="line"/>
      <point x="198" y="645" type="line"/>
      <point x="167" y="447" type="line"/>
      <point x="1000" y="447" type="line"/>
      <point x="1017" y="571" type="line" smooth="yes"/>
      <point x="1047" y="848"/>
      <point x="922" y="1096"/>
      <point x="619" y="1102" type="curve" smooth="yes"/>
      <point x="297" y="1109"/>
      <point x="91" y="841"/>
      <point x="61" y="542" type="curve" smooth="yes"/>
      <point x="58" y="501" type="line" smooth="yes"/>
      <point x="35" y="212"/>
      <point x="216" y="-16"/>
    </contour>
  </outline>
</glyph>
<glyph name="f" format="2">
  <advance width="712"/>
  <unicode hex="0066"/>
  <anchor x="633" y="1688" name="top"/>
  <anchor x="218" y="10" name="bottom"/>
  <anchor x="885" y="1600" name="top_dd"/>
  <anchor x="538" y="-407" name="bottom_dd"/>
  <anchor x="900" y="1688" name="top0315"/>
  <outline>
    <contour>
      <point x="363" y="0" type="line"/>
      <point x="566" y="1176" type="line" smooth="yes"/>
      <point x="585" y="1274"/>
      <point x="662" y="1326"/>
      <point x="760" y="1325" type="curve" smooth="yes"/>
      <point x="789" y="1324"/>
      <point x="816" y="1320"/>
      <point x="844" y="1313" type="curve"/>
      <point x="868" y="1539" type="line"/>
      <point x="817" y="1550"/>
      <point x="766" y="1560"/>
      <point x="714" y="1560" type="curve" smooth="yes"/>
      <point x="471" y="1564"/>
      <point x="310" y="1414"/>
      <point x="279" y="1175" type="curve" smooth="yes"/>
      <point x="80" y="0" type="line"/>
    </contour>
    <contour>
      <point x="760" y="1082" type="line"/>
      <point x="112" y="1082" type="line"/>
      <point x="74" y="871" type="line"/>
      <point x="722" y="871" type="line"/>
    </contour>
  </outline>
</glyph>
<glyph name="g" format="2">
  <advance width="1135"/>
  <unicode hex="0067"/>
  <anchor x="657" y="1290" name="top"/>
  <anchor x="356" y="-447" name="bottom"/>
  <anchor x="1307" y="1600" name="top_dd"/>
  <anchor x="961" y="-407" name="bottom_dd"/>
  <anchor x="1254" y="1290" name="top0315"/>
  <outline>
    <contour>
      <point x="854" y="1082" type="line"/>
      <point x="797" y="910" type="line"/>
      <point x="678" y="206" type="line"/>
      <point x="688" y="171" type="line"/>
      <point x="657" y="39" type="line" smooth="yes"/>
      <point x="624" y="-108"/>
      <point x="513" y="-206"/>
      <point x="361" y="-203" type="curve" smooth="yes"/>
      <point x="264" y="-200"/>
      <point x="183" y="-154"/>
      <point x="124" y="-80" type="curve"/>
      <point x="-16" y="-252" type="line"/>
      <point x="78" y="-363"/>
      <point x="222" y="-423"/>
      <point x="366" y="-426" type="curve" smooth="yes"/>
      <point x="663" y="-433"/>
      <point x="894" y="-260"/>
      <point x="934" y="38" type="curve" smooth="yes"/>
      <point x="1112" y="1082" type="line"/>
    </contour>
    <contour>
      <point x="55" y="521" type="line" smooth="yes"/>
      <point x="31" y="277"/>
      <point x="119" y="-13"/>
      <point x="408" y="-21" type="curve" smooth="yes"/>
      <point x="669" y="-28"/>
      <point x="849" y="287"/>
      <point x="886" y="519" type="curve" smooth="yes"/>
      <point x="890" y="556" type="line" smooth="yes"/>
      <point x="904" y="864"/>
      <point x="844" y="1095"/>
      <point x="555" y="1102" type="curve" smooth="yes"/>
      <point x="244" y="1111"/>
      <point x="89" y="813"/>
      <point x="57" y="542" type="curve" smooth="yes"/>
    </contour>
    <contour>
      <point x="340" y="542" type="line" smooth="yes"/>
      <point x="360" y="690"/>
      <point x="438" y="874"/>
      <point x="614" y="869" type="curve" smooth="yes"/>
      <point x="766" y="864"/>
      <point x="802" y="772"/>
      <point x="784" y="595" type="curve"/>
      <point x="766" y="475" type="line"/>
      <point x="735" y="333"/>
      <point x="636" y="207"/>
      <point x="492" y="213" type="curve" smooth="yes"/>
      <point x="332" y="220"/>
      <point x="325" y="400"/>
      <point x="338" y="521" type="curve" smooth="yes"/>
    </contour>
  </outline>
</glyph>
<glyph name="h" format="2">
  <advance width="1112"/>
  <unicode hex="0068"/>
  <anchor x="905" y="0" name="right"/>
  <anchor x="1297" y="1671" name="top0315"/>
  <anchor x="694" y="1671" name="top"/>
  <anchor x="464" y="10" name="bottom"/>
  <anchor x="405" y="1303" name="cross"/>
  <anchor x="1285" y="1600" name="top_dd"/>
  <anchor x="938" y="-407" name="bottom_dd"/>
  <outline>
    <contour>
      <point x="545" y="1536" type="line"/>
      <point x="264" y="1536" type="line"/>
      <point x="-3" y="0" type="line"/>
      <point x="279" y="0" type="line"/>
      <point x="434" y="892" type="line"/>
      <point x="429" y="925" type="line"/>
    </contour>
    <contour>
      <point x="340" y="578" type="line"/>
      <point x="364" y="726"/>
      <point x="451" y="874"/>
      <point x="610" y="870" type="curve" smooth="yes"/>
      <point x="726" y="866"/>
      <point x="750" y="790"/>
      <point x="738" y="686" type="curve"/>
      <point x="623" y="0" type="line"/>
      <point x="906" y="0" type="line"/>
      <point x="1019" y="683" type="line"/>
      <point x="1042" y="901"/>
      <point x="969" y="1097"/>
      <point x="724" y="1103" type="curve" smooth="yes"/>
      <point x="437" y="1109"/>
      <point x="312" y="797"/>
      <point x="266" y="575" type="curve"/>
    </contour>
  </outline>
</glyph>
<glyph name="i" format="2">
  <advance width="527"/>
  <unicode hex="0069"/>
  <anchor x="700" y="1600" name="top0315"/>
  <anchor x="333" y="654" name="rhotichook"/>
  <anchor x="436" y="1600" name="top"/>
  <anchor x="161" y="10" name="bottom"/>
  <anchor x="700" y="1600" name="top_dd"/>
  <anchor x="259" y="0" name="ogonek"/>
  <anchor x="353" y="-407" name="bottom_dd"/>
  <outline>
    <contour>
      <point x="489" y="1082" type="line"/>
      <point x="206" y="1082" type="line"/>
      <point x="18" y="0" type="line"/>
      <point x="301" y="0" type="line"/>
    </contour>
    <contour>
      <point x="238" y="1357" type="curve" smooth="yes"/>
      <point x="240" y="1268"/>
      <point x="311" y="1210"/>
      <point x="397" y="1212" type="curve" smooth="yes"/>
      <point x="486" y="1213"/>
      <point x="555" y="1276"/>
      <point x="553" y="1367" type="curve" smooth="yes"/>
      <point x="551" y="1456"/>
      <point x="480" y="1514"/>
      <point x="393" y="1513" type="curve" smooth="yes"/>
      <point x="304" y="1512"/>
      <point x="236" y="1448"/>
    </contour>
  </outline>
</glyph>
<glyph name="j" format="2">
  <advance width="517"/>
  <unicode hex="006A"/>
  <anchor x="389" y="1600" name="top"/>
  <anchor x="1" y="-459" name="bottom"/>
  <anchor x="690" y="1600" name="top_dd"/>
  <anchor x="343" y="-407" name="bottom_dd"/>
  <anchor x="690" y="1600" name="top0315"/>
  <outline>
    <contour>
      <point x="207" y="1082" type="line"/>
      <point x="10" y="-60" type="line" smooth="yes"/>
      <point x="-6" y="-148"/>
      <point x="-60" y="-205"/>
      <point x="-152" y="-204" type="curve" smooth="yes"/>
      <point x="-182" y="-203"/>
      <point x="-211" y="-197"/>
      <point x="-239" y="-192" type="curve"/>
      <point x="-263" y="-421" type="line"/>
      <point x="-212" y="-432"/>
      <point x="-162" y="-439"/>
      <point x="-111" y="-440" type="curve" smooth="yes"/>
      <point x="129" y="-442"/>
      <point x="267" y="-289"/>
      <point x="296" y="-60" type="curve" smooth="yes"/>
      <point x="490" y="1082" type="line"/>
    </contour>
    <contour>
      <point x="234" y="1357" type="curve" smooth="yes"/>
      <point x="236" y="1269"/>
      <point x="307" y="1211"/>
      <point x="393" y="1212" type="curve" smooth="yes"/>
      <point x="481" y="1213"/>
      <point x="550" y="1277"/>
      <point x="548" y="1367" type="curve" smooth="yes"/>
      <point x="546" y="1456"/>
      <point x="475" y="1514"/>
      <point x="389" y="1513" type="curve" smooth="yes"/>
      <point x="300" y="1511"/>
      <point x="232" y="1448"/>
    </contour>
  </outline>
</glyph>
<glyph name="k" format="2">
  <advance width="1061"/>
  <unicode hex="006B"/>
  <anchor x="1109" y="1603" name="top0315"/>
  <anchor x="805" y="1603" name="top"/>
  <anchor x="450" y="41" name="bottom"/>
  <anchor x="369" y="1296" name="cross"/>
  <anchor x="805" y="1603" name="marktop"/>
  <anchor x="1234" y="1600" name="top_dd"/>
  <anchor x="887" y="-407" name="bottom_dd"/>
  <outline>
    <contour>
      <point x="552" y="1537" type="line"/>
      <point x="270" y="1537" type="line"/>
      <point x="3" y="0" type="line"/>
      <point x="286" y="0" type="line"/>
      <point x="389" y="597" type="line"/>
      <point x="389" y="636" type="line"/>
    </contour>
    <contour>
      <point x="1144" y="1082" type="line"/>
      <point x="783" y="1082" type="line"/>
      <point x="466" y="765" type="line"/>
      <point x="233" y="515" type="line"/>
      <point x="300" y="282" type="line"/>
      <point x="592" y="538" type="line"/>
    </contour>
    <contour>
      <point x="663" y="0" type="line"/>
      <point x="973" y="0" type="line"/>
      <point x="645" y="676" type="line"/>
      <point x="435" y="510" type="line"/>
    </contour>
  </outline>
</glyph>
<glyph name="l" format="2">
  <advance width="527"/>
  <unicode hex="006C"/>
  <anchor x="714" y="1683" name="top0315"/>
  <anchor x="450" y="1683" name="top"/>
  <anchor x="161" y="10" name="bottom"/>
  <anchor x="793" y="1501" name="marktop"/>
  <anchor x="677" y="1536" name="caron"/>
  <anchor x="700" y="1600" name="top_dd"/>
  <anchor x="353" y="-407" name="bottom_dd"/>
  <anchor x="535" y="778" name="dot"/>
  <outline>
    <contour>
      <point x="568" y="1536" type="line"/>
      <point x="285" y="1536" type="line"/>
      <point x="18" y="0" type="line"/>
      <point x="301" y="0" type="line"/>
    </contour>
  </outline>
</glyph>
<glyph name="m" format="2">
  <advance width="1720"/>
  <unicode hex="006D"/>
  <anchor x="773" y="10" name="bottom"/>
  <anchor x="1839" y="1290" name="top0315"/>
  <anchor x="998" y="1290" name="top"/>
  <anchor x="998" y="1290" name="marktop"/>
  <anchor x="1893" y="1600" name="top_dd"/>
  <anchor x="1546" y="-407" name="bottom_dd"/>
  <outline>
    <contour>
      <point x="455" y="1082" type="line"/>
      <point x="191" y="1082" type="line"/>
      <point x="3" y="0" type="line"/>
      <point x="286" y="0" type="line"/>
      <point x="432" y="840" type="line"/>
      <point x="418" y="888" type="line"/>
    </contour>
    <contour>
      <point x="349" y="578" type="line"/>
      <point x="372" y="719"/>
      <point x="461" y="874"/>
      <point x="616" y="869" type="curve" smooth="yes"/>
      <point x="724" y="866"/>
      <point x="742" y="789"/>
      <point x="730" y="689" type="curve"/>
      <point x="615" y="0" type="line"/>
      <point x="897" y="0" type="line"/>
      <point x="1021" y="722" type="line" smooth="yes"/>
      <point x="1054" y="917"/>
      <point x="970" y="1097"/>
      <point x="756" y="1102" type="curve" smooth="yes"/>
      <point x="448" y="1109"/>
      <point x="299" y="810"/>
      <point x="272" y="575" type="curve"/>
    </contour>
    <contour>
      <point x="980" y="606" type="line"/>
      <point x="999" y="735"/>
      <point x="1085" y="873"/>
      <point x="1222" y="869" type="curve" smooth="yes"/>
      <point x="1334" y="867"/>
      <point x="1354" y="792"/>
      <point x="1342" y="691" type="curve"/>
      <point x="1226" y="0" type="line"/>
      <point x="1509" y="0" type="line"/>
      <point x="1624" y="690" type="line"/>
      <point x="1646" y="903"/>
      <point x="1578" y="1097"/>
      <point x="1337" y="1103" type="curve" smooth="yes"/>
      <point x="1067" y="1109"/>
      <point x="901" y="849"/>
      <point x="875" y="592" type="curve"/>
    </contour>
  </outline>
</glyph>
<glyph name="n" format="2">
  <advance width="1113"/>
  <unicode hex="006E"/>
  <anchor x="907" y="0" name="right"/>
  <anchor x="454" y="10" name="bottom"/>
  <anchor x="678" y="1290" name="top"/>
  <anchor x="678" y="1290" name="marktop"/>
  <anchor x="939" y="-407" name="bottom_dd"/>
  <anchor x="88" y="1535" name="caron"/>
  <anchor x="1286" y="1600" name="top_dd"/>
  <anchor x="1232" y="1290" name="top0315"/>
  <outline>
    <contour>
      <point x="185" y="1082" type="line"/>
      <point x="-3" y="0" type="line"/>
      <point x="280" y="0" type="line"/>
      <point x="425" y="833" type="line"/>
      <point x="414" y="894" type="line"/>
      <point x="449" y="1082" type="line"/>
    </contour>
    <contour>
      <point x="341" y="578" type="line"/>
      <point x="363" y="720"/>
      <point x="461" y="874"/>
      <point x="615" y="870" type="curve" smooth="yes"/>
      <point x="725" y="866"/>
      <point x="752" y="796"/>
      <point x="739" y="691" type="curve"/>
      <point x="623" y="0" type="line"/>
      <point x="906" y="0" type="line"/>
      <point x="1020" y="689" type="line"/>
      <point x="1042" y="900"/>
      <point x="978" y="1096"/>
      <point x="739" y="1102" type="curve" smooth="yes"/>
      <point x="453" y="1110"/>
      <point x="308" y="824"/>
      <point x="270" y="574" type="curve"/>
    </contour>
  </outline>
</glyph>
<glyph name="o" format="2">
  <advance width="1124"/>
  <unicode hex="006F"/>
  <anchor x="467" y="-7" name="bottom"/>
  <anchor x="950" y="654" name="rhotichook"/>
  <anchor x="666" y="1290" name="top"/>
  <anchor x="1231" y="1290" name="top0315"/>
  <anchor x="1279" y="1600" name="top_dd"/>
  <anchor x="967" y="-407" name="bottom_dd"/>
  <outline>
    <contour>
      <point x="54" y="524" type="line" smooth="yes"/>
      <point x="29" y="236"/>
      <point x="177" y="-14"/>
      <point x="486" y="-20" type="curve" smooth="yes"/>
      <point x="809" y="-27"/>
      <point x="1016" y="227"/>
      <point x="1049" y="531" type="curve" smooth="yes"/>
      <point x="1051" y="553" type="line" smooth="yes"/>
      <point x="1077" y="842"/>
      <point x="931" y="1096"/>
      <point x="619" y="1102" type="curve" smooth="yes"/>
      <point x="293" y="1109"/>
      <point x="89" y="850"/>
      <point x="56" y="545" type="curve" smooth="yes"/>
    </contour>
    <contour>
      <point x="339" y="545" type="line" smooth="yes"/>
      <point x="356" y="693"/>
      <point x="428" y="875"/>
      <point x="605" y="870" type="curve" smooth="yes"/>
      <point x="772" y="864"/>
      <point x="781" y="680"/>
      <point x="769" y="553" type="curve" smooth="yes"/>
      <point x="767" y="532" type="line" smooth="yes"/>
      <point x="749" y="384"/>
      <point x="676" y="206"/>
      <point x="499" y="212" type="curve" smooth="yes"/>
      <point x="333" y="217"/>
      <point x="324" y="395"/>
      <point x="336" y="524" type="curve" smooth="yes"/>
    </contour>
  </outline>
</glyph>
<glyph name="p" format="2">
  <advance width="1118"/>
  <unicode hex="0070"/>
  <anchor x="72" y="-407" name="bottom"/>
  <anchor x="1236" y="1280" name="top0315"/>
  <anchor x="762" y="1280" name="top"/>
  <anchor x="762" y="1280" name="marktop"/>
  <anchor x="1291" y="1600" name="top_dd"/>
  <anchor x="944" y="-407" name="bottom_dd"/>
  <outline>
    <contour>
      <point x="436" y="860" type="line"/>
      <point x="420" y="905" type="line"/>
      <point x="451" y="1082" type="line"/>
      <point x="191" y="1082" type="line"/>
      <point x="-69" y="-416" type="line"/>
      <point x="213" y="-416" type="line"/>
      <point x="324" y="166" type="line"/>
      <point x="321" y="210" type="line"/>
    </contour>
    <contour>
      <point x="1045" y="559" type="line" smooth="yes"/>
      <point x="1070" y="805"/>
      <point x="1003" y="1094"/>
      <point x="706" y="1103" type="curve" smooth="yes"/>
      <point x="446" y="1110"/>
      <point x="268" y="800"/>
      <point x="227" y="554" type="curve" smooth="yes"/>
      <point x="223" y="512" type="line"/>
      <point x="213" y="224"/>
      <point x="290" y="-14"/>
      <point x="563" y="-21" type="curve" smooth="yes"/>
      <point x="870" y="-29"/>
      <point x="1011" y="276"/>
      <point x="1043" y="538" type="curve" smooth="yes"/>
    </contour>
    <contour>
      <point x="760" y="539" type="line" smooth="yes"/>
      <point x="743" y="397"/>
      <point x="678" y="208"/>
      <point x="504" y="213" type="curve" smooth="yes"/>
      <point x="359" y="216"/>
      <point x="318" y="312"/>
      <point x="334" y="471" type="curve"/>
      <point x="353" y="598" type="line"/>
      <point x="377" y="740"/>
      <point x="474" y="873"/>
      <point x="620" y="869" type="curve" smooth="yes"/>
      <point x="770" y="864"/>
      <point x="777" y="704"/>
      <point x="762" y="560" type="curve" smooth="yes"/>
    </contour>
  </outline>
</glyph>
<glyph name="q" format="2">
  <advance width="1123"/>
  <unicode hex="0071"/>
  <anchor x="699" y="-407" name="bottom"/>
  <anchor x="1242" y="1290" name="top0315"/>
  <anchor x="640" y="1290" name="top"/>
  <anchor x="640" y="1290" name="marktop"/>
  <anchor x="1295" y="1600" name="top_dd"/>
  <anchor x="949" y="-407" name="bottom_dd"/>
  <outline>
    <contour>
      <point x="552" y="-416" type="line"/>
      <point x="835" y="-416" type="line"/>
      <point x="1095" y="1082" type="line"/>
      <point x="843" y="1082" type="line"/>
      <point x="781" y="920" type="line"/>
      <point x="776" y="877" type="line"/>
      <point x="655" y="178" type="line"/>
      <point x="662" y="146" type="line"/>
    </contour>
    <contour>
      <point x="53" y="523" type="line" smooth="yes"/>
      <point x="28" y="282"/>
      <point x="102" y="-13"/>
      <point x="393" y="-21" type="curve" smooth="yes"/>
      <point x="668" y="-28"/>
      <point x="831" y="322"/>
      <point x="872" y="522" type="curve" smooth="yes"/>
      <point x="876" y="558" type="line" smooth="yes"/>
      <point x="889" y="841"/>
      <point x="817" y="1095"/>
      <point x="540" y="1102" type="curve" smooth="yes"/>
      <point x="228" y="1111"/>
      <point x="87" y="812"/>
      <point x="55" y="544" type="curve" smooth="yes"/>
    </contour>
    <contour>
      <point x="338" y="545" type="line" smooth="yes"/>
      <point x="356" y="689"/>
      <point x="422" y="875"/>
      <point x="598" y="870" type="curve" smooth="yes"/>
      <point x="750" y="866"/>
      <point x="786" y="766"/>
      <point x="765" y="598" type="curve"/>
      <point x="746" y="477" type="line"/>
      <point x="713" y="339"/>
      <point x="620" y="205"/>
      <point x="478" y="212" type="curve" smooth="yes"/>
      <point x="320" y="219"/>
      <point x="322" y="392"/>
      <point x="336" y="524" type="curve" smooth="yes"/>
    </contour>
  </outline>
</glyph>
<glyph name="r" format="2">
  <advance width="725"/>
  <unicode hex="0072"/>
  <anchor x="518" y="1290" name="top"/>
  <anchor x="151" y="10" name="bottom"/>
  <anchor x="898" y="1600" name="top_dd"/>
  <anchor x="551" y="-407" name="bottom_dd"/>
  <anchor x="844" y="1290" name="top0315"/>
  <outline>
    <contour>
      <point x="429" y="823" type="line"/>
      <point x="414" y="863" type="line"/>
      <point x="457" y="1082" type="line"/>
      <point x="191" y="1082" type="line"/>
      <point x="3" y="0" type="line"/>
      <point x="286" y="0" type="line"/>
    </contour>
    <contour>
      <point x="777" y="1092" type="line"/>
      <point x="745" y="1099"/>
      <point x="713" y="1105"/>
      <point x="680" y="1105" type="curve" smooth="yes"/>
      <point x="455" y="1106"/>
      <point x="340" y="822"/>
      <point x="314" y="616" type="curve"/>
      <point x="370" y="595" type="line"/>
      <point x="399" y="739"/>
      <point x="494" y="824"/>
      <point x="647" y="823" type="curve" smooth="yes"/>
      <point x="680" y="822"/>
      <point x="713" y="817"/>
      <point x="745" y="812" type="curve"/>
    </contour>
  </outline>
</glyph>
<glyph name="s" format="2">
  <advance width="1022"/>
  <unicode hex="0073"/>
  <anchor x="621" y="1290" name="top"/>
  <anchor x="418" y="-10" name="bottom"/>
  <anchor x="1178" y="1600" name="top_dd"/>
  <anchor x="865" y="-407" name="bottom_dd"/>
  <anchor x="1130" y="1290" name="top0315"/>
  <outline>
    <contour>
      <point x="631" y="306" type="curve" smooth="yes"/>
      <point x="614" y="218"/>
      <point x="521" y="187"/>
      <point x="442" y="188" type="curve" smooth="yes"/>
      <point x="339" y="189"/>
      <point x="277" y="242"/>
      <point x="275" y="345" type="curve"/>
      <point x="9" y="346" type="line"/>
      <point x="14" y="113"/>
      <point x="213" y="-16"/>
      <point x="432" y="-20" type="curve" smooth="yes"/>
      <point x="640" y="-24"/>
      <point x="896" y="77"/>
      <point x="904" y="318" type="curve" smooth="yes"/>
      <point x="912" y="534"/>
      <point x="724" y="608"/>
      <point x="545" y="650" type="curve" smooth="yes"/>
      <point x="483" y="665"/>
      <point x="368" y="685"/>
      <point x="384" y="773" type="curve" smooth="yes"/>
      <point x="398" y="855"/>
      <point x="481" y="895"/>
      <point x="558" y="895" type="curve" smooth="yes"/>
      <point x="651" y="894"/>
      <point x="696" y="843"/>
      <point x="695" y="753" type="curve"/>
      <point x="975" y="752" type="line"/>
      <point x="973" y="985"/>
      <point x="781" y="1099"/>
      <point x="564" y="1102" type="curve" smooth="yes"/>
      <point x="358" y="1105"/>
      <point x="122" y="990"/>
      <point x="115" y="759" type="curve" smooth="yes"/>
      <point x="108" y="563"/>
      <point x="289" y="480"/>
      <point x="452" y="438" type="curve" smooth="yes"/>
      <point x="517" y="422"/>
      <point x="649" y="400"/>
    </contour>
  </outline>
</glyph>
<glyph name="t" format="2">
  <advance width="672"/>
  <unicode hex="0074"/>
  <anchor x="823" y="1476" name="top0315"/>
  <anchor x="477" y="1476" name="top"/>
  <anchor x="317" y="0" name="bottom"/>
  <anchor x="308" y="619" name="cross"/>
  <anchor x="769" y="1300" name="marktop"/>
  <anchor x="764" y="1667" name="caron"/>
  <anchor x="844" y="1600" name="top_dd"/>
  <anchor x="498" y="-407" name="bottom_dd"/>
  <outline>
    <contour>
      <point x="708" y="1082" type="line"/>
      <point x="93" y="1082" type="line"/>
      <point x="56" y="871" type="line"/>
      <point x="671" y="871" type="line"/>
    </contour>
    <contour>
      <point x="293" y="1349" type="line"/>
      <point x="117" y="300" type="line"/>
      <point x="100" y="115"/>
      <point x="187" y="-16"/>
      <point x="380" y="-19" type="curve" smooth="yes"/>
      <point x="435" y="-20"/>
      <point x="489" y="-12"/>
      <point x="542" y="5" type="curve"/>
      <point x="561" y="227" type="line"/>
      <point x="533" y="223"/>
      <point x="505" y="219"/>
      <point x="476" y="220" type="curve" smooth="yes"/>
      <point x="404" y="223"/>
      <point x="392" y="261"/>
      <point x="400" y="328" type="curve"/>
      <point x="575" y="1348" type="line"/>
    </contour>
  </outline>
</glyph>
<glyph name="u" format="2">
  <advance width="1112"/>
  <unicode hex="0075"/>
  <anchor x="451" y="0" name="bottom"/>
  <anchor x="909" y="654" name="rhotichook"/>
  <anchor x="675" y="1290" name="top"/>
  <anchor x="1232" y="1290" name="top0315"/>
  <anchor x="354" y="0" name="bottomu"/>
  <anchor x="1285" y="1600" name="top_dd"/>
  <anchor x="874" y="0" name="ogonek"/>
  <anchor x="938" y="-407" name="bottom_dd"/>
  <outline>
    <contour>
      <point x="671" y="277" type="line"/>
      <point x="678" y="184" type="line"/>
      <point x="641" y="0" type="line"/>
      <point x="906" y="0" type="line"/>
      <point x="1093" y="1082" type="line"/>
      <point x="811" y="1082" type="line"/>
    </contour>
    <contour>
      <point x="734" y="485" type="line"/>
      <point x="719" y="329"/>
      <point x="617" y="207"/>
      <point x="461" y="214" type="curve" smooth="yes"/>
      <point x="363" y="218"/>
      <point x="338" y="291"/>
      <point x="348" y="379" type="curve"/>
      <point x="466" y="1082" type="line"/>
      <point x="184" y="1082" type="line"/>
      <point x="68" y="382" type="line"/>
      <point x="45" y="165"/>
      <point x="132" y="-15"/>
      <point x="368" y="-21" type="curve" smooth="yes"/>
      <point x="646" y="-27"/>
      <point x="788" y="234"/>
      <point x="814" y="487" type="curve"/>
    </contour>
  </outline>
</glyph>
<glyph name="v" format="2">
  <advance width="1005"/>
  <unicode hex="0076"/>
  <anchor x="611" y="1280" name="top"/>
  <anchor x="412" y="10" name="bottom"/>
  <anchor x="1160" y="1600" name="top_dd"/>
  <anchor x="848" y="-407" name="bottom_dd"/>
  <anchor x="1110" y="1280" name="top0315"/>
  <outline>
    <contour>
      <point x="406" y="232" type="line"/>
      <point x="362" y="0" type="line"/>
      <point x="547" y="0" type="line"/>
      <point x="1070" y="1082" type="line"/>
      <point x="766" y="1082" type="line"/>
    </contour>
    <contour>
      <point x="378" y="1082" type="line"/>
      <point x="92" y="1082" type="line"/>
      <point x="278" y="0" type="line"/>
      <point x="452" y="0" type="line"/>
      <point x="478" y="199" type="line"/>
    </contour>
  </outline>
</glyph>
<glyph name="w" format="2">
  <advance width="1460"/>
  <unicode hex="0077"/>
  <anchor x="628" y="10" name="bottom"/>
  <anchor x="1579" y="1290" name="top0315"/>
  <anchor x="847" y="1290" name="top"/>
  <anchor x="847" y="1290" name="marktop"/>
  <anchor x="1633" y="1600" name="top_dd"/>
  <anchor x="1286" y="-407" name="bottom_dd"/>
  <outline>
    <contour>
      <point x="352" y="301" type="line"/>
      <point x="272" y="0" type="line"/>
      <point x="431" y="0" type="line"/>
      <point x="777" y="744" type="line"/>
      <point x="892" y="1082" type="line"/>
      <point x="705" y="1082" type="line"/>
    </contour>
    <contour>
      <point x="379" y="1082" type="line"/>
      <point x="114" y="1082" type="line"/>
      <point x="195" y="0" type="line"/>
      <point x="366" y="0" type="line"/>
      <point x="401" y="268" type="line"/>
    </contour>
    <contour>
      <point x="952" y="317" type="line"/>
      <point x="882" y="0" type="line"/>
      <point x="1063" y="0" type="line"/>
      <point x="1518" y="1082" type="line"/>
      <point x="1238" y="1082" type="line"/>
    </contour>
    <contour>
      <point x="909" y="1082" type="line"/>
      <point x="739" y="1082" type="line"/>
      <point x="735" y="774" type="line"/>
      <point x="827" y="0" type="line"/>
      <point x="973" y="0" type="line"/>
      <point x="995" y="273" type="line"/>
    </contour>
  </outline>
</glyph>
<glyph name="x" format="2">
  <advance width="1011"/>
  <unicode hex="0078"/>
  <anchor x="749" y="0" name="right"/>
  <anchor x="1117" y="1280" name="top0315"/>
  <anchor x="614" y="1280" name="top"/>
  <anchor x="416" y="10" name="bottom"/>
  <anchor x="501" y="552" name="cross"/>
  <anchor x="1167" y="1600" name="top_dd"/>
  <anchor x="854" y="-407" name="bottom_dd"/>
  <outline>
    <contour>
      <point x="404" y="1082" type="line"/>
      <point x="115" y="1081" type="line"/>
      <point x="327" y="567" type="line"/>
      <point x="-81" y="0" type="line"/>
      <point x="238" y="0" type="line"/>
      <point x="476" y="339" type="line"/>
      <point x="609" y="0" type="line"/>
      <point x="898" y="0" type="line"/>
      <point x="676" y="538" type="line"/>
      <point x="1068" y="1082" type="line"/>
      <point x="751" y="1082" type="line"/>
      <point x="525" y="762" type="line"/>
    </contour>
  </outline>
</glyph>
<glyph name="y" format="2">
  <advance width="998"/>
  <unicode hex="0079"/>
  <anchor x="1117" y="1290" name="top0315"/>
  <anchor x="782" y="654" name="rhotichook"/>
  <anchor x="624" y="1290" name="top"/>
  <anchor x="649" y="-110" name="bottom"/>
  <anchor x="624" y="1290" name="marktop"/>
  <anchor x="1171" y="1600" name="top_dd"/>
  <anchor x="824" y="-407" name="bottom_dd"/>
  <outline>
    <contour>
      <point x="338" y="141" type="line"/>
      <point x="216" y="-85" type="line" smooth="yes"/>
      <point x="170" y="-170"/>
      <point x="103" y="-204"/>
      <point x="6" y="-202" type="curve" smooth="yes"/>
      <point x="-7" y="-202"/>
      <point x="-20" y="-201"/>
      <point x="-33" y="-200" type="curve"/>
      <point x="-55" y="-419" type="line"/>
      <point x="-10" y="-430"/>
      <point x="34" y="-440"/>
      <point x="81" y="-440" type="curve" smooth="yes"/>
      <point x="268" y="-441"/>
      <point x="378" y="-321"/>
      <point x="452" y="-163" type="curve" smooth="yes"/>
      <point x="1085" y="1082" type="line"/>
      <point x="772" y="1082" type="line"/>
    </contour>
    <contour>
      <point x="385" y="1082" type="line"/>
      <point x="93" y="1082" type="line"/>
      <point x="276" y="-30" type="line"/>
      <point x="464" y="-12" type="line"/>
      <point x="477" y="290" type="line"/>
    </contour>
  </outline>
</glyph>
<glyph name="z" format="2">
  <advance width="1011"/>
  <unicode hex="007A"/>
  <anchor x="626" y="1290" name="top"/>
  <anchor x="408" y="10" name="bottom"/>
  <anchor x="1184" y="1600" name="top_dd"/>
  <anchor x="837" y="-407" name="bottom_dd"/>
  <anchor x="1131" y="1290" name="top0315"/>
  <outline>
    <contour>
      <point x="881" y="233" type="line"/>
      <point x="85" y="233" type="line"/>
      <point x="44" y="0" type="line"/>
      <point x="840" y="0" type="line"/>
    </contour>
    <contour>
      <point x="981" y="898" type="line"/>
      <point x="1013" y="1082" type="line"/>
      <point x="822" y="1082" type="line"/>
      <point x="0" y="190" type="line"/>
      <point x="-33" y="0" type="line"/>
      <point x="156" y="0" type="line"/>
    </contour>
    <contour>
      <point x="913" y="1082" type="line"/>
      <point x="170" y="1082" type="line"/>
      <point x="129" y="849" type="line"/>
      <point x="872" y="849" type="line"/>
    </contour>
  </outline>
</glyph>
<glyph name="braceleft" format="2">
  <advance width="656"/>
  <unicode hex="007B"/>
  <outline>
    <contour>
      <point x="172" y="310" type="curve" smooth="yes"/>
      <point x="144" y="106" type="line" smooth="yes"/>
      <point x="120" y="-117"/>
      <point x="221" y="-287"/>
      <point x="434" y="-359" type="curve"/>
      <point x="498" y="-197" type="line"/>
      <point x="377" y="-142"/>
      <point x="382" y="-11"/>
      <point x="397" y="105" type="curve" smooth="yes"/>
      <point x="424" y="309" type="line" smooth="yes"/>
      <point x="435" y="428"/>
      <point x="400" y="549"/>
      <point x="277" y="631" type="curve"/>
      <point x="274" y="600" type="line"/>
      <point x="433" y="674"/>
      <point x="509" y="780"/>
      <point x="527" y="929" type="curve" smooth="yes"/>
      <point x="555" y="1132" type="line" smooth="yes"/>
      <point x="575" y="1263"/>
      <point x="625" y="1385"/>
      <point x="756" y="1435" type="curve"/>
      <point x="712" y="1600" type="line"/>
      <point x="473" y="1530"/>
      <point x="332" y="1381"/>
      <point x="300" y="1132" type="curve" smooth="yes"/>
      <point x="271" y="929" type="line" smooth="yes"/>
      <point x="253" y="808"/>
      <point x="186" y="725"/>
      <point x="59" y="721" type="curve"/>
      <point x="39" y="514" type="line"/>
      <point x="161" y="504"/>
      <point x="186" y="423"/>
    </contour>
  </outline>
</glyph>
<glyph name="asciitilde" format="2">
  <advance width="1289"/>
  <unicode hex="007E"/>
  <outline>
    <contour>
      <point x="1001" y="794" type="line"/>
      <point x="987" y="711"/>
      <point x="942" y="610"/>
      <point x="842" y="611" type="curve" smooth="yes"/>
      <point x="783" y="612"/>
      <point x="740" y="656"/>
      <point x="702" y="696" type="curve" smooth="yes"/>
      <point x="631" y="771"/>
      <point x="546" y="827"/>
      <point x="439" y="829" type="curve" smooth="yes"/>
      <point x="206" y="834"/>
      <point x="95" y="620"/>
      <point x="81" y="415" type="curve"/>
      <point x="290" y="414" type="line"/>
      <point x="303" y="496"/>
      <point x="346" y="594"/>
      <point x="444" y="593" type="curve" smooth="yes"/>
      <point x="504" y="592"/>
      <point x="548" y="549"/>
      <point x="587" y="508" type="curve" smooth="yes"/>
      <point x="659" y="433"/>
      <point x="740" y="376"/>
      <point x="848" y="374" type="curve" smooth="yes"/>
      <point x="1082" y="370"/>
      <point x="1193" y="591"/>
      <point x="1206" y="795" type="curve"/>
    </contour>
  </outline>
</glyph>
<glyph name="exclamdown" format="2">
  <advance width="561"/>
  <unicode hex="00A1"/>
  <outline>
    <contour>
      <point x="-36" y="-369" type="line"/>
      <point x="264" y="-369" type="line"/>
      <point x="407" y="639" type="line"/>
      <point x="171" y="639" type="line"/>
    </contour>
    <contour>
      <point x="500" y="954" type="curve" smooth="yes"/>
      <point x="498" y="1042"/>
      <point x="428" y="1104"/>
      <point x="341" y="1103" type="curve" smooth="yes"/>
      <point x="251" y="1101"/>
      <point x="183" y="1034"/>
      <point x="185" y="944" type="curve" smooth="yes"/>
      <point x="187" y="855"/>
      <point x="257" y="793"/>
      <point x="344" y="794" type="curve" smooth="yes"/>
      <point x="434" y="796"/>
      <point x="502" y="864"/>
    </contour>
  </outline>
</glyph>
<glyph name="cent" format="2">
  <advance width="1144"/>
  <unicode hex="00A2"/>
  <outline>
    <contour>
      <point x="804" y="1318" type="line"/>
      <point x="608" y="1318" type="line"/>
      <point x="550" y="1026" type="line"/>
      <point x="746" y="1026" type="line"/>
    </contour>
    <contour>
      <point x="591" y="46" type="line"/>
      <point x="394" y="46" type="line"/>
      <point x="336" y="-245" type="line"/>
      <point x="532" y="-245" type="line"/>
    </contour>
    <component base="c" xOffset="33"/>
  </outline>
</glyph>
<glyph name="sterling" format="2">
  <advance width="1181"/>
  <unicode hex="00A3"/>
  <outline>
    <contour>
      <point x="1024" y="0" type="line"/>
      <point x="1066" y="242" type="line"/>
      <point x="37" y="242" type="line"/>
      <point x="-6" y="0" type="line"/>
    </contour>
    <contour>
      <point x="836" y="577" type="line"/>
      <point x="877" y="812" type="line"/>
      <point x="132" y="812" type="line"/>
      <point x="91" y="577" type="line"/>
    </contour>
    <contour>
      <point x="604" y="1039" type="line" smooth="yes"/>
      <point x="619" y="1138"/>
      <point x="680" y="1238"/>
      <point x="791" y="1235" type="curve" smooth="yes"/>
      <point x="899" y="1232"/>
      <point x="930" y="1155"/>
      <point x="926" y="1058" type="curve"/>
      <point x="1205" y="1057" type="line"/>
      <point x="1211" y="1309"/>
      <point x="1063" y="1470"/>
      <point x="808" y="1475" type="curve" smooth="yes"/>
      <point x="539" y="1481"/>
      <point x="341" y="1305"/>
      <point x="311" y="1039" type="curve" smooth="yes"/>
      <point x="228" y="421" type="line" smooth="yes"/>
      <point x="217" y="356"/>
      <point x="197" y="270"/>
      <point x="128" y="244" type="curve"/>
      <point x="314" y="155" type="line"/>
      <point x="437" y="215"/>
      <point x="517" y="321"/>
      <point x="531" y="439" type="curve" smooth="yes"/>
    </contour>
  </outline>
</glyph>
<glyph name="currency" format="2">
  <advance width="1375"/>
  <unicode hex="00A4"/>
  <outline>
    <contour>
      <point x="1223" y="105" type="line"/>
      <point x="1111" y="255" type="line"/>
      <point x="1199" y="359"/>
      <point x="1253" y="480"/>
      <point x="1269" y="615" type="curve" smooth="yes"/>
      <point x="1283" y="736"/>
      <point x="1265" y="853"/>
      <point x="1227" y="968" type="curve"/>
      <point x="1395" y="1106" type="line"/>
      <point x="1272" y="1265" type="line"/>
      <point x="1102" y="1117" type="line"/>
      <point x="1013" y="1194"/>
      <point x="899" y="1232"/>
      <point x="781" y="1233" type="curve" smooth="yes"/>
      <point x="652" y="1235"/>
      <point x="534" y="1191"/>
      <point x="427" y="1121" type="curve"/>
      <point x="318" y="1265" type="line"/>
      <point x="170" y="1134" type="line"/>
      <point x="286" y="977" type="line"/>
      <point x="190" y="870"/>
      <point x="131" y="744"/>
      <point x="114" y="602" type="curve" smooth="yes"/>
      <point x="100" y="484"/>
      <point x="117" y="370"/>
      <point x="152" y="258" type="curve"/>
      <point x="-2" y="132" type="line"/>
      <point x="120" y="-27" type="line"/>
      <point x="273" y="106" type="line"/>
      <point x="363" y="24"/>
      <point x="481" y="-18"/>
      <point x="603" y="-20" type="curve" smooth="yes"/>
      <point x="740" y="-22"/>
      <point x="863" y="28"/>
      <point x="973" y="106" type="curve"/>
      <point x="1073" y="-28" type="line"/>
    </contour>
    <contour>
      <point x="296" y="599" type="curve" smooth="yes"/>
      <point x="329" y="834"/>
      <point x="530" y="1054"/>
      <point x="779" y="1046" type="curve" smooth="yes"/>
      <point x="1008" y="1039"/>
      <point x="1118" y="824"/>
      <point x="1088" y="617" type="curve" smooth="yes"/>
      <point x="1055" y="383"/>
      <point x="854" y="161"/>
      <point x="605" y="168" type="curve" smooth="yes"/>
      <point x="376" y="175"/>
      <point x="265" y="390"/>
    </contour>
  </outline>
</glyph>
<glyph name="yen" format="2">
  <advance width="1065"/>
  <unicode hex="00A5"/>
  <outline>
    <contour>
      <point x="980" y="742" type="line"/>
      <point x="111" y="742" type="line"/>
      <point x="81" y="568" type="line"/>
      <point x="949" y="568" type="line"/>
    </contour>
    <contour>
      <point x="930" y="452" type="line"/>
      <point x="61" y="452" type="line"/>
      <point x="30" y="279" type="line"/>
      <point x="899" y="279" type="line"/>
    </contour>
    <contour>
      <point x="485" y="724" type="line"/>
      <point x="496" y="556" type="line"/>
      <point x="655" y="557" type="line"/>
      <point x="1212" y="1456" type="line"/>
      <point x="893" y="1456" type="line"/>
    </contour>
    <contour>
      <point x="458" y="1456" type="line"/>
      <point x="162" y="1455" type="line"/>
      <point x="404" y="557" type="line"/>
      <point x="566" y="557" type="line"/>
      <point x="623" y="687" type="line"/>
    </contour>
    <contour>
      <point x="704" y="760" type="line"/>
      <point x="411" y="760" type="line"/>
      <point x="279" y="0" type="line"/>
      <point x="572" y="0" type="line"/>
    </contour>
  </outline>
</glyph>
<glyph name="brokenbar" format="2">
  <advance width="501"/>
  <unicode hex="00A6"/>
  <outline>
    <contour>
      <point x="526" y="1456" type="line"/>
      <point x="272" y="1456" type="line"/>
      <point x="140" y="698" type="line"/>
      <point x="395" y="698" type="line"/>
    </contour>
    <contour>
      <point x="227" y="-270" type="line"/>
      <point x="365" y="525" type="line"/>
      <point x="111" y="525" type="line"/>
      <point x="-27" y="-270" type="line"/>
    </contour>
  </outline>
</glyph>
<glyph name="section" format="2">
  <advance width="1248"/>
  <unicode hex="00A7"/>
  <outline>
    <contour>
      <point x="586" y="136" type="line"/>
      <point x="819" y="141"/>
      <point x="1110" y="229"/>
      <point x="1126" y="489" type="curve" smooth="yes"/>
      <point x="1141" y="743"/>
      <point x="925" y="839"/>
      <point x="714" y="903" type="curve" smooth="yes"/>
      <point x="621" y="932"/>
      <point x="460" y="960"/>
      <point x="485" y="1090" type="curve" smooth="yes"/>
      <point x="507" y="1208"/>
      <point x="636" y="1244"/>
      <point x="741" y="1242" type="curve" smooth="yes"/>
      <point x="863" y="1239"/>
      <point x="933" y="1170"/>
      <point x="928" y="1049" type="curve"/>
      <point x="1209" y="1048" type="line"/>
      <point x="1215" y="1332"/>
      <point x="1022" y="1472"/>
      <point x="751" y="1476" type="curve" smooth="yes"/>
      <point x="505" y="1480"/>
      <point x="219" y="1368"/>
      <point x="202" y="1087" type="curve" smooth="yes"/>
      <point x="186" y="827"/>
      <point x="350" y="738"/>
      <point x="609" y="661" type="curve" smooth="yes"/>
      <point x="702" y="633"/>
      <point x="864" y="588"/>
      <point x="840" y="461" type="curve" smooth="yes"/>
      <point x="818" y="340"/>
      <point x="709" y="285"/>
      <point x="595" y="281" type="curve"/>
    </contour>
    <contour>
      <point x="603" y="880" type="line"/>
      <point x="372" y="876"/>
      <point x="94" y="776"/>
      <point x="79" y="527" type="curve" smooth="yes"/>
      <point x="63" y="273"/>
      <point x="281" y="180"/>
      <point x="488" y="113" type="curve" smooth="yes"/>
      <point x="572" y="86"/>
      <point x="745" y="48"/>
      <point x="721" y="-73" type="curve" smooth="yes"/>
      <point x="698" y="-189"/>
      <point x="567" y="-219"/>
      <point x="466" y="-218" type="curve" smooth="yes"/>
      <point x="341" y="-217"/>
      <point x="250" y="-169"/>
      <point x="255" y="-35" type="curve"/>
      <point x="-25" y="-34" type="line"/>
      <point x="-31" y="-327"/>
      <point x="188" y="-449"/>
      <point x="456" y="-453" type="curve" smooth="yes"/>
      <point x="704" y="-457"/>
      <point x="985" y="-355"/>
      <point x="1002" y="-71" type="curve" smooth="yes"/>
      <point x="1019" y="193"/>
      <point x="858" y="282"/>
      <point x="593" y="354" type="curve" smooth="yes"/>
      <point x="490" y="382"/>
      <point x="343" y="422"/>
      <point x="368" y="556" type="curve" smooth="yes"/>
      <point x="389" y="666"/>
      <point x="480" y="727"/>
      <point x="592" y="732" type="curve"/>
    </contour>
  </outline>
</glyph>
<glyph name="dieresis" format="2">
  <advance width="927"/>
  <unicode hex="00A8"/>
  <anchor x="570" y="1290" name="_top"/>
  <anchor x="619" y="1602" name="mkmktop_acc"/>
  <outline>
    <contour>
      <point x="211" y="1362" type="curve" smooth="yes"/>
      <point x="212" y="1288"/>
      <point x="277" y="1236"/>
      <point x="349" y="1238" type="curve" smooth="yes"/>
      <point x="421" y="1240"/>
      <point x="482" y="1295"/>
      <point x="481" y="1369" type="curve" smooth="yes"/>
      <point x="479" y="1443"/>
      <point x="414" y="1495"/>
      <point x="342" y="1493" type="curve" smooth="yes"/>
      <point x="270" y="1492"/>
      <point x="209" y="1437"/>
    </contour>
    <contour>
      <point x="683" y="1362" type="curve" smooth="yes"/>
      <point x="685" y="1288"/>
      <point x="750" y="1236"/>
      <point x="822" y="1238" type="curve" smooth="yes"/>
      <point x="894" y="1239"/>
      <point x="955" y="1294"/>
      <point x="953" y="1368" type="curve" smooth="yes"/>
      <point x="952" y="1443"/>
      <point x="887" y="1495"/>
      <point x="815" y="1493" type="curve" smooth="yes"/>
      <point x="743" y="1491"/>
      <point x="682" y="1436"/>
    </contour>
  </outline>
</glyph>
<glyph name="copyright" format="2">
  <advance width="1558"/>
  <unicode hex="00A9"/>
  <outline>
    <contour>
      <point x="927" y="596" type="line"/>
      <point x="908" y="483"/>
      <point x="848" y="411"/>
      <point x="727" y="417" type="curve" smooth="yes"/>
      <point x="593" y="423"/>
      <point x="574" y="559"/>
      <point x="585" y="668" type="curve" smooth="yes"/>
      <point x="600" y="789" type="line" smooth="yes"/>
      <point x="617" y="915"/>
      <point x="687" y="1044"/>
      <point x="830" y="1042" type="curve" smooth="yes"/>
      <point x="947" y="1039"/>
      <point x="983" y="969"/>
      <point x="977" y="861" type="curve"/>
      <point x="1129" y="860" type="line"/>
      <point x="1132" y="1053"/>
      <point x="1020" y="1172"/>
      <point x="825" y="1176" type="curve" smooth="yes"/>
      <point x="599" y="1180"/>
      <point x="467" y="997"/>
      <point x="446" y="788" type="curve" smooth="yes"/>
      <point x="434" y="669" type="line" smooth="yes"/>
      <point x="419" y="471"/>
      <point x="517" y="287"/>
      <point x="733" y="282" type="curve" smooth="yes"/>
      <point x="937" y="276"/>
      <point x="1066" y="396"/>
      <point x="1078" y="597" type="curve"/>
    </contour>
    <contour>
      <point x="224" y="722" type="curve" smooth="yes"/>
      <point x="270" y="1053"/>
      <point x="555" y="1358"/>
      <point x="903" y="1351" type="curve" smooth="yes"/>
      <point x="1234" y="1344"/>
      <point x="1403" y="1039"/>
      <point x="1361" y="736" type="curve" smooth="yes"/>
      <point x="1315" y="406"/>
      <point x="1031" y="97"/>
      <point x="682" y="104" type="curve" smooth="yes"/>
      <point x="351" y="111"/>
      <point x="182" y="419"/>
    </contour>
    <contour>
      <point x="104" y="722" type="curve" smooth="yes"/>
      <point x="65" y="350"/>
      <point x="296" y="-14"/>
      <point x="694" y="-21" type="curve" smooth="yes"/>
      <point x="1109" y="-27"/>
      <point x="1440" y="339"/>
      <point x="1482" y="735" type="curve" smooth="yes"/>
      <point x="1521" y="1108"/>
      <point x="1289" y="1470"/>
      <point x="892" y="1476" type="curve" smooth="yes"/>
      <point x="477" y="1483"/>
      <point x="145" y="1119"/>
    </contour>
  </outline>
</glyph>
<glyph name="ordfeminine" format="2">
  <advance width="882"/>
  <unicode hex="00AA"/>
  <outline>
    <contour>
      <point x="620" y="839" type="line"/>
      <point x="615" y="787"/>
      <point x="614" y="752"/>
      <point x="620" y="704" type="curve"/>
      <point x="783" y="703" type="line"/>
      <point x="772" y="765"/>
      <point x="774" y="824"/>
      <point x="784" y="886" type="curve" smooth="yes"/>
      <point x="833" y="1200" type="line"/>
      <point x="845" y="1365"/>
      <point x="742" y="1474"/>
      <point x="578" y="1477" type="curve" smooth="yes"/>
      <point x="426" y="1480"/>
      <point x="275" y="1407"/>
      <point x="264" y="1243" type="curve"/>
      <point x="437" y="1229" type="line"/>
      <point x="456" y="1299"/>
      <point x="512" y="1331"/>
      <point x="584" y="1328" type="curve" smooth="yes"/>
      <point x="658" y="1325"/>
      <point x="675" y="1267"/>
      <point x="660" y="1193" type="curve"/>
      <point x="640" y="1103" type="line"/>
      <point x="646" y="1084" type="line"/>
      <point x="610" y="886" type="line"/>
    </contour>
    <contour>
      <point x="702" y="1151" type="line"/>
      <point x="542" y="1152" type="line" smooth="yes"/>
      <point x="382" y="1151"/>
      <point x="190" y="1105"/>
      <point x="189" y="912" type="curve" smooth="yes"/>
      <point x="187" y="774"/>
      <point x="281" y="690"/>
      <point x="416" y="691" type="curve" smooth="yes"/>
      <point x="515" y="691"/>
      <point x="618" y="749"/>
      <point x="661" y="838" type="curve"/>
      <point x="658" y="951" type="line"/>
      <point x="620" y="887"/>
      <point x="515" y="832"/>
      <point x="450" y="833" type="curve" smooth="yes"/>
      <point x="397" y="833"/>
      <point x="352" y="855"/>
      <point x="363" y="915" type="curve" smooth="yes"/>
      <point x="379" y="1004"/>
      <point x="480" y="1031"/>
      <point x="557" y="1034" type="curve" smooth="yes"/>
      <point x="682" y="1034" type="line"/>
    </contour>
  </outline>
</glyph>
<glyph name="logicalnot" format="2">
  <advance width="1095"/>
  <unicode hex="00AC"/>
  <outline>
    <contour>
      <point x="970" y="805" type="line"/>
      <point x="158" y="805" type="line"/>
      <point x="128" y="634" type="line"/>
      <point x="940" y="634" type="line"/>
    </contour>
    <contour>
      <point x="956" y="728" type="line"/>
      <point x="760" y="728" type="line"/>
      <point x="698" y="374" type="line"/>
      <point x="895" y="374" type="line"/>
    </contour>
  </outline>
</glyph>
<glyph name="registered" format="2">
  <advance width="1558"/>
  <unicode hex="00AE"/>
  <outline>
    <contour>
      <point x="820" y="653" type="line" smooth="yes"/>
      <point x="843" y="654"/>
      <point x="857" y="659"/>
      <point x="875" y="673" type="curve"/>
      <point x="890" y="687" type="line"/>
      <point x="979" y="713"/>
      <point x="1117" y="778"/>
      <point x="1121" y="915" type="curve" smooth="yes"/>
      <point x="1126" y="1089"/>
      <point x="988" y="1160"/>
      <point x="831" y="1165" type="curve" smooth="yes"/>
      <point x="574" y="1166" type="line"/>
      <point x="441" y="316" type="line"/>
      <point x="590" y="316" type="line"/>
      <point x="702" y="1033" type="line"/>
      <point x="843" y="1032" type="line" smooth="yes"/>
      <point x="928" y="1030"/>
      <point x="996" y="1009"/>
      <point x="976" y="910" type="curve" smooth="yes"/>
      <point x="958" y="819"/>
      <point x="860" y="789"/>
      <point x="779" y="786" type="curve" smooth="yes"/>
      <point x="615" y="787" type="line"/>
      <point x="596" y="653" type="line"/>
    </contour>
    <contour>
      <point x="792" y="654" type="line"/>
      <point x="894" y="645"/>
      <point x="920" y="612"/>
      <point x="911" y="516" type="curve" smooth="yes"/>
      <point x="905" y="461" type="line" smooth="yes"/>
      <point x="899" y="412"/>
      <point x="895" y="364"/>
      <point x="903" y="315" type="curve"/>
      <point x="1051" y="314" type="line"/>
      <point x="1052" y="333" type="line"/>
      <point x="1047" y="375"/>
      <point x="1044" y="416"/>
      <point x="1049" y="459" type="curve" smooth="yes"/>
      <point x="1054" y="508" type="line" smooth="yes"/>
      <point x="1069" y="668"/>
      <point x="1011" y="765"/>
      <point x="815" y="763" type="curve"/>
    </contour>
    <contour>
      <point x="224" y="722" type="curve" smooth="yes"/>
      <point x="270" y="1053"/>
      <point x="554" y="1359"/>
      <point x="903" y="1351" type="curve" smooth="yes"/>
      <point x="1234" y="1345"/>
      <point x="1403" y="1039"/>
      <point x="1361" y="736" type="curve" smooth="yes"/>
      <point x="1315" y="406"/>
      <point x="1031" y="97"/>
      <point x="682" y="104" type="curve" smooth="yes"/>
      <point x="351" y="111"/>
      <point x="182" y="419"/>
    </contour>
    <contour>
      <point x="104" y="722" type="curve" smooth="yes"/>
      <point x="65" y="350"/>
      <point x="296" y="-14"/>
      <point x="694" y="-21" type="curve" smooth="yes"/>
      <point x="1109" y="-27"/>
      <point x="1440" y="339"/>
      <point x="1482" y="735" type="curve" smooth="yes"/>
      <point x="1521" y="1108"/>
      <point x="1289" y="1470"/>
      <point x="892" y="1476" type="curve" smooth="yes"/>
      <point x="477" y="1483"/>
      <point x="145" y="1119"/>
    </contour>
  </outline>
</glyph>
<glyph name="degree" format="2">
  <advance width="772"/>
  <unicode hex="00B0"/>
  <outline>
    <contour>
      <point x="227" y="1192" type="curve" smooth="yes"/>
      <point x="225" y="1052"/>
      <point x="330" y="930"/>
      <point x="473" y="928" type="curve" smooth="yes"/>
      <point x="627" y="925"/>
      <point x="748" y="1059"/>
      <point x="751" y="1209" type="curve" smooth="yes"/>
      <point x="754" y="1347"/>
      <point x="653" y="1475"/>
      <point x="510" y="1477" type="curve" smooth="yes"/>
      <point x="355" y="1480"/>
      <point x="230" y="1343"/>
    </contour>
    <contour>
      <point x="370" y="1193" type="curve" smooth="yes"/>
      <point x="381" y="1263"/>
      <point x="445" y="1330"/>
      <point x="518" y="1329" type="curve" smooth="yes"/>
      <point x="584" y="1328"/>
      <point x="618" y="1268"/>
      <point x="608" y="1208" type="curve" smooth="yes"/>
      <point x="598" y="1138"/>
      <point x="538" y="1076"/>
      <point x="466" y="1076" type="curve" smooth="yes"/>
      <point x="401" y="1076"/>
      <point x="362" y="1132"/>
    </contour>
  </outline>
</glyph>
<glyph name="plusminus" format="2">
  <advance width="1068"/>
  <unicode hex="00B1"/>
  <outline>
    <contour>
      <point x="1031" y="943" type="line"/>
      <point x="140" y="943" type="line"/>
      <point x="102" y="702" type="line"/>
      <point x="992" y="702" type="line"/>
    </contour>
    <contour>
      <point x="766" y="1286" type="line"/>
      <point x="518" y="1286" type="line"/>
      <point x="369" y="337" type="line"/>
      <point x="618" y="337" type="line"/>
    </contour>
    <component base="minus" xOffset="-125" yOffset="-595"/>
  </outline>
</glyph>
<glyph name="acute" format="2">
  <advance width="659"/>
  <unicode hex="00B4"/>
  <anchor x="340" y="1290" name="_top"/>
  <anchor x="399" y="1665" name="mkmktop_acc"/>
  <outline>
    <contour>
      <point x="187" y="1227" type="line"/>
      <point x="435" y="1227" type="line"/>
      <point x="753" y="1536" type="line"/>
      <point x="426" y="1536" type="line"/>
    </contour>
  </outline>
</glyph>
<glyph name="mu" format="2">
  <advance width="1224"/>
  <unicode hex="00B5"/>
  <outline>
    <contour>
      <point x="872" y="1082" type="line"/>
      <point x="730" y="268" type="line"/>
      <point x="735" y="157" type="line"/>
      <point x="715" y="0" type="line"/>
      <point x="966" y="0" type="line"/>
      <point x="1154" y="1082" type="line"/>
    </contour>
    <contour>
      <point x="802" y="504" type="line"/>
      <point x="781" y="336"/>
      <point x="683" y="208"/>
      <point x="521" y="214" type="curve" smooth="yes"/>
      <point x="380" y="218"/>
      <point x="386" y="349"/>
      <point x="394" y="462" type="curve"/>
      <point x="243" y="462" type="line"/>
      <point x="231" y="199" type="line"/>
      <point x="252" y="43"/>
      <point x="368" y="-18"/>
      <point x="502" y="-22" type="curve" smooth="yes"/>
      <point x="760" y="-29"/>
      <point x="885" y="282"/>
      <point x="906" y="508" type="curve"/>
    </contour>
    <contour>
      <point x="219" y="1082" type="line"/>
      <point x="-41" y="-416" type="line"/>
      <point x="241" y="-416" type="line"/>
      <point x="358" y="202" type="line"/>
      <point x="360" y="245" type="line"/>
      <point x="500" y="1082" type="line"/>
    </contour>
  </outline>
</glyph>
<glyph name="paragraph" format="2">
  <advance width="974"/>
  <unicode hex="00B6"/>
  <outline>
    <contour>
      <point x="741" y="0" type="line"/>
      <point x="994" y="1456" type="line"/>
      <point x="681" y="1457" type="line" smooth="yes"/>
      <point x="392" y="1457"/>
      <point x="167" y="1275"/>
      <point x="141" y="980" type="curve" smooth="yes"/>
      <point x="117" y="710"/>
      <point x="285" y="527"/>
      <point x="555" y="521" type="curve" smooth="yes"/>
      <point x="617" y="520" type="line"/>
      <point x="526" y="0" type="line"/>
    </contour>
  </outline>
</glyph>
<glyph name="periodcentered" format="2">
  <advance width="599"/>
  <unicode hex="00B7"/>
  <outline>
    <contour>
      <point x="153" y="692" type="curve" smooth="yes"/>
      <point x="155" y="603"/>
      <point x="225" y="541"/>
      <point x="313" y="542" type="curve" smooth="yes"/>
      <point x="404" y="544"/>
      <point x="473" y="611"/>
      <point x="471" y="703" type="curve" smooth="yes"/>
      <point x="469" y="792"/>
      <point x="399" y="855"/>
      <point x="310" y="854" type="curve" smooth="yes"/>
      <point x="219" y="852"/>
      <point x="151" y="784"/>
    </contour>
  </outline>
</glyph>
<glyph name="cedilla" format="2">
  <advance width="532"/>
  <unicode hex="00B8"/>
  <anchor x="123" y="0" name="_bottom"/>
  <anchor x="43" y="-463" name="mkmkbottom_acc"/>
  <outline>
    <contour>
      <point x="13" y="7" type="line"/>
      <point x="-30" y="-136" type="line"/>
      <point x="16" y="-140"/>
      <point x="105" y="-138"/>
      <point x="92" y="-207" type="curve" smooth="yes"/>
      <point x="79" y="-271"/>
      <point x="21" y="-291"/>
      <point x="-37" y="-296" type="curve"/>
      <point x="-46" y="-465" type="line"/>
      <point x="113" y="-460"/>
      <point x="327" y="-417"/>
      <point x="327" y="-217" type="curve" smooth="yes"/>
      <point x="327" y="-135"/>
      <point x="285" y="-72"/>
      <point x="203" y="-55" type="curve"/>
      <point x="224" y="9" type="line"/>
    </contour>
  </outline>
</glyph>
<glyph name="ordmasculine" format="2">
  <advance width="909"/>
  <unicode hex="00BA"/>
  <outline>
    <contour>
      <point x="195" y="1044" type="line" smooth="yes"/>
      <point x="182" y="851"/>
      <point x="293" y="695"/>
      <point x="495" y="690" type="curve" smooth="yes"/>
      <point x="707" y="685"/>
      <point x="848" y="842"/>
      <point x="869" y="1044" type="curve" smooth="yes"/>
      <point x="875" y="1121" type="line" smooth="yes"/>
      <point x="889" y="1314"/>
      <point x="778" y="1472"/>
      <point x="576" y="1477" type="curve" smooth="yes"/>
      <point x="364" y="1482"/>
      <point x="221" y="1323"/>
      <point x="201" y="1120" type="curve" smooth="yes"/>
    </contour>
    <contour>
      <point x="376" y="1121" type="line" smooth="yes"/>
      <point x="390" y="1229"/>
      <point x="457" y="1334"/>
      <point x="577" y="1330" type="curve" smooth="yes"/>
      <point x="692" y="1326"/>
      <point x="714" y="1218"/>
      <point x="705" y="1122" type="curve" smooth="yes"/>
      <point x="695" y="1044" type="line" smooth="yes"/>
      <point x="680" y="937"/>
      <point x="615" y="831"/>
      <point x="494" y="835" type="curve" smooth="yes"/>
      <point x="379" y="838"/>
      <point x="358" y="946"/>
      <point x="367" y="1041" type="curve" smooth="yes"/>
    </contour>
  </outline>
</glyph>
<glyph name="questiondown" format="2">
  <advance width="989"/>
  <unicode hex="00BF"/>
  <outline>
    <contour>
      <point x="397" y="644" type="line"/>
      <point x="381" y="544"/>
      <point x="346" y="476"/>
      <point x="267" y="412" type="curve" smooth="yes"/>
      <point x="132" y="302"/>
      <point x="-21" y="186"/>
      <point x="-35" y="-2" type="curve" smooth="yes"/>
      <point x="-52" y="-250"/>
      <point x="121" y="-381"/>
      <point x="356" y="-386" type="curve" smooth="yes"/>
      <point x="615" y="-391"/>
      <point x="817" y="-242"/>
      <point x="837" y="23" type="curve"/>
      <point x="555" y="21" type="line"/>
      <point x="535" y="-77"/>
      <point x="474" y="-156"/>
      <point x="365" y="-153" type="curve" smooth="yes"/>
      <point x="275" y="-151"/>
      <point x="242" y="-87"/>
      <point x="254" y="-2" type="curve" smooth="yes"/>
      <point x="272" y="116"/>
      <point x="373" y="194"/>
      <point x="459" y="266" type="curve" smooth="yes"/>
      <point x="583" y="371"/>
      <point x="631" y="485"/>
      <point x="641" y="645" type="curve"/>
    </contour>
    <contour>
      <point x="742" y="955" type="curve" smooth="yes"/>
      <point x="740" y="1043"/>
      <point x="671" y="1105"/>
      <point x="584" y="1104" type="curve" smooth="yes"/>
      <point x="494" y="1102"/>
      <point x="426" y="1035"/>
      <point x="428" y="945" type="curve" smooth="yes"/>
      <point x="429" y="856"/>
      <point x="499" y="794"/>
      <point x="587" y="795" type="curve" smooth="yes"/>
      <point x="677" y="797"/>
      <point x="744" y="864"/>
    </contour>
  </outline>
</glyph>
<glyph name="AE" format="2">
  <advance width="1868"/>
  <unicode hex="00C6"/>
  <anchor x="1081" y="1612" name="top"/>
  <anchor x="2041" y="1600" name="top_dd"/>
  <anchor x="2043" y="1612" name="top0315"/>
  <outline>
    <contour>
      <point x="1084" y="1281" type="line"/>
      <point x="1089" y="1456" type="line"/>
      <point x="905" y="1456" type="line"/>
      <point x="-110" y="0" type="line"/>
      <point x="237" y="0" type="line"/>
      <point x="583" y="528" type="line"/>
      <point x="584" y="537" type="line"/>
    </contour>
    <contour>
      <point x="1066" y="581" type="line"/>
      <point x="334" y="581" type="line"/>
      <point x="291" y="334" type="line"/>
      <point x="1023" y="334" type="line"/>
    </contour>
    <contour>
      <point x="1748" y="236" type="line"/>
      <point x="1036" y="236" type="line"/>
      <point x="994" y="0" type="line"/>
      <point x="1707" y="0" type="line"/>
    </contour>
    <contour>
      <point x="1310" y="1456" type="line"/>
      <point x="1029" y="1456" type="line"/>
      <point x="835" y="0" type="line"/>
      <point x="1116" y="0" type="line"/>
    </contour>
    <contour>
      <point x="1719" y="866" type="line"/>
      <point x="1106" y="866" type="line"/>
      <point x="1064" y="630" type="line"/>
      <point x="1678" y="630" type="line"/>
    </contour>
    <contour>
      <point x="1900" y="1456" type="line"/>
      <point x="1188" y="1456" type="line"/>
      <point x="1147" y="1220" type="line"/>
      <point x="1859" y="1220" type="line"/>
    </contour>
  </outline>
</glyph>
<glyph name="multiply" format="2">
  <advance width="1056"/>
  <unicode hex="00D7"/>
  <outline>
    <contour>
      <point x="173" y="205" type="line"/>
      <point x="1053" y="986" type="line"/>
      <point x="905" y="1168" type="line"/>
      <point x="26" y="387" type="line"/>
    </contour>
    <contour>
      <point x="763" y="204" type="line"/>
      <point x="944" y="361" type="line"/>
      <point x="315" y="1168" type="line"/>
      <point x="134" y="1012" type="line"/>
    </contour>
  </outline>
</glyph>
<glyph name="Oslash" format="2">
  <advance width="1369"/>
  <unicode hex="00D8"/>
  <anchor x="880" y="1674" name="top"/>
  <anchor x="1542" y="1600" name="top_dd"/>
  <anchor x="1554" y="1674" name="top0315"/>
  <outline>
    <contour>
      <point x="606" y="-21" type="curve" smooth="yes"/>
      <point x="1017" y="-26"/>
      <point x="1261" y="321"/>
      <point x="1312" y="696" type="curve" smooth="yes"/>
      <point x="1321" y="761" type="line" smooth="yes"/>
      <point x="1344" y="946"/>
      <point x="1323" y="1123"/>
      <point x="1236" y="1288" type="curve"/>
      <point x="1420" y="1517" type="line"/>
      <point x="1218" y="1518" type="line"/>
      <point x="1119" y="1392" type="line"/>
      <point x="1032" y="1449"/>
      <point x="929" y="1475"/>
      <point x="824" y="1477" type="curve" smooth="yes"/>
      <point x="414" y="1482"/>
      <point x="168" y="1133"/>
      <point x="117" y="759" type="curve" smooth="yes"/>
      <point x="109" y="693" type="line" smooth="yes"/>
      <point x="85" y="502"/>
      <point x="107" y="317"/>
      <point x="207" y="150" type="curve"/>
      <point x="12" y="-94" type="line"/>
      <point x="215" y="-95" type="line"/>
      <point x="329" y="52" type="line"/>
      <point x="414" y="3"/>
      <point x="509" y="-20"/>
    </contour>
    <contour>
      <point x="403" y="695" type="curve" smooth="yes"/>
      <point x="414" y="762" type="line" smooth="yes"/>
      <point x="447" y="978"/>
      <point x="553" y="1239"/>
      <point x="813" y="1231" type="curve" smooth="yes"/>
      <point x="869" y="1229"/>
      <point x="926" y="1214"/>
      <point x="965" y="1172" type="curve"/>
      <point x="392" y="412" type="line"/>
      <point x="380" y="505"/>
      <point x="389" y="602"/>
    </contour>
    <contour>
      <point x="1027" y="762" type="curve" smooth="yes"/>
      <point x="1017" y="695" type="line" smooth="yes"/>
      <point x="983" y="480"/>
      <point x="877" y="217"/>
      <point x="618" y="224" type="curve" smooth="yes"/>
      <point x="569" y="225"/>
      <point x="518" y="237"/>
      <point x="479" y="269" type="curve"/>
      <point x="1045" y="1019" type="line"/>
      <point x="1049" y="934"/>
      <point x="1040" y="848"/>
    </contour>
  </outline>
</glyph>
<glyph name="Thorn" format="2">
  <advance width="1209"/>
  <unicode hex="00DE"/>
  <outline>
    <contour>
      <point x="277" y="1456" type="line"/>
      <point x="24" y="0" type="line"/>
      <point x="307" y="0" type="line"/>
      <point x="560" y="1456" type="line"/>
    </contour>
    <contour>
      <point x="334" y="1188" type="line"/>
      <point x="483" y="957" type="line"/>
      <point x="705" y="955" type="line" smooth="yes"/>
      <point x="832" y="950"/>
      <point x="908" y="874"/>
      <point x="888" y="744" type="curve" smooth="yes"/>
      <point x="865" y="595"/>
      <point x="738" y="520"/>
      <point x="596" y="519" type="curve" smooth="yes"/>
      <point x="356" y="520" type="line"/>
      <point x="315" y="287" type="line"/>
      <point x="590" y="286" type="line" smooth="yes"/>
      <point x="878" y="286"/>
      <point x="1148" y="435"/>
      <point x="1171" y="746" type="curve" smooth="yes"/>
      <point x="1192" y="1033"/>
      <point x="976" y="1182"/>
      <point x="710" y="1188" type="curve" smooth="yes"/>
    </contour>
  </outline>
</glyph>
<glyph name="germandbls" format="2">
  <advance width="1253"/>
  <unicode hex="00DF"/>
  <outline>
    <contour>
      <point x="495" y="1098" type="line" smooth="yes"/>
      <point x="512" y="1211"/>
      <point x="562" y="1337"/>
      <point x="697" y="1331" type="curve" smooth="yes"/>
      <point x="781" y="1327"/>
      <point x="823" y="1266"/>
      <point x="813" y="1185" type="curve" smooth="yes"/>
      <point x="795" y="1043"/>
      <point x="667" y="955"/>
      <point x="657" y="808" type="curve" smooth="yes"/>
      <point x="645" y="620"/>
      <point x="897" y="522"/>
      <point x="867" y="358" type="curve" smooth="yes"/>
      <point x="850" y="261"/>
      <point x="765" y="213"/>
      <point x="673" y="212" type="curve" smooth="yes"/>
      <point x="602" y="211"/>
      <point x="528" y="229"/>
      <point x="468" y="266" type="curve"/>
      <point x="395" y="35" type="line"/>
      <point x="479" y="-6"/>
      <point x="578" y="-21"/>
      <point x="671" y="-22" type="curve" smooth="yes"/>
      <point x="915" y="-24"/>
      <point x="1134" y="101"/>
      <point x="1146" y="364" type="curve" smooth="yes"/>
      <point x="1154" y="545"/>
      <point x="911" y="666"/>
      <point x="940" y="822" type="curve" smooth="yes"/>
      <point x="967" y="963"/>
      <point x="1089" y="1047"/>
      <point x="1100" y="1197" type="curve" smooth="yes"/>
      <point x="1116" y="1423"/>
      <point x="948" y="1555"/>
      <point x="734" y="1560" type="curve" smooth="yes"/>
      <point x="442" y="1567"/>
      <point x="252" y="1385"/>
      <point x="214" y="1102" type="curve" smooth="yes"/>
      <point x="27" y="0" type="line"/>
      <point x="309" y="0" type="line"/>
    </contour>
  </outline>
</glyph>
<glyph name="ae" format="2">
  <advance width="1678"/>
  <unicode hex="00E6"/>
  <anchor x="955" y="1291" name="top"/>
  <anchor x="1851" y="1600" name="top_dd"/>
  <anchor x="1797" y="1291" name="top0315"/>
  <outline>
    <contour>
      <point x="628" y="181" type="line"/>
      <point x="911" y="216" type="line"/>
      <point x="991" y="712" type="line"/>
      <point x="1015" y="988"/>
      <point x="857" y="1098"/>
      <point x="618" y="1103" type="curve" smooth="yes"/>
      <point x="403" y="1107"/>
      <point x="145" y="1009"/>
      <point x="133" y="763" type="curve"/>
      <point x="415" y="745" type="line"/>
      <point x="433" y="833"/>
      <point x="519" y="872"/>
      <point x="604" y="869" type="curve" smooth="yes"/>
      <point x="696" y="866"/>
      <point x="732" y="803"/>
      <point x="715" y="702" type="curve" smooth="yes"/>
    </contour>
    <contour>
      <point x="757" y="650" type="line"/>
      <point x="536" y="651" type="line" smooth="yes"/>
      <point x="310" y="651"/>
      <point x="26" y="585"/>
      <point x="15" y="312" type="curve" smooth="yes"/>
      <point x="6" y="96"/>
      <point x="164" y="-17"/>
      <point x="367" y="-20" type="curve" smooth="yes"/>
      <point x="530" y="-23"/>
      <point x="714" y="35"/>
      <point x="815" y="191" type="curve"/>
      <point x="710" y="343" type="line"/>
      <point x="650" y="251"/>
      <point x="508" y="189"/>
      <point x="428" y="190" type="curve" smooth="yes"/>
      <point x="354" y="191"/>
      <point x="285" y="223"/>
      <point x="299" y="307" type="curve" smooth="yes"/>
      <point x="319" y="418"/>
      <point x="442" y="460"/>
      <point x="540" y="462" type="curve" smooth="yes"/>
      <point x="725" y="461" type="line"/>
    </contour>
    <contour>
      <point x="1123" y="-19" type="curve" smooth="yes"/>
      <point x="1253" y="-21"/>
      <point x="1418" y="8"/>
      <point x="1520" y="98" type="curve"/>
      <point x="1458" y="291" type="line"/>
      <point x="1362" y="246"/>
      <point x="1267" y="212"/>
      <point x="1160" y="214" type="curve" smooth="yes"/>
      <point x="993" y="219"/>
      <point x="938" y="336"/>
      <point x="965" y="494" type="curve"/>
      <point x="976" y="615" type="line"/>
      <point x="1009" y="745"/>
      <point x="1088" y="877"/>
      <point x="1234" y="870" type="curve" smooth="yes"/>
      <point x="1347" y="865"/>
      <point x="1374" y="774"/>
      <point x="1355" y="675" type="curve" smooth="yes"/>
      <point x="1349" y="644" type="line"/>
      <point x="831" y="645" type="line"/>
      <point x="797" y="450" type="line"/>
      <point x="1602" y="450" type="line"/>
      <point x="1626" y="612" type="line" smooth="yes"/>
      <point x="1656" y="873"/>
      <point x="1529" y="1095"/>
      <point x="1250" y="1102" type="curve" smooth="yes"/>
      <point x="940" y="1110"/>
      <point x="732" y="861"/>
      <point x="698" y="563" type="curve" smooth="yes"/>
      <point x="690" y="494" type="line" smooth="yes"/>
      <point x="657" y="204"/>
      <point x="787" y="-15"/>
    </contour>
  </outline>
</glyph>
<glyph name="eth" format="2">
  <advance width="1144"/>
  <unicode hex="00F0"/>
  <outline>
    <contour>
      <point x="362" y="1356" type="line"/>
      <point x="735" y="1257"/>
      <point x="852" y="1005"/>
      <point x="799" y="653" type="curve" smooth="yes"/>
      <point x="784" y="548" type="line" smooth="yes"/>
      <point x="762" y="402"/>
      <point x="683" y="204"/>
      <point x="504" y="211" type="curve" smooth="yes"/>
      <point x="370" y="216"/>
      <point x="330" y="344"/>
      <point x="343" y="459" type="curve" smooth="yes"/>
      <point x="360" y="611"/>
      <point x="449" y="751"/>
      <point x="617" y="747" type="curve" smooth="yes"/>
      <point x="714" y="746"/>
      <point x="828" y="702"/>
      <point x="823" y="589" type="curve"/>
      <point x="923" y="586" type="line"/>
      <point x="915" y="848"/>
      <point x="775" y="960"/>
      <point x="560" y="966" type="curve" smooth="yes"/>
      <point x="265" y="974"/>
      <point x="84" y="735"/>
      <point x="60" y="459" type="curve" smooth="yes"/>
      <point x="38" y="193"/>
      <point x="216" y="-14"/>
      <point x="485" y="-21" type="curve" smooth="yes"/>
      <point x="822" y="-28"/>
      <point x="1030" y="273"/>
      <point x="1072" y="578" type="curve" smooth="yes"/>
      <point x="1082" y="650" type="line" smooth="yes"/>
      <point x="1140" y="1103"/>
      <point x="928" y="1476"/>
      <point x="467" y="1581" type="curve"/>
    </contour>
    <contour>
      <point x="1093" y="1383" type="line"/>
      <point x="1031" y="1511" type="line"/>
      <point x="434" y="1159" type="line"/>
      <point x="497" y="1031" type="line"/>
    </contour>
  </outline>
</glyph>
<glyph name="divide" format="2">
  <advance width="1133"/>
  <unicode hex="00F7"/>
  <outline>
    <contour>
      <point x="488" y="1085" type="curve" smooth="yes"/>
      <point x="490" y="995"/>
      <point x="561" y="937"/>
      <point x="648" y="938" type="curve" smooth="yes"/>
      <point x="738" y="940"/>
      <point x="808" y="1003"/>
      <point x="806" y="1095" type="curve" smooth="yes"/>
      <point x="804" y="1185"/>
      <point x="732" y="1244"/>
      <point x="645" y="1242" type="curve" smooth="yes"/>
      <point x="555" y="1241"/>
      <point x="486" y="1177"/>
    </contour>
    <contour>
      <point x="1095" y="802" type="line"/>
      <point x="96" y="802" type="line"/>
      <point x="56" y="571" type="line"/>
      <point x="1055" y="571" type="line"/>
    </contour>
    <contour>
      <point x="347" y="273" type="curve" smooth="yes"/>
      <point x="349" y="183"/>
      <point x="420" y="125"/>
      <point x="508" y="126" type="curve" smooth="yes"/>
      <point x="597" y="128"/>
      <point x="667" y="191"/>
      <point x="665" y="283" type="curve" smooth="yes"/>
      <point x="663" y="373"/>
      <point x="592" y="432"/>
      <point x="504" y="430" type="curve" smooth="yes"/>
      <point x="414" y="429"/>
      <point x="345" y="365"/>
    </contour>
  </outline>
</glyph>
<glyph name="oslash" format="2">
  <advance width="1122"/>
  <unicode hex="00F8"/>
  <anchor x="642" y="1285" name="top"/>
  <anchor x="1294" y="1600" name="top_dd"/>
  <anchor x="1240" y="1285" name="top0315"/>
  <outline>
    <contour>
      <point x="1080" y="1216" type="line"/>
      <point x="907" y="1216" type="line"/>
      <point x="734" y="958" type="line"/>
      <point x="723" y="921" type="line"/>
      <point x="257" y="213" type="line"/>
      <point x="245" y="170" type="line"/>
      <point x="28" y="-142" type="line"/>
      <point x="202" y="-142" type="line"/>
      <point x="373" y="119" type="line"/>
      <point x="384" y="150" type="line"/>
      <point x="865" y="883" type="line"/>
      <point x="877" y="921" type="line"/>
    </contour>
    <contour>
      <point x="54" y="524" type="line" smooth="yes"/>
      <point x="22" y="193"/>
      <point x="172" y="-15"/>
      <point x="459" y="-21" type="curve" smooth="yes"/>
      <point x="804" y="-28"/>
      <point x="1016" y="228"/>
      <point x="1049" y="531" type="curve" smooth="yes"/>
      <point x="1051" y="553" type="line" smooth="yes"/>
      <point x="1079" y="855"/>
      <point x="966" y="1097"/>
      <point x="630" y="1103" type="curve" smooth="yes"/>
      <point x="297" y="1108"/>
      <point x="88" y="850"/>
      <point x="56" y="545" type="curve" smooth="yes"/>
    </contour>
    <contour>
      <point x="336" y="546" type="line" smooth="yes"/>
      <point x="364" y="698"/>
      <point x="437" y="878"/>
      <point x="614" y="872" type="curve" smooth="yes"/>
      <point x="781" y="866"/>
      <point x="803" y="739"/>
      <point x="771" y="553" type="curve" smooth="yes"/>
      <point x="767" y="532" type="line" smooth="yes"/>
      <point x="740" y="378"/>
      <point x="665" y="206"/>
      <point x="488" y="211" type="curve" smooth="yes"/>
      <point x="328" y="216"/>
      <point x="297" y="333"/>
      <point x="332" y="524" type="curve" smooth="yes"/>
    </contour>
  </outline>
</glyph>
<glyph name="thorn" format="2">
  <advance width="1127"/>
  <unicode hex="00FE"/>
  <outline>
    <contour>
      <point x="555" y="1536" type="line"/>
      <point x="271" y="1536" type="line"/>
      <point x="-67" y="-416" type="line"/>
      <point x="216" y="-416" type="line"/>
      <point x="329" y="182" type="line"/>
      <point x="328" y="229" type="line"/>
      <point x="445" y="903" type="line"/>
      <point x="439" y="940" type="line"/>
    </contour>
    <contour>
      <point x="1047" y="559" type="line" smooth="yes"/>
      <point x="1072" y="805"/>
      <point x="1004" y="1095"/>
      <point x="708" y="1103" type="curve" smooth="yes"/>
      <point x="454" y="1110"/>
      <point x="270" y="800"/>
      <point x="229" y="554" type="curve" smooth="yes"/>
      <point x="225" y="511" type="line"/>
      <point x="217" y="246"/>
      <point x="284" y="-14"/>
      <point x="565" y="-21" type="curve" smooth="yes"/>
      <point x="872" y="-28"/>
      <point x="1013" y="275"/>
      <point x="1045" y="538" type="curve" smooth="yes"/>
    </contour>
    <contour>
      <point x="762" y="539" type="line" smooth="yes"/>
      <point x="745" y="397"/>
      <point x="680" y="208"/>
      <point x="506" y="212" type="curve" smooth="yes"/>
      <point x="360" y="216"/>
      <point x="322" y="311"/>
      <point x="337" y="470" type="curve"/>
      <point x="355" y="598" type="line"/>
      <point x="379" y="741"/>
      <point x="479" y="877"/>
      <point x="621" y="869" type="curve" smooth="yes"/>
      <point x="780" y="861"/>
      <point x="777" y="678"/>
      <point x="764" y="561" type="curve" smooth="yes"/>
    </contour>
  </outline>
</glyph>
<glyph name="dcroat" format="2">
  <advance width="1252"/>
  <unicode hex="0111"/>
  <anchor x="949" y="1312" name="parenthesses.w2"/>
  <anchor x="1426" y="1603" name="top0315"/>
  <anchor x="657" y="1603" name="top"/>
  <anchor x="468" y="0" name="bottom"/>
  <anchor x="468" y="0" name="markbottom"/>
  <anchor x="1282" y="1536" name="caron"/>
  <anchor x="1293" y="1600" name="top_dd"/>
  <anchor x="946" y="-407" name="bottom_dd"/>
  <outline>
    <contour>
      <point x="1304" y="1401" type="line"/>
      <point x="623" y="1401" type="line"/>
      <point x="591" y="1219" type="line"/>
      <point x="1272" y="1219" type="line"/>
    </contour>
    <component base="d"/>
  </outline>
</glyph>
<glyph name="dotlessi" format="2">
  <advance width="544"/>
  <unicode hex="0131"/>
  <anchor x="333" y="654" name="rhotichook"/>
  <anchor x="389" y="1275" name="top"/>
  <anchor x="161" y="10" name="bottom"/>
  <anchor x="661" y="1275" name="top0315"/>
  <outline>
    <contour>
      <point x="496" y="1082" type="line"/>
      <point x="213" y="1082" type="line"/>
      <point x="25" y="0" type="line"/>
      <point x="308" y="0" type="line"/>
    </contour>
  </outline>
</glyph>
<glyph name="kgreenlandic" format="2">
  <advance width="1173"/>
  <unicode hex="0138"/>
  <anchor x="700" y="1290" name="top"/>
  <anchor x="478" y="10" name="bottom"/>
  <anchor x="1292" y="1290" name="top0315"/>
  <outline>
    <contour>
      <point x="492" y="1082" type="line"/>
      <point x="209" y="1082" type="line"/>
      <point x="22" y="0" type="line"/>
      <point x="304" y="0" type="line"/>
    </contour>
    <contour>
      <point x="1214" y="1082" type="line"/>
      <point x="838" y="1082" type="line"/>
      <point x="494" y="676" type="line"/>
      <point x="336" y="675" type="line"/>
      <point x="322" y="399" type="line"/>
      <point x="613" y="399" type="line"/>
    </contour>
    <contour>
      <point x="681" y="0" type="line"/>
      <point x="1027" y="0" type="line"/>
      <point x="717" y="597" type="line"/>
      <point x="466" y="464" type="line"/>
    </contour>
  </outline>
</glyph>
<glyph name="Lslash" format="2">
  <advance width="1108"/>
  <unicode hex="0141"/>
  <anchor x="472" y="1600" name="top"/>
  <anchor x="481" y="10" name="bottom"/>
  <anchor x="1281" y="1600" name="top0315"/>
  <outline>
    <contour>
      <point x="723" y="962" type="line"/>
      <point x="59" y="775" type="line"/>
      <point x="28" y="600" type="line"/>
      <point x="692" y="787" type="line"/>
    </contour>
    <component base="L" xOffset="33"/>
  </outline>
</glyph>
<glyph name="lslash" format="2">
  <advance width="607"/>
  <unicode hex="0142"/>
  <anchor x="490" y="1683" name="top"/>
  <anchor x="201" y="10" name="bottom"/>
  <anchor x="794" y="1683" name="top0315"/>
  <outline>
    <contour>
      <point x="640" y="963" type="line"/>
      <point x="59" y="776" type="line"/>
      <point x="28" y="598" type="line"/>
      <point x="609" y="785" type="line"/>
    </contour>
    <component base="l" xOffset="35"/>
  </outline>
</glyph>
<glyph name="Eng" format="2">
  <advance width="1397"/>
  <unicode hex="014A"/>
  <anchor x="877" y="1600" name="top"/>
  <anchor x="599" y="3" name="bottom"/>
  <anchor x="1570" y="1600" name="top0315"/>
  <outline>
    <contour>
      <point x="273" y="1456" type="line"/>
      <point x="20" y="0" type="line"/>
      <point x="314" y="0" type="line"/>
      <point x="560" y="1419" type="line"/>
      <point x="557" y="1456" type="line"/>
    </contour>
    <contour>
      <point x="343" y="1346" type="line"/>
      <point x="887" y="-2" type="line"/>
      <point x="1101" y="111" type="line"/>
      <point x="557" y="1456" type="line"/>
    </contour>
    <contour>
      <point x="1129" y="1456" type="line"/>
      <point x="874" y="-28" type="line" smooth="yes"/>
      <point x="859" y="-113"/>
      <point x="817" y="-197"/>
      <point x="719" y="-198" type="curve" smooth="yes"/>
      <point x="686" y="-198"/>
      <point x="654" y="-192"/>
      <point x="623" y="-183" type="curve"/>
      <point x="585" y="-421" type="line"/>
      <point x="636" y="-432"/>
      <point x="686" y="-439"/>
      <point x="739" y="-440" type="curve" smooth="yes"/>
      <point x="994" y="-442"/>
      <point x="1140" y="-269"/>
      <point x="1171" y="-27" type="curve" smooth="yes"/>
      <point x="1423" y="1456" type="line"/>
    </contour>
  </outline>
</glyph>
<glyph name="eng" format="2">
  <advance width="1122"/>
  <unicode hex="014B"/>
  <anchor x="606" y="-308" name="parenthesses.w1"/>
  <anchor x="454" y="10" name="markbottom"/>
  <anchor x="678" y="1290" name="top"/>
  <anchor x="454" y="10" name="bottom"/>
  <anchor x="1241" y="1290" name="top0315"/>
  <outline>
    <contour>
      <point x="188" y="1082" type="line"/>
      <point x="0" y="0" type="line"/>
      <point x="283" y="0" type="line"/>
      <point x="428" y="833" type="line"/>
      <point x="420" y="892" type="line"/>
      <point x="449" y="1082" type="line"/>
    </contour>
    <contour>
      <point x="323" y="577" type="line"/>
      <point x="356" y="731"/>
      <point x="466" y="876"/>
      <point x="625" y="869" type="curve" smooth="yes"/>
      <point x="745" y="863"/>
      <point x="752" y="760"/>
      <point x="740" y="661" type="curve" smooth="yes"/>
      <point x="626" y="-35" type="line" smooth="yes"/>
      <point x="612" y="-121"/>
      <point x="569" y="-206"/>
      <point x="471" y="-205" type="curve" smooth="yes"/>
      <point x="438" y="-205"/>
      <point x="406" y="-198"/>
      <point x="374" y="-189" type="curve"/>
      <point x="340" y="-423" type="line"/>
      <point x="390" y="-433"/>
      <point x="439" y="-440"/>
      <point x="490" y="-440" type="curve" smooth="yes"/>
      <point x="741" y="-442"/>
      <point x="880" y="-272"/>
      <point x="911" y="-35" type="curve" smooth="yes"/>
      <point x="1023" y="661" type="line"/>
      <point x="1045" y="873"/>
      <point x="989" y="1096"/>
      <point x="740" y="1103" type="curve" smooth="yes"/>
      <point x="459" y="1110"/>
      <point x="320" y="789"/>
      <point x="289" y="575" type="curve"/>
    </contour>
  </outline>
</glyph>
<glyph name="OE" format="2">
  <advance width="1924"/>
  <unicode hex="0152"/>
  <anchor x="1130" y="1600" name="top"/>
  <anchor x="854" y="0" name="bottom"/>
  <anchor x="2096" y="1600" name="top_dd"/>
  <anchor x="1750" y="-407" name="bottom_dd"/>
  <anchor x="2096" y="1600" name="top0315"/>
  <outline>
    <contour>
      <point x="810" y="1478" type="curve" smooth="yes"/>
      <point x="453" y="1479"/>
      <point x="189" y="1228"/>
      <point x="139" y="880" type="curve" smooth="yes"/>
      <point x="92" y="576" type="line" smooth="yes"/>
      <point x="50" y="247"/>
      <point x="258" y="-12"/>
      <point x="592" y="-18" type="curve" smooth="yes"/>
      <point x="684" y="-20"/>
      <point x="776" y="-12"/>
      <point x="868" y="-2" type="curve"/>
      <point x="890" y="238" type="line"/>
      <point x="795" y="222"/>
      <point x="698" y="212"/>
      <point x="601" y="215" type="curve" smooth="yes"/>
      <point x="395" y="222"/>
      <point x="351" y="398"/>
      <point x="374" y="575" type="curve" smooth="yes"/>
      <point x="422" y="882" type="line" smooth="yes"/>
      <point x="455" y="1088"/>
      <point x="583" y="1249"/>
      <point x="805" y="1247" type="curve" smooth="yes"/>
      <point x="896" y="1246"/>
      <point x="988" y="1235"/>
      <point x="1077" y="1215" type="curve"/>
      <point x="1102" y="1457" type="line"/>
      <point x="1005" y="1467"/>
      <point x="908" y="1477"/>
    </contour>
    <component base="E" xOffset="747"/>
  </outline>
</glyph>
<glyph name="oe" format="2">
  <advance width="1792"/>
  <unicode hex="0153"/>
  <anchor x="1020" y="1290" name="top"/>
  <anchor x="795" y="-7" name="bottom"/>
  <anchor x="1965" y="1600" name="top_dd"/>
  <anchor x="1618" y="-407" name="bottom_dd"/>
  <anchor x="1912" y="1290" name="top0315"/>
  <outline>
    <contour>
      <point x="1211" y="-19" type="curve" smooth="yes"/>
      <point x="1348" y="-21"/>
      <point x="1510" y="9"/>
      <point x="1616" y="101" type="curve"/>
      <point x="1552" y="291" type="line"/>
      <point x="1456" y="244"/>
      <point x="1358" y="211"/>
      <point x="1248" y="215" type="curve" smooth="yes"/>
      <point x="1083" y="221"/>
      <point x="1050" y="371"/>
      <point x="1065" y="508" type="curve" smooth="yes"/>
      <point x="1070" y="546" type="line" smooth="yes"/>
      <point x="1088" y="681"/>
      <point x="1151" y="876"/>
      <point x="1319" y="871" type="curve" smooth="yes"/>
      <point x="1434" y="867"/>
      <point x="1466" y="777"/>
      <point x="1448" y="676" type="curve" smooth="yes"/>
      <point x="1442" y="646" type="line"/>
      <point x="928" y="647" type="line"/>
      <point x="893" y="450" type="line"/>
      <point x="1694" y="450" type="line"/>
      <point x="1719" y="613" type="line" smooth="yes"/>
      <point x="1750" y="879"/>
      <point x="1618" y="1096"/>
      <point x="1336" y="1103" type="curve" smooth="yes"/>
      <point x="1034" y="1110"/>
      <point x="821" y="838"/>
      <point x="790" y="547" type="curve" smooth="yes"/>
      <point x="786" y="507" type="line" smooth="yes"/>
      <point x="760" y="216"/>
      <point x="887" y="-14"/>
    </contour>
    <contour>
      <point x="68" y="523" type="line" smooth="yes"/>
      <point x="40" y="237"/>
      <point x="182" y="-14"/>
      <point x="491" y="-21" type="curve" smooth="yes"/>
      <point x="809" y="-28"/>
      <point x="1023" y="227"/>
      <point x="1059" y="532" type="curve" smooth="yes"/>
      <point x="1062" y="554" type="line" smooth="yes"/>
      <point x="1098" y="890"/>
      <point x="951" y="1096"/>
      <point x="639" y="1102" type="curve" smooth="yes"/>
      <point x="311" y="1109"/>
      <point x="107" y="850"/>
      <point x="71" y="544" type="curve" smooth="yes"/>
    </contour>
    <contour>
      <point x="355" y="544" type="line" smooth="yes"/>
      <point x="374" y="692"/>
      <point x="446" y="876"/>
      <point x="624" y="870" type="curve" smooth="yes"/>
      <point x="790" y="864"/>
      <point x="793" y="678"/>
      <point x="779" y="553" type="curve" smooth="yes"/>
      <point x="776" y="532" type="line" smooth="yes"/>
      <point x="757" y="384"/>
      <point x="684" y="205"/>
      <point x="506" y="211" type="curve" smooth="yes"/>
      <point x="340" y="217"/>
      <point x="338" y="398"/>
      <point x="352" y="523" type="curve" smooth="yes"/>
    </contour>
  </outline>
</glyph>
<glyph name="longs" format="2">
  <advance width="516"/>
  <unicode hex="017F"/>
  <anchor x="563" y="1688" name="top"/>
  <anchor x="161" y="10" name="bottom"/>
  <anchor x="704" y="1688" name="top0315"/>
  <outline>
    <contour>
      <point x="291" y="0" type="line"/>
      <point x="494" y="1176" type="line" smooth="yes"/>
      <point x="512" y="1269"/>
      <point x="577" y="1328"/>
      <point x="673" y="1327" type="curve" smooth="yes"/>
      <point x="705" y="1327"/>
      <point x="736" y="1322"/>
      <point x="766" y="1314" type="curve"/>
      <point x="806" y="1540" type="line"/>
      <point x="752" y="1550"/>
      <point x="698" y="1560"/>
      <point x="643" y="1561" type="curve" smooth="yes"/>
      <point x="398" y="1563"/>
      <point x="239" y="1415"/>
      <point x="208" y="1175" type="curve" smooth="yes"/>
      <point x="9" y="0" type="line"/>
    </contour>
  </outline>
</glyph>
<glyph name="Bhook" format="2">
  <advance width="1561"/>
  <unicode hex="0181"/>
  <outline>
    <contour>
      <point x="739" y="1213" type="line"/>
      <point x="781" y="1456" type="line"/>
      <point x="557" y="1457" type="line" smooth="yes"/>
      <point x="319" y="1458"/>
      <point x="139" y="1330"/>
      <point x="118" y="1084" type="curve" smooth="yes"/>
      <point x="115" y="1036"/>
      <point x="116" y="989"/>
      <point x="124" y="941" type="curve"/>
      <point x="351" y="941" type="line"/>
      <point x="350" y="971"/>
      <point x="348" y="999"/>
      <point x="351" y="1027" type="curve" smooth="yes"/>
      <point x="365" y="1137"/>
      <point x="433" y="1214"/>
      <point x="547" y="1216" type="curve" smooth="yes"/>
    </contour>
    <contour>
      <point x="993" y="635" type="line"/>
      <point x="1094" y="710" type="line"/>
      <point x="1290" y="722"/>
      <point x="1506" y="832"/>
      <point x="1520" y="1066" type="curve" smooth="yes"/>
      <point x="1538" y="1353"/>
      <point x="1297" y="1454"/>
      <point x="1047" y="1455" type="curve" smooth="yes"/>
      <point x="578" y="1456" type="line"/>
      <point x="316" y="0" type="line"/>
      <point x="611" y="0" type="line"/>
      <point x="821" y="1212" type="line"/>
      <point x="1040" y="1212" type="line" smooth="yes"/>
      <point x="1161" y="1211"/>
      <point x="1242" y="1167"/>
      <point x="1222" y="1035" type="curve" smooth="yes"/>
      <point x="1200" y="893"/>
      <point x="1072" y="847"/>
      <point x="943" y="846" type="curve" smooth="yes"/>
      <point x="656" y="847" type="line"/>
      <point x="620" y="635" type="line"/>
    </contour>
    <contour>
      <point x="876" y="0" type="line" smooth="yes"/>
      <point x="1161" y="-3"/>
      <point x="1421" y="123"/>
      <point x="1440" y="437" type="curve" smooth="yes"/>
      <point x="1451" y="638"/>
      <point x="1328" y="766"/>
      <point x="1127" y="771" type="curve"/>
      <point x="1077" y="846" type="line"/>
      <point x="737" y="847" type="line"/>
      <point x="698" y="635" type="line"/>
      <point x="997" y="634" type="line" smooth="yes"/>
      <point x="1118" y="629"/>
      <point x="1169" y="558"/>
      <point x="1150" y="439" type="curve" smooth="yes"/>
      <point x="1129" y="304"/>
      <point x="1011" y="241"/>
      <point x="883" y="241" type="curve" smooth="yes"/>
      <point x="579" y="241" type="line"/>
      <point x="420" y="0" type="line"/>
    </contour>
  </outline>
</glyph>
<glyph name="tonesix" format="2">
  <advance width="1243"/>
  <unicode hex="0185"/>
  <outline>
    <contour>
      <point x="383" y="1536" type="line"/>
      <point x="312" y="1487"/>
      <point x="239" y="1422"/>
      <point x="180" y="1360" type="curve"/>
      <point x="167" y="1222" type="line"/>
      <point x="223" y="1169"/>
      <point x="277" y="1108"/>
      <point x="323" y="1046" type="curve"/>
      <point x="366" y="1046" type="line"/>
      <point x="436" y="1537" type="line"/>
    </contour>
    <component base="b" xOffset="125"/>
  </outline>
</glyph>
<glyph name="Chook" format="2">
  <advance width="1434"/>
  <unicode hex="0187"/>
  <outline>
    <contour>
      <point x="1301" y="962" type="line"/>
      <point x="1336" y="1174" type="line" smooth="yes"/>
      <point x="1359" y="1290"/>
      <point x="1452" y="1333"/>
      <point x="1563" y="1329" type="curve" smooth="yes"/>
      <point x="1591" y="1328"/>
      <point x="1617" y="1324"/>
      <point x="1643" y="1319" type="curve"/>
      <point x="1668" y="1560" type="line"/>
      <point x="1618" y="1571"/>
      <point x="1568" y="1578"/>
      <point x="1517" y="1579" type="curve" smooth="yes"/>
      <point x="1269" y="1581"/>
      <point x="1126" y="1409"/>
      <point x="1096" y="1173" type="curve" smooth="yes"/>
      <point x="1063" y="962" type="line"/>
    </contour>
    <contour>
      <point x="916" y="484" type="line"/>
      <point x="880" y="315"/>
      <point x="772" y="218"/>
      <point x="594" y="225" type="curve" smooth="yes"/>
      <point x="354" y="233"/>
      <point x="374" y="502"/>
      <point x="397" y="679" type="curve" smooth="yes"/>
      <point x="410" y="777" type="line" smooth="yes"/>
      <point x="439" y="990"/>
      <point x="533" y="1241"/>
      <point x="788" y="1232" type="curve" smooth="yes"/>
      <point x="962" y="1226"/>
      <point x="1014" y="1122"/>
      <point x="1014" y="961" type="curve"/>
      <point x="1306" y="960" type="line"/>
      <point x="1292" y="1267"/>
      <point x="1163" y="1471"/>
      <point x="802" y="1477" type="curve" smooth="yes"/>
      <point x="397" y="1484"/>
      <point x="165" y="1142"/>
      <point x="112" y="774" type="curve" smooth="yes"/>
      <point x="99" y="680" type="line" smooth="yes"/>
      <point x="55" y="334"/>
      <point x="188" y="-13"/>
      <point x="581" y="-20" type="curve" smooth="yes"/>
      <point x="895" y="-26"/>
      <point x="1168" y="164"/>
      <point x="1204" y="488" type="curve"/>
    </contour>
  </outline>
</glyph>
<glyph name="chook" format="2">
  <advance width="1172"/>
  <unicode hex="0188"/>
  <outline>
    <contour>
      <point x="999" y="679" type="line"/>
      <point x="1029" y="860" type="line" smooth="yes"/>
      <point x="1047" y="959"/>
      <point x="1128" y="1006"/>
      <point x="1225" y="1003" type="curve" smooth="yes"/>
      <point x="1249" y="1002"/>
      <point x="1271" y="998"/>
      <point x="1294" y="994" type="curve"/>
      <point x="1312" y="1188" type="line"/>
      <point x="1268" y="1198"/>
      <point x="1225" y="1205"/>
      <point x="1180" y="1205" type="curve" smooth="yes"/>
      <point x="973" y="1206"/>
      <point x="852" y="1056"/>
      <point x="828" y="857" type="curve" smooth="yes"/>
      <point x="806" y="679" type="line"/>
    </contour>
    <contour>
      <point x="477" y="212" type="curve" smooth="yes"/>
      <point x="326" y="216"/>
      <point x="316" y="367"/>
      <point x="335" y="525" type="curve" smooth="yes"/>
      <point x="338" y="553" type="line" smooth="yes"/>
      <point x="357" y="696"/>
      <point x="412" y="875"/>
      <point x="589" y="870" type="curve" smooth="yes"/>
      <point x="700" y="866"/>
      <point x="740" y="781"/>
      <point x="740" y="678" type="curve"/>
      <point x="999" y="678" type="line"/>
      <point x="1001" y="980"/>
      <point x="859" y="1097"/>
      <point x="607" y="1102" type="curve" smooth="yes"/>
      <point x="285" y="1109"/>
      <point x="94" y="853"/>
      <point x="57" y="553" type="curve" smooth="yes"/>
      <point x="54" y="524" type="line" smooth="yes"/>
      <point x="21" y="239"/>
      <point x="155" y="-14"/>
      <point x="475" y="-20" type="curve" smooth="yes"/>
      <point x="710" y="-25"/>
      <point x="923" y="132"/>
      <point x="941" y="375" type="curve"/>
      <point x="676" y="374" type="line"/>
      <point x="655" y="275"/>
      <point x="581" y="209"/>
    </contour>
  </outline>
</glyph>
<glyph name="Dhook" format="2">
  <advance width="1588"/>
  <unicode hex="018A"/>
  <outline>
    <contour>
      <point x="739" y="1213" type="line"/>
      <point x="781" y="1456" type="line"/>
      <point x="557" y="1457" type="line" smooth="yes"/>
      <point x="318" y="1458"/>
      <point x="139" y="1331"/>
      <point x="118" y="1084" type="curve" smooth="yes"/>
      <point x="114" y="1036"/>
      <point x="116" y="989"/>
      <point x="124" y="941" type="curve"/>
      <point x="351" y="941" type="line"/>
      <point x="350" y="971"/>
      <point x="348" y="999"/>
      <point x="351" y="1028" type="curve" smooth="yes"/>
      <point x="364" y="1138"/>
      <point x="433" y="1214"/>
      <point x="547" y="1216" type="curve" smooth="yes"/>
    </contour>
    <contour>
      <point x="768" y="0" type="line" smooth="yes"/>
      <point x="1177" y="-2"/>
      <point x="1468" y="302"/>
      <point x="1522" y="695" type="curve" smooth="yes"/>
      <point x="1530" y="760" type="line" smooth="yes"/>
      <point x="1572" y="1126"/>
      <point x="1378" y="1446"/>
      <point x="988" y="1455" type="curve" smooth="yes"/>
      <point x="691" y="1456" type="line"/>
      <point x="649" y="1213" type="line"/>
      <point x="978" y="1212" type="line" smooth="yes"/>
      <point x="1228" y="1209"/>
      <point x="1260" y="970"/>
      <point x="1233" y="764" type="curve" smooth="yes"/>
      <point x="1224" y="697" type="line" smooth="yes"/>
      <point x="1188" y="448"/>
      <point x="1046" y="240"/>
      <point x="776" y="241" type="curve" smooth="yes"/>
      <point x="488" y="242" type="line"/>
      <point x="444" y="0" type="line"/>
    </contour>
    <contour>
      <point x="864" y="1456" type="line"/>
      <point x="579" y="1456" type="line"/>
      <point x="317" y="0" type="line"/>
      <point x="612" y="0" type="line"/>
    </contour>
  </outline>
</glyph>
<glyph name="Dtopbar" format="2">
  <advance width="1245"/>
  <unicode hex="018B"/>
  <outline>
    <contour>
      <point x="1033" y="0" type="line"/>
      <point x="1286" y="1456" type="line"/>
      <point x="359" y="1456" type="line"/>
      <point x="316" y="1213" type="line"/>
      <point x="950" y="1213" type="line"/>
      <point x="901" y="932" type="line"/>
      <point x="651" y="933" type="line" smooth="yes"/>
      <point x="359" y="932"/>
      <point x="77" y="781"/>
      <point x="53" y="464" type="curve" smooth="yes"/>
      <point x="31" y="167"/>
      <point x="250" y="10"/>
      <point x="526" y="1" type="curve" smooth="yes"/>
    </contour>
    <contour>
      <point x="781" y="242" type="line"/>
      <point x="532" y="243" type="line" smooth="yes"/>
      <point x="401" y="249"/>
      <point x="327" y="334"/>
      <point x="347" y="465" type="curve" smooth="yes"/>
      <point x="369" y="616"/>
      <point x="500" y="690"/>
      <point x="643" y="691" type="curve" smooth="yes"/>
      <point x="859" y="689" type="line"/>
    </contour>
  </outline>
</glyph>
<glyph name="dtopbar" format="2">
  <advance width="1120"/>
  <unicode hex="018C"/>
  <outline>
    <contour>
      <point x="1050" y="1536" type="line"/>
      <point x="420" y="1536" type="line"/>
      <point x="388" y="1353" type="line"/>
      <point x="1018" y="1353" type="line"/>
    </contour>
    <component base="d"/>
  </outline>
</glyph>
<glyph name="deltaturn" format="2">
  <advance width="1122"/>
  <unicode hex="018D"/>
  <outline>
    <contour>
      <point x="764" y="-376" type="line"/>
      <point x="787" y="-222" type="line"/>
      <point x="704" y="-125"/>
      <point x="612" y="-30"/>
      <point x="542" y="77" type="curve"/>
      <point x="558" y="77"/>
      <point x="574" y="77"/>
      <point x="590" y="79" type="curve" smooth="yes"/>
      <point x="848" y="106"/>
      <point x="1026" y="335"/>
      <point x="1053" y="581" type="curve" smooth="yes"/>
      <point x="1055" y="603" type="line" smooth="yes"/>
      <point x="1079" y="885"/>
      <point x="915" y="1096"/>
      <point x="624" y="1102" type="curve" smooth="yes"/>
      <point x="307" y="1109"/>
      <point x="94" y="871"/>
      <point x="60" y="569" type="curve" smooth="yes"/>
      <point x="58" y="547" type="line" smooth="yes"/>
      <point x="38" y="326"/>
      <point x="158" y="146"/>
      <point x="306" y="-5" type="curve" smooth="yes"/>
      <point x="351" y="-50"/>
      <point x="403" y="-92"/>
      <point x="439" y="-143" type="curve"/>
      <point x="40" y="-144" type="line"/>
      <point x="-1" y="-375" type="line"/>
    </contour>
    <contour>
      <point x="764" y="557" type="line" smooth="yes"/>
      <point x="745" y="405"/>
      <point x="670" y="225"/>
      <point x="489" y="230" type="curve" smooth="yes"/>
      <point x="471" y="231"/>
      <point x="453" y="234"/>
      <point x="435" y="239" type="curve"/>
      <point x="346" y="316"/>
      <point x="327" y="435"/>
      <point x="339" y="548" type="curve" smooth="yes"/>
      <point x="342" y="568" type="line" smooth="yes"/>
      <point x="361" y="715"/>
      <point x="437" y="876"/>
      <point x="608" y="870" type="curve" smooth="yes"/>
      <point x="769" y="865"/>
      <point x="779" y="704"/>
      <point x="766" y="578" type="curve" smooth="yes"/>
    </contour>
  </outline>
</glyph>
<glyph name="Eturn" format="2">
  <advance width="1118"/>
  <unicode hex="018E"/>
  <outline>
    <contour>
      <point x="150" y="1214" type="line"/>
      <point x="899" y="1214" type="line"/>
      <point x="941" y="1456" type="line"/>
      <point x="192" y="1456" type="line"/>
    </contour>
    <contour>
      <point x="595" y="0" type="line"/>
      <point x="889" y="0" type="line"/>
      <point x="1141" y="1456" type="line"/>
      <point x="847" y="1456" type="line"/>
    </contour>
    <contour>
      <point x="139" y="590" type="line"/>
      <point x="791" y="590" type="line"/>
      <point x="832" y="825" type="line"/>
      <point x="180" y="825" type="line"/>
    </contour>
    <contour>
      <point x="-59" y="0" type="line"/>
      <point x="688" y="0" type="line"/>
      <point x="731" y="243" type="line"/>
      <point x="-16" y="243" type="line"/>
    </contour>
  </outline>
</glyph>
<glyph name="Schwa" format="2">
  <advance width="1381"/>
  <unicode hex="018F"/>
  <anchor x="843" y="1600" name="top"/>
  <anchor x="577" y="0" name="bottom"/>
  <anchor x="1553" y="1600" name="top0315"/>
  <outline>
    <contour>
      <point x="594" y="-21" type="curve" smooth="yes"/>
      <point x="977" y="-27"/>
      <point x="1246" y="295"/>
      <point x="1299" y="652" type="curve" smooth="yes"/>
      <point x="1320" y="800" type="line" smooth="yes"/>
      <point x="1370" y="1186"/>
      <point x="1146" y="1472"/>
      <point x="750" y="1476" type="curve" smooth="yes"/>
      <point x="594" y="1477"/>
      <point x="429" y="1464"/>
      <point x="309" y="1400" type="curve"/>
      <point x="336" y="1149" type="line"/>
      <point x="461" y="1190"/>
      <point x="591" y="1215"/>
      <point x="723" y="1212" type="curve" smooth="yes"/>
      <point x="974" y="1206"/>
      <point x="1061" y="1042"/>
      <point x="1028" y="801" type="curve" smooth="yes"/>
      <point x="1007" y="651" type="line" smooth="yes"/>
      <point x="980" y="462"/>
      <point x="842" y="234"/>
      <point x="611" y="240" type="curve" smooth="yes"/>
      <point x="422" y="245"/>
      <point x="327" y="366"/>
      <point x="363" y="550" type="curve" smooth="yes"/>
      <point x="370" y="584" type="line"/>
      <point x="1072" y="583" type="line"/>
      <point x="1115" y="827" type="line"/>
      <point x="112" y="827" type="line"/>
      <point x="86" y="664" type="line" smooth="yes"/>
      <point x="37" y="299"/>
      <point x="197" y="-14"/>
    </contour>
  </outline>
</glyph>
<glyph name="Fhook" format="2">
  <advance width="1186"/>
  <unicode hex="0191"/>
  <outline>
    <contour>
      <point x="269" y="871" type="line"/>
      <point x="114" y="-35" type="line" smooth="yes"/>
      <point x="99" y="-124"/>
      <point x="56" y="-193"/>
      <point x="-43" y="-191" type="curve" smooth="yes"/>
      <point x="-73" y="-191"/>
      <point x="-102" y="-184"/>
      <point x="-130" y="-176" type="curve"/>
      <point x="-170" y="-421" type="line"/>
      <point x="-121" y="-432"/>
      <point x="-71" y="-439"/>
      <point x="-20" y="-440" type="curve" smooth="yes"/>
      <point x="232" y="-442"/>
      <point x="378" y="-273"/>
      <point x="410" y="-34" type="curve" smooth="yes"/>
      <point x="563" y="871" type="line"/>
    </contour>
    <component base="F" xOffset="98"/>
  </outline>
</glyph>
<glyph name="florin" format="2">
  <advance width="717"/>
  <unicode hex="0192"/>
  <outline>
    <contour>
      <point x="738" y="1082" type="line"/>
      <point x="536" y="1082" type="line"/>
      <point x="550" y="1176" type="line" smooth="yes"/>
      <point x="567" y="1268"/>
      <point x="627" y="1325"/>
      <point x="723" y="1325" type="curve" smooth="yes"/>
      <point x="755" y="1325"/>
      <point x="787" y="1320"/>
      <point x="818" y="1313" type="curve"/>
      <point x="860" y="1538" type="line"/>
      <point x="806" y="1548"/>
      <point x="751" y="1559"/>
      <point x="696" y="1559" type="curve" smooth="yes"/>
      <point x="452" y="1562"/>
      <point x="292" y="1417"/>
      <point x="264" y="1176" type="curve" smooth="yes"/>
      <point x="253" y="1082" type="line"/>
      <point x="97" y="1082" type="line"/>
      <point x="64" y="871" type="line"/>
      <point x="221" y="871" type="line"/>
      <point x="79" y="-49" type="line" smooth="yes"/>
      <point x="66" y="-132"/>
      <point x="31" y="-208"/>
      <point x="-64" y="-207" type="curve" smooth="yes"/>
      <point x="-94" y="-207"/>
      <point x="-124" y="-200"/>
      <point x="-153" y="-192" type="curve"/>
      <point x="-188" y="-421" type="line"/>
      <point x="-138" y="-432"/>
      <point x="-89" y="-439"/>
      <point x="-38" y="-440" type="curve" smooth="yes"/>
      <point x="204" y="-441"/>
      <point x="336" y="-278"/>
      <point x="363" y="-49" type="curve" smooth="yes"/>
      <point x="504" y="871" type="line"/>
      <point x="704" y="871" type="line"/>
    </contour>
  </outline>
</glyph>
<glyph name="Ghook" format="2">
  <advance width="1440"/>
  <unicode hex="0193"/>
  <outline>
    <contour>
      <point x="1314" y="993" type="line"/>
      <point x="1344" y="1174" type="line" smooth="yes"/>
      <point x="1367" y="1290"/>
      <point x="1459" y="1336"/>
      <point x="1572" y="1331" type="curve" smooth="yes"/>
      <point x="1599" y="1330"/>
      <point x="1625" y="1326"/>
      <point x="1652" y="1321" type="curve"/>
      <point x="1676" y="1560" type="line"/>
      <point x="1626" y="1571"/>
      <point x="1576" y="1578"/>
      <point x="1525" y="1578" type="curve" smooth="yes"/>
      <point x="1284" y="1581"/>
      <point x="1130" y="1408"/>
      <point x="1100" y="1172" type="curve" smooth="yes"/>
      <point x="1078" y="993" type="line"/>
    </contour>
    <contour>
      <point x="1273" y="765" type="line"/>
      <point x="717" y="765" type="line"/>
      <point x="678" y="545" type="line"/>
      <point x="943" y="545" type="line"/>
      <point x="894" y="293" type="line"/>
      <point x="819" y="240"/>
      <point x="734" y="221"/>
      <point x="642" y="223" type="curve" smooth="yes"/>
      <point x="390" y="228"/>
      <point x="380" y="489"/>
      <point x="405" y="683" type="curve" smooth="yes"/>
      <point x="417" y="773" type="line" smooth="yes"/>
      <point x="448" y="988"/>
      <point x="553" y="1245"/>
      <point x="810" y="1235" type="curve" smooth="yes"/>
      <point x="965" y="1229"/>
      <point x="1025" y="1137"/>
      <point x="1036" y="992" type="curve"/>
      <point x="1315" y="993" type="line"/>
      <point x="1295" y="1347"/>
      <point x="1126" y="1473"/>
      <point x="815" y="1478" type="curve" smooth="yes"/>
      <point x="402" y="1485"/>
      <point x="172" y="1145"/>
      <point x="119" y="771" type="curve" smooth="yes"/>
      <point x="108" y="684" type="line" smooth="yes"/>
      <point x="63" y="324"/>
      <point x="216" y="-14"/>
      <point x="617" y="-19" type="curve" smooth="yes"/>
      <point x="807" y="-22"/>
      <point x="1057" y="23"/>
      <point x="1183" y="184" type="curve"/>
    </contour>
  </outline>
</glyph>
<glyph name="Gamma1" format="2">
  <advance width="1325"/>
  <unicode hex="0194"/>
  <outline>
    <contour>
      <point x="177" y="1458" type="line"/>
      <point x="518" y="226" type="line"/>
      <point x="552" y="120" type="line"/>
      <point x="582" y="41"/>
      <point x="615" y="-75"/>
      <point x="601" y="-148" type="curve" smooth="yes"/>
      <point x="594" y="-185"/>
      <point x="570" y="-228"/>
      <point x="530" y="-227" type="curve" smooth="yes"/>
      <point x="494" y="-225"/>
      <point x="489" y="-196"/>
      <point x="494" y="-159" type="curve" smooth="yes"/>
      <point x="508" y="-63"/>
      <point x="587" y="47"/>
      <point x="631" y="128" type="curve"/>
      <point x="647" y="168" type="line"/>
      <point x="1455" y="1455" type="line"/>
      <point x="1105" y="1455" type="line"/>
      <point x="554" y="495" type="line"/>
      <point x="489" y="368" type="line"/>
      <point x="311" y="130"/>
      <point x="198" y="-28"/>
      <point x="189" y="-166" type="curve" smooth="yes"/>
      <point x="178" y="-353"/>
      <point x="341" y="-435"/>
      <point x="507" y="-438" type="curve" smooth="yes"/>
      <point x="687" y="-441"/>
      <point x="853" y="-352"/>
      <point x="870" y="-152" type="curve" smooth="yes"/>
      <point x="877" y="-61"/>
      <point x="840" y="80"/>
      <point x="754" y="360" type="curve"/>
      <point x="722" y="485" type="line"/>
      <point x="502" y="1458" type="line"/>
    </contour>
  </outline>
</glyph>
<glyph name="hv" format="2">
  <advance width="1691"/>
  <unicode hex="0195"/>
  <outline>
    <contour>
      <point x="545" y="1536" type="line"/>
      <point x="264" y="1536" type="line"/>
      <point x="-3" y="0" type="line"/>
      <point x="279" y="0" type="line"/>
      <point x="437" y="907" type="line"/>
      <point x="431" y="941" type="line"/>
    </contour>
    <contour>
      <point x="340" y="578" type="line"/>
      <point x="364" y="725"/>
      <point x="456" y="875"/>
      <point x="609" y="869" type="curve" smooth="yes"/>
      <point x="734" y="865"/>
      <point x="752" y="781"/>
      <point x="737" y="673" type="curve" smooth="yes"/>
      <point x="711" y="500" type="line"/>
      <point x="993" y="500" type="line"/>
      <point x="1020" y="673" type="line" smooth="yes"/>
      <point x="1048" y="895"/>
      <point x="976" y="1096"/>
      <point x="724" y="1102" type="curve" smooth="yes"/>
      <point x="443" y="1109"/>
      <point x="293" y="780"/>
      <point x="266" y="575" type="curve"/>
    </contour>
    <contour>
      <point x="1074" y="-20" type="curve" smooth="yes"/>
      <point x="1372" y="-27"/>
      <point x="1525" y="142"/>
      <point x="1562" y="428" type="curve" smooth="yes"/>
      <point x="1672" y="1082" type="line"/>
      <point x="1390" y="1082" type="line"/>
      <point x="1279" y="425" type="line" smooth="yes"/>
      <point x="1264" y="322"/>
      <point x="1213" y="207"/>
      <point x="1091" y="213" type="curve" smooth="yes"/>
      <point x="977" y="218"/>
      <point x="970" y="336"/>
      <point x="983" y="425" type="curve" smooth="yes"/>
      <point x="999" y="538" type="line"/>
      <point x="716" y="538" type="line"/>
      <point x="701" y="427" type="line" smooth="yes"/>
      <point x="670" y="154"/>
      <point x="793" y="-15"/>
    </contour>
  </outline>
</glyph>
<glyph name="Iota1" format="2">
  <advance width="699"/>
  <unicode hex="0196"/>
  <outline>
    <contour>
      <point x="568" y="1536" type="line"/>
      <point x="286" y="1536" type="line"/>
      <point x="87" y="361" type="line"/>
      <point x="64" y="135"/>
      <point x="198" y="-16"/>
      <point x="425" y="-19" type="curve" smooth="yes"/>
      <point x="474" y="-19"/>
      <point x="523" y="-11"/>
      <point x="572" y="-1" type="curve"/>
      <point x="568" y="225" type="line"/>
      <point x="536" y="219"/>
      <point x="504" y="214"/>
      <point x="472" y="216" type="curve" smooth="yes"/>
      <point x="385" y="219"/>
      <point x="358" y="277"/>
      <point x="367" y="358" type="curve"/>
    </contour>
  </outline>
</glyph>
<glyph name="Khook" format="2">
  <advance width="1262"/>
  <unicode hex="0198"/>
  <outline>
    <contour>
      <point x="568" y="1456" type="line"/>
      <point x="274" y="1456" type="line"/>
      <point x="21" y="0" type="line"/>
      <point x="315" y="0" type="line"/>
    </contour>
    <contour>
      <point x="837" y="0" type="line"/>
      <point x="1170" y="0" type="line"/>
      <point x="766" y="863" type="line"/>
      <point x="532" y="681" type="line"/>
    </contour>
    <contour>
      <point x="804" y="1213" type="curve" smooth="yes"/>
      <point x="609" y="988" type="line"/>
      <point x="335" y="659" type="line"/>
      <point x="340" y="355" type="line"/>
      <point x="731" y="725" type="line"/>
      <point x="1043" y="1094" type="line" smooth="yes"/>
      <point x="1084" y="1145"/>
      <point x="1136" y="1225"/>
      <point x="1211" y="1225" type="curve" smooth="yes"/>
      <point x="1241" y="1225"/>
      <point x="1265" y="1213"/>
      <point x="1290" y="1198" type="curve"/>
      <point x="1415" y="1413" type="line"/>
      <point x="1340" y="1450"/>
      <point x="1265" y="1479"/>
      <point x="1180" y="1480" type="curve" smooth="yes"/>
      <point x="1001" y="1482"/>
      <point x="904" y="1339"/>
    </contour>
  </outline>
</glyph>
<glyph name="khook" format="2">
  <advance width="1061"/>
  <unicode hex="0199"/>
  <outline>
    <contour>
      <point x="467" y="1065" type="line"/>
      <point x="185" y="1065" type="line"/>
      <point x="3" y="0" type="line"/>
      <point x="286" y="0" type="line"/>
      <point x="387" y="583" type="line"/>
      <point x="387" y="640" type="line"/>
    </contour>
    <contour>
      <point x="1144" y="1082" type="line"/>
      <point x="783" y="1082" type="line"/>
      <point x="418" y="710" type="line"/>
      <point x="233" y="515" type="line"/>
      <point x="300" y="282" type="line"/>
      <point x="591" y="537" type="line"/>
    </contour>
    <contour>
      <point x="663" y="0" type="line"/>
      <point x="973" y="0" type="line"/>
      <point x="645" y="676" type="line"/>
      <point x="435" y="510" type="line"/>
    </contour>
    <contour>
      <point x="462" y="1034" type="line"/>
      <point x="495" y="1214" type="line" smooth="yes"/>
      <point x="513" y="1313"/>
      <point x="594" y="1361"/>
      <point x="691" y="1358" type="curve" smooth="yes"/>
      <point x="715" y="1357"/>
      <point x="737" y="1353"/>
      <point x="760" y="1348" type="curve"/>
      <point x="777" y="1543" type="line"/>
      <point x="725" y="1554"/>
      <point x="673" y="1560"/>
      <point x="620" y="1560" type="curve" smooth="yes"/>
      <point x="389" y="1563"/>
      <point x="246" y="1443"/>
      <point x="209" y="1214" type="curve" smooth="yes"/>
      <point x="180" y="1034" type="line"/>
    </contour>
  </outline>
</glyph>
<glyph name="lambdabar" format="2">
  <advance width="1090"/>
  <unicode hex="019B"/>
  <anchor x="1181" y="1603" name="top0315"/>
  <outline>
    <contour>
      <point x="870" y="1385" type="line"/>
      <point x="289" y="1198" type="line"/>
      <point x="253" y="992" type="line"/>
      <point x="834" y="1179" type="line"/>
    </contour>
    <component base="lambda"/>
  </outline>
</glyph>
<glyph name="mcapturn" format="2">
  <advance width="1795"/>
  <unicode hex="019C"/>
  <outline>
    <contour>
      <point x="1325" y="267" type="line"/>
      <point x="1336" y="161" type="line"/>
      <point x="1308" y="0" type="line"/>
      <point x="1562" y="0" type="line"/>
      <point x="1814" y="1456" type="line"/>
      <point x="1531" y="1456" type="line"/>
    </contour>
    <contour>
      <point x="1394" y="507" type="line"/>
      <point x="1374" y="354"/>
      <point x="1287" y="205"/>
      <point x="1118" y="214" type="curve" smooth="yes"/>
      <point x="1005" y="219"/>
      <point x="1002" y="337"/>
      <point x="1012" y="425" type="curve"/>
      <point x="1187" y="1456" type="line"/>
      <point x="905" y="1456" type="line"/>
      <point x="728" y="428" type="line"/>
      <point x="688" y="198"/>
      <point x="758" y="-17"/>
      <point x="1022" y="-21" type="curve" smooth="yes"/>
      <point x="1307" y="-26"/>
      <point x="1450" y="247"/>
      <point x="1474" y="510" type="curve"/>
    </contour>
    <contour>
      <point x="767" y="505" type="line"/>
      <point x="750" y="352"/>
      <point x="662" y="206"/>
      <point x="491" y="214" type="curve" smooth="yes"/>
      <point x="379" y="219"/>
      <point x="376" y="337"/>
      <point x="386" y="424" type="curve"/>
      <point x="561" y="1456" type="line"/>
      <point x="279" y="1456" type="line"/>
      <point x="111" y="465" type="line"/>
      <point x="69" y="199"/>
      <point x="134" y="-17"/>
      <point x="398" y="-22" type="curve" smooth="yes"/>
      <point x="698" y="-27"/>
      <point x="831" y="237"/>
      <point x="859" y="503" type="curve"/>
    </contour>
  </outline>
</glyph>
<glyph name="Nhook" format="2">
  <advance width="1501"/>
  <unicode hex="019D"/>
  <outline>
    <contour>
      <point x="269" y="871" type="line"/>
      <point x="114" y="-35" type="line" smooth="yes"/>
      <point x="99" y="-123"/>
      <point x="56" y="-193"/>
      <point x="-43" y="-191" type="curve" smooth="yes"/>
      <point x="-73" y="-191"/>
      <point x="-102" y="-184"/>
      <point x="-130" y="-176" type="curve"/>
      <point x="-170" y="-421" type="line"/>
      <point x="-121" y="-432"/>
      <point x="-71" y="-439"/>
      <point x="-20" y="-440" type="curve" smooth="yes"/>
      <point x="232" y="-442"/>
      <point x="379" y="-273"/>
      <point x="410" y="-34" type="curve" smooth="yes"/>
      <point x="563" y="871" type="line"/>
    </contour>
    <component base="N" xOffset="97"/>
  </outline>
</glyph>
<glyph name="Ohorn" format="2">
  <advance width="1393"/>
  <unicode hex="01A0"/>
  <anchor x="858" y="1603" name="top"/>
  <anchor x="559" y="0" name="bottom"/>
  <anchor x="1567" y="1603" name="top0315"/>
  <outline>
    <contour>
      <point x="1395" y="1567" type="line"/>
      <point x="1376" y="1415"/>
      <point x="1327" y="1288"/>
      <point x="1171" y="1281" type="curve"/>
      <point x="1158" y="1121" type="line"/>
      <point x="1437" y="1133"/>
      <point x="1566" y="1305"/>
      <point x="1583" y="1569" type="curve"/>
    </contour>
    <contour>
      <point x="1308" y="764" type="line" smooth="yes"/>
      <point x="1325" y="905"/>
      <point x="1329" y="1077"/>
      <point x="1269" y="1200" type="curve" smooth="yes"/>
      <point x="1192" y="1360"/>
      <point x="1030" y="1472"/>
      <point x="810" y="1476" type="curve" smooth="yes"/>
      <point x="401" y="1483"/>
      <point x="155" y="1132"/>
      <point x="104" y="759" type="curve" smooth="yes"/>
      <point x="96" y="693" type="line" smooth="yes"/>
      <point x="54" y="343"/>
      <point x="199" y="-13"/>
      <point x="594" y="-20" type="curve" smooth="yes"/>
      <point x="1007" y="-28"/>
      <point x="1249" y="326"/>
      <point x="1300" y="700" type="curve" smooth="yes"/>
    </contour>
    <contour>
      <point x="1003" y="695" type="line" smooth="yes"/>
      <point x="973" y="482"/>
      <point x="865" y="216"/>
      <point x="608" y="226" type="curve" smooth="yes"/>
      <point x="367" y="235"/>
      <point x="370" y="516"/>
      <point x="392" y="694" type="curve" smooth="yes"/>
      <point x="402" y="762" type="line" smooth="yes"/>
      <point x="432" y="976"/>
      <point x="540" y="1239"/>
      <point x="797" y="1229" type="curve" smooth="yes"/>
      <point x="1037" y="1220"/>
      <point x="1034" y="942"/>
      <point x="1012" y="763" type="curve" smooth="yes"/>
    </contour>
  </outline>
</glyph>
<glyph name="ohorn" format="2">
  <advance width="1155"/>
  <unicode hex="01A1"/>
  <anchor x="680" y="1290" name="top"/>
  <anchor x="455" y="-10" name="bottom"/>
  <anchor x="1274" y="1290" name="top0315"/>
  <outline>
    <contour>
      <point x="1096" y="1184" type="line"/>
      <point x="1077" y="1046"/>
      <point x="1033" y="926"/>
      <point x="875" y="921" type="curve"/>
      <point x="866" y="796" type="line"/>
      <point x="1120" y="811"/>
      <point x="1250" y="937"/>
      <point x="1266" y="1185" type="curve"/>
    </contour>
    <component base="o"/>
  </outline>
</glyph>
<glyph name="OI" format="2">
  <advance width="1782"/>
  <unicode hex="01A2"/>
  <outline>
    <contour>
      <point x="606" y="-19" type="curve" smooth="yes"/>
      <point x="798" y="-22"/>
      <point x="1040" y="25"/>
      <point x="1166" y="185" type="curve"/>
      <point x="1307" y="1042" type="line"/>
      <point x="1461" y="1106" type="line"/>
      <point x="1196" y="-417" type="line"/>
      <point x="1479" y="-417" type="line"/>
      <point x="1803" y="1456" type="line"/>
      <point x="1574" y="1456" type="line"/>
      <point x="1282" y="1330" type="line"/>
      <point x="1164" y="1444"/>
      <point x="983" y="1475"/>
      <point x="826" y="1477" type="curve" smooth="yes"/>
      <point x="412" y="1482"/>
      <point x="165" y="1156"/>
      <point x="112" y="773" type="curve" smooth="yes"/>
      <point x="100" y="683" type="line" smooth="yes"/>
      <point x="55" y="323"/>
      <point x="205" y="-13"/>
    </contour>
    <contour>
      <point x="831" y="1238" type="curve" smooth="yes"/>
      <point x="907" y="1236"/>
      <point x="1000" y="1225"/>
      <point x="1050" y="1161" type="curve"/>
      <point x="891" y="297" type="line"/>
      <point x="815" y="242"/>
      <point x="727" y="221"/>
      <point x="633" y="223" type="curve" smooth="yes"/>
      <point x="383" y="229"/>
      <point x="371" y="489"/>
      <point x="396" y="682" type="curve" smooth="yes"/>
      <point x="408" y="773" type="line" smooth="yes"/>
      <point x="443" y="1008"/>
      <point x="561" y="1243"/>
    </contour>
  </outline>
</glyph>
<glyph name="oi" format="2">
  <advance width="1442"/>
  <unicode hex="01A3"/>
  <outline>
    <contour>
      <point x="1076" y="742" type="line"/>
      <point x="875" y="-417" type="line"/>
      <point x="1157" y="-417" type="line"/>
      <point x="1417" y="1082" type="line"/>
      <point x="1207" y="1082" type="line"/>
      <point x="929" y="963" type="line"/>
      <point x="851" y="1055"/>
      <point x="733" y="1100"/>
      <point x="614" y="1103" type="curve" smooth="yes"/>
      <point x="290" y="1109"/>
      <point x="92" y="855"/>
      <point x="55" y="553" type="curve" smooth="yes"/>
      <point x="52" y="524" type="line" smooth="yes"/>
      <point x="23" y="239"/>
      <point x="152" y="-13"/>
      <point x="464" y="-20" type="curve" smooth="yes"/>
      <point x="639" y="-24"/>
      <point x="796" y="47"/>
      <point x="892" y="194" type="curve"/>
      <point x="970" y="697" type="line"/>
    </contour>
    <contour>
      <point x="469" y="214" type="curve" smooth="yes"/>
      <point x="306" y="219"/>
      <point x="321" y="408"/>
      <point x="334" y="525" type="curve" smooth="yes"/>
      <point x="338" y="553" type="line" smooth="yes"/>
      <point x="356" y="699"/>
      <point x="418" y="877"/>
      <point x="596" y="871" type="curve" smooth="yes"/>
      <point x="643" y="870"/>
      <point x="682" y="853"/>
      <point x="711" y="816" type="curve"/>
      <point x="608" y="259" type="line"/>
      <point x="565" y="230"/>
      <point x="521" y="212"/>
    </contour>
  </outline>
</glyph>
